<svg xmlns="http://www.w3.org/2000/svg" class="block-icon" width="38.643" height="39.777" viewBox="0 0 38.643 39.777">
  <g id="Add_to_Cart" data-name="Add to Cart" transform="translate(-0.001)">
    <g id="Group_72099" data-name="Group 72099">
      <g id="Group_72025" data-name="Group 72025">
        <g id="Group_72024" data-name="Group 72024" transform="translate(0 8.866)">
          <path id="Path_10148" data-name="Path 10148" d="M20.429,27.362H4.092A4.092,4.092,0,0,1,.028,22.8L2.59,1.008A1.141,1.141,0,0,1,3.724,0H28.811a1.141,1.141,0,0,1,1.134,1.013l1.471,11.671a1.142,1.142,0,1,1-2.268.264L27.8,2.277H4.735L2.283,23.059a1.809,1.809,0,0,0,1.8,2.021H20.424a1.142,1.142,0,1,1,0,2.28Z" fill="#b3b7c0"/>
        </g>
        <path id="Path_10149" data-name="Path 10149" d="M14.423,14.093a1.141,1.141,0,0,1-1.142-1.142V7.786a5.5,5.5,0,0,0-11,0v5.162a1.142,1.142,0,1,1-2.28,0V7.783a7.783,7.783,0,1,1,15.565,0v5.165a1.141,1.141,0,0,1-1.144,1.141Z" transform="translate(8.484)" fill="#b3b7c0"/>
      </g>
      <g id="Group_74451" data-name="Group 74451">
        <path id="Ellipse_616" data-name="Ellipse 616" d="M7.178,0A7.542,7.542,0,0,1,9.972.531a7.23,7.23,0,0,1,2.282,1.448,6.76,6.76,0,0,1,1.538,2.147,6.412,6.412,0,0,1,0,5.26,6.76,6.76,0,0,1-1.538,2.147,7.23,7.23,0,0,1-2.282,1.448,7.617,7.617,0,0,1-5.588,0A7.23,7.23,0,0,1,2.1,11.533,6.76,6.76,0,0,1,.564,9.386a6.412,6.412,0,0,1,0-5.26A6.76,6.76,0,0,1,2.1,1.979,7.23,7.23,0,0,1,4.384.531,7.542,7.542,0,0,1,7.178,0Z" transform="translate(23.64 25.337)" fill="none"/>
        <path id="Ellipse_616_-_Outline" data-name="Ellipse 616 - Outline" d="M7.852,1.963a5.872,5.872,0,1,0,2.293.459,5.872,5.872,0,0,0-2.293-.459M7.852,0A7.829,7.829,0,1,1,4.8.617,7.829,7.829,0,0,1,7.852,0Z" transform="translate(22.968 24.118)" fill="#837af5"/>
        <g id="Group_72020" data-name="Group 72020" transform="translate(27.678 28.827)">
          <path id="Line_99" data-name="Line 99" d="M.856,6.28A.855.855,0,0,1,0,5.424V.858a.858.858,0,1,1,1.716,0V5.424A.855.855,0,0,1,.86,6.28Z" transform="translate(2.283)" fill="#837af5"/>
          <path id="Line_100" data-name="Line 100" d="M5.422,1.712H.856A.856.856,0,1,1,.856,0H5.422a.856.856,0,0,1,0,1.712Z" transform="translate(0 2.289)" fill="#837af5"/>
        </g>
      </g>
    </g>
  </g>
</svg>
