<svg xmlns="http://www.w3.org/2000/svg" class="block-icon" width="37.299" height="40.44" viewBox="0 0 37.299 40.44">
  <g id="call-for-price" transform="translate(-4128.987 -142.572)">
    <g id="Group_72076" data-name="Group 72076" transform="translate(4128.992 142.572)">
      <g id="Group_71963" data-name="Group 71963">
        <g id="Group_71958" data-name="Group 71958">
          <path id="Path_9981" data-name="Path 9981" d="M1689.87,202.42h-7.3a1.081,1.081,0,0,1-.764-1.846l8.757-8.757a1.081,1.081,0,0,1,1.846.764v7.293A2.543,2.543,0,0,1,1689.87,202.42Zm-4.684-2.158h4.684a.378.378,0,0,0,.377-.377V195.2Z" transform="translate(-1681.492 -191.5)" fill="#b3b7c0"/>
          <path id="Path_9982" data-name="Path 9982" d="M1694.84,225.13h-7.719a5.8,5.8,0,0,1-5.629-5.941l-.005-23.429a1.081,1.081,0,0,1,2.158,0l.005,23.431a3.637,3.637,0,0,0,3.466,3.784h7.716a1.081,1.081,0,1,1,0,2.158Z" transform="translate(-1681.492 -185.71)" fill="#b3b7c0"/>
          <path id="Path_9983" data-name="Path 9983" d="M1708,205a1.081,1.081,0,0,1-1.081-1.081V197.44a3.784,3.784,0,0,0-3.779-3.779h-14.974a1.081,1.081,0,1,1,0-2.158h14.974a5.946,5.946,0,0,1,5.941,5.941v6.479A1.081,1.081,0,0,1,1708,205Z" transform="translate(-1678.107 -191.5)" fill="#b3b7c0"/>
        </g>
      </g>
      <path id="Path_10018" data-name="Path 10018" d="M4.052,20.714a2.331,2.331,0,0,1-1.64-.679L.563,18.185a1.928,1.928,0,0,1,0-2.723l3.124-3.124a1.924,1.924,0,0,1,2.723,0l1.57,1.57a.394.394,0,0,0,.275.115.357.357,0,0,0,.2-.056A17.648,17.648,0,0,0,13.98,8.453a.38.38,0,0,0-.06-.467L12.338,6.411a1.927,1.927,0,0,1,0-2.722L15.462.564a1.924,1.924,0,0,1,2.722,0l1.852,1.854a2.32,2.32,0,0,1,.54,2.43A26.417,26.417,0,0,1,4.847,20.573,2.294,2.294,0,0,1,4.052,20.714Zm1-7.318a.3.3,0,0,0-.216.086L1.708,16.609a.3.3,0,0,0,0,.432L3.56,18.892a.7.7,0,0,0,.491.2.674.674,0,0,0,.234-.041A24.8,24.8,0,0,0,19.047,4.292a.691.691,0,0,0-.161-.725L17.035,1.716a.3.3,0,0,0-.432,0L13.478,4.84a.3.3,0,0,0,0,.432l1.574,1.574a1.986,1.986,0,0,1,.287,2.478,19.258,19.258,0,0,1-6.025,6.019,1.986,1.986,0,0,1-1.065.31,2.024,2.024,0,0,1-1.423-.59L5.257,13.494a.3.3,0,0,0-.211-.1Z" transform="translate(10.964 20.854) rotate(-19)" fill="#837af5"/>
      <g id="Group_65425" data-name="Group 65425" transform="translate(3.184 13.33)">
        <g id="Group_65401" data-name="Group 65401" transform="translate(5.817 2.67)">
          <path id="Path_10019" data-name="Path 10019" d="M1506.84,1089.71a2.548,2.548,0,0,1-2.548-2.548.712.712,0,0,1,.712-.712h0a.712.712,0,0,1,.712.712,1.125,1.125,0,1,0,2.25,0c0-.381-.1-.756-1.345-1.16a4.355,4.355,0,0,1-1.526-.8,2.224,2.224,0,0,1-.8-1.72,2.55,2.55,0,1,1,5.1,0,.712.712,0,1,1-1.424,0,1.125,1.125,0,0,0-2.25,0c0,.214,0,.721,1.346,1.16a4.274,4.274,0,0,1,1.577.816,2.187,2.187,0,0,1,.75,1.7,2.552,2.552,0,0,1-2.549,2.548Z" transform="translate(-1504.287 -1079.911)" fill="#837af5"/>
          <path id="Line_919" data-name="Line 919" d="M-.288,1.46A.712.712,0,0,1-1,.748V-.289A.712.712,0,0,1-.288-1a.712.712,0,0,1,.712.712V.748a.712.712,0,0,1-.208.5.712.712,0,0,1-.5.208Z" transform="translate(2.842 1)" fill="#837af5"/>
          <path id="Line_920" data-name="Line 920" d="M-.288,1.46A.712.712,0,0,1-1,.748V-.289A.712.712,0,0,1-.288-1a.712.712,0,0,1,.712.712V.748a.712.712,0,0,1-.208.5.712.712,0,0,1-.5.208Z" transform="translate(2.842 9.371)" fill="#837af5"/>
        </g>
        <g id="Ellipse_1" data-name="Ellipse 1" transform="translate(0.816 0.67)" fill="none" stroke="#837af5" stroke-width="1.4">
          <circle cx="7.5" cy="7.5" r="7.5" stroke="none"/>
          <circle cx="7.5" cy="7.5" r="6.8" fill="none"/>
        </g>
      </g>
    </g>
  </g>
</svg>
