<svg xmlns="http://www.w3.org/2000/svg" class="block-icon" width="37.266" height="39.961" viewBox="0 0 37.266 39.961">
  <g id="Cart_Coupon" data-name="Cart Coupon" transform="translate(-0.001 0.003)">
    <g id="Group_72101" data-name="Group 72101">
      <g id="Group_72026" data-name="Group 72026">
        <g id="Group_72024" data-name="Group 72024" transform="translate(0 9.038)">
          <path id="Path_10148" data-name="Path 10148" d="M428.605,849.408H412.927a4.173,4.173,0,0,1-4.145-4.656l2.613-22.216a1.164,1.164,0,0,1,1.156-1.028h25.581a1.164,1.164,0,0,1,1.156,1.033l1.5,11.92a1.164,1.164,0,0,1-2.313.269l-1.378-10.9H413.582l-2.5,21.191a1.845,1.845,0,0,0,1.832,2.061H428.6a1.164,1.164,0,1,1,0,2.325Z" transform="translate(-408.753 -821.509)" fill="#b3b7c0"/>
        </g>
        <path id="Path_10149" data-name="Path 10149" d="M429.208,829.867a1.164,1.164,0,0,1-1.164-1.164v-5.267a5.608,5.608,0,0,0-11.216,0V828.7a1.164,1.164,0,1,1-2.325,0v-5.267a7.936,7.936,0,1,1,15.872,0V828.7a1.164,1.164,0,0,1-1.167,1.164Z" transform="translate(-405.85 -815.5)" fill="#b3b7c0"/>
      </g>
      <g id="coupon" transform="translate(14.627 19.411)">
        <path id="Path_11580" data-name="Path 11580" d="M21.375,5H9.115A1.049,1.049,0,0,0,8,5.961V19.893a.426.426,0,0,0,.334.432.568.568,0,0,0,.613-.1l1.282-1.1,1.282,1.1a.6.6,0,0,0,.78,0l1.282-1.1,1.282,1.1a.6.6,0,0,0,.78,0l1.282-1.1,1.282,1.1a.6.6,0,0,0,.78,0l1.282-1.1,1.282,1.1a.547.547,0,0,0,.39.144.378.378,0,0,0,.223-.048.465.465,0,0,0,.334-.432V5.961A1.049,1.049,0,0,0,21.375,5Zm0,13.74-.724-.625a.6.6,0,0,0-.78,0l-1.282,1.1-1.282-1.1a.6.6,0,0,0-.78,0l-1.282,1.1-1.282-1.1a.6.6,0,0,0-.78,0l-1.282,1.1-1.282-1.1a.6.6,0,0,0-.78,0l-.725.625V5.961H21.375Z" fill="#837af5" stroke="#837af5" stroke-width="0.3"/>
        <g id="Group_74452" data-name="Group 74452" transform="translate(1)">
          <path id="Path_11581" data-name="Path 11581" d="M15.144,17.621a.464.464,0,0,0,.673,0l4.8-4.8a.476.476,0,0,0-.673-.673l-4.8,4.8a.464.464,0,0,0,0,.673Z" transform="translate(-3.637 -3.637)" fill="#837af5" stroke="#837af5" stroke-width="0.2"/>
          <path id="Path_11582" data-name="Path 11582" d="M14.477,13.4h.192a1.812,1.812,0,0,0,1.009-.336,1.691,1.691,0,0,0,.288-2.354,1.544,1.544,0,0,0-1.1-.625,1.677,1.677,0,0,0-1.537,2.69,1.553,1.553,0,0,0,1.148.625Zm-.528-1.778a.528.528,0,0,1,.288-.48A.775.775,0,0,1,14.669,11h.1a.528.528,0,0,1,.48.288.688.688,0,0,1,.144.528.528.528,0,0,1-.288.48,1.1,1.1,0,0,1-.528.144.528.528,0,0,1-.48-.288.968.968,0,0,1-.149-.527Z" transform="translate(-2.585 -2.637)" fill="#837af5" stroke="#837af5" stroke-width="0.2"/>
          <path id="Path_11583" data-name="Path 11583" d="M22.66,19.324a2.044,2.044,0,0,0-.673,1.1,1.716,1.716,0,0,0,.336,1.249,2.044,2.044,0,0,0,1.1.673h.24a1.508,1.508,0,0,0,1.009-.336,2.044,2.044,0,0,0,.673-1.1,1.716,1.716,0,0,0-.336-1.249,2.044,2.044,0,0,0-1.1-.673,1.661,1.661,0,0,0-1.249.336Zm1.585.913a.968.968,0,0,1,.144.528,1,1,0,0,1-.288.48.968.968,0,0,1-.528.144,1,1,0,0,1-.48-.288.968.968,0,0,1-.144-.528,1,1,0,0,1,.288-.48.775.775,0,0,1,.432-.144h.1a.817.817,0,0,1,.48.288Z" transform="translate(-7.261 -7.261)" fill="#837af5" stroke="#837af5" stroke-width="0.2"/>
        </g>
      </g>
    </g>
  </g>
</svg>
