<svg xmlns="http://www.w3.org/2000/svg" class="block-icon" width="37.976" height="25.868" viewBox="0 0 37.976 25.868">
  <g id="Group_72176" data-name="Group 72176" transform="translate(-0.003 2.002)">
    <path id="Path_10162" data-name="Path 10162" d="M1625.63,1009.5h31.633a3.175,3.175,0,0,1,3.171,3.171v16.222a.947.947,0,0,1-.943.943h-.008c-.069,0-6.975-.058-11.58-.058-2.046,0-3.047.011-3.536.022l-2.564,5.05a.943.943,0,0,1-1.332.377c-.2-.122-.8-.488-3.07-5.394h-14a.947.947,0,0,1-.943-.943v-16.223a3.175,3.175,0,0,1,3.171-3.17Zm32.92,18.444v-15.273a1.291,1.291,0,0,0-1.285-1.285H1625.63a1.292,1.292,0,0,0-1.285,1.285v15.28h13.662a.947.947,0,0,1,.861.552c.923,2.022,1.565,3.279,1.992,4.054l2.074-4.086a.94.94,0,0,1,.172-.239,1.259,1.259,0,0,1,.969-.3c.207-.008.508-.014.9-.018.689-.009,1.676-.012,2.934-.012,3.586,0,8.583.026,10.639.045Z" transform="translate(-1622.455 -1011.499)" fill="#b3b7c0"/>
    <path id="Stroke_3" data-name="Stroke 3" d="M20.452,1.52H-.076A1.179,1.179,0,0,1-1.124.94a1.179,1.179,0,0,1,0-1.2A1.179,1.179,0,0,1-.076-.837H20.452a1.179,1.179,0,0,1,0,2.357Z" transform="translate(7.856 4.824)" fill="#b3b7c0"/>
    <path id="Stroke_3-2" data-name="Stroke 3" d="M10.563,1.52H-.076A1.179,1.179,0,0,1-1.124.94a1.179,1.179,0,0,1,0-1.2A1.179,1.179,0,0,1-.076-.837H10.563a1.179,1.179,0,1,1,0,2.357Z" transform="translate(7.856 10.459)" fill="#b3b7c0"/>
    <path id="Stroke_3-3" data-name="Stroke 3" d="M9.869,1.52H4.018a1.179,1.179,0,1,1,0-2.357H9.869a1.179,1.179,0,1,1,0,2.357Z" transform="translate(18.437 10.459)" fill="#837af5"/>
  </g>
</svg>
