<svg xmlns="http://www.w3.org/2000/svg" class="block-icon" width="38.47" height="40.642" viewBox="0 0 38.47 40.642">
  <g id="Cart_Totals" data-name="Cart Totals" transform="translate(-0.001 0.003)">
    <g id="Group_72101" data-name="Group 72101">
      <g id="Group_72026" data-name="Group 72026">
        <g id="Group_72024" data-name="Group 72024" transform="translate(0 9.038)">
          <path id="Path_10148" data-name="Path 10148" d="M429.605,849.408H412.927a4.173,4.173,0,0,1-4.145-4.656l2.613-22.216a1.164,1.164,0,0,1,1.156-1.028h25.581a1.164,1.164,0,0,1,1.156,1.033l1.5,11.92a1.164,1.164,0,0,1-2.313.269l-1.378-10.9H413.582l-2.5,21.191a1.845,1.845,0,0,0,1.832,2.061H429.6a1.164,1.164,0,1,1,0,2.325Z" transform="translate(-408.753 -821.509)" fill="#b3b7c0"/>
        </g>
        <path id="Path_10149" data-name="Path 10149" d="M429.208,829.867a1.164,1.164,0,0,1-1.164-1.164v-5.267a5.608,5.608,0,0,0-11.216,0V828.7a1.164,1.164,0,1,1-2.325,0v-5.267a7.936,7.936,0,1,1,15.872,0V828.7a1.164,1.164,0,0,1-1.167,1.164Z" transform="translate(-405.85 -815.5)" fill="#b3b7c0"/>
      </g>
      <g id="Group_6" data-name="Group 6">
        <g id="Group_72023" data-name="Group 72023" transform="translate(27.653 30.557)">
          <path id="Line_99" data-name="Line 99" d="M3.924,1H.123a.873.873,0,0,1,0-1.746h3.8A.873.873,0,1,1,3.924,1Z" transform="translate(0.75 0.75)" fill="#837af5"/>
          <path id="Line_100" data-name="Line 100" d="M3.924,1H.123a.873.873,0,0,1,0-1.746h3.8A.873.873,0,1,1,3.924,1Z" transform="translate(0.75 4.078)" fill="#837af5"/>
        </g>
        <path id="Ellipse_617" data-name="Ellipse 617" d="M8,2a6,6,0,1,0,6,6A6,6,0,0,0,8,2M8,0A8,8,0,1,1,0,8,8,8,0,0,1,8,0Z" transform="translate(22.471 24.639)" fill="#837af5"/>
      </g>
    </g>
  </g>
</svg>
