<svg xmlns="http://www.w3.org/2000/svg" class="block-icon" width="36.974" height="39.596" viewBox="0 0 36.974 39.596">
  <g id="Compare_Loop" data-name="Compare Loop" transform="translate(0.006 0.001)">
    <g id="Group_72089" data-name="Group 72089">
      <path id="Line_61" data-name="Line 61" d="M21.388,1.093H.046A1.047,1.047,0,1,1,.046-1H21.388a1.047,1.047,0,0,1,0,2.093Z" transform="translate(7.77 4.639)" fill="#b3b7c0"/>
      <path id="Line_62" data-name="Line 62" d="M11.642,1.093H.046A1.047,1.047,0,1,1,.046-1h11.6a1.047,1.047,0,1,1,0,2.093Z" transform="translate(12.642 1)" fill="#b3b7c0"/>
      <g id="Group_71985" data-name="Group 71985" transform="translate(0 7.508)">
        <path id="Path_10066" data-name="Path 10066" d="M1331.13,1280.5h23.258a6.533,6.533,0,0,1,4.8,2.142,7.849,7.849,0,0,1,2.035,5.86v20.9a3.1,3.1,0,0,1-2.982,3.186h-30.968a3.1,3.1,0,0,1-2.983-3.186v-20.9a7.846,7.846,0,0,1,2.035-5.86,6.534,6.534,0,0,1,4.8-2.141Zm27.113,30.006a1.024,1.024,0,0,0,.889-1.1V1288.4a5.755,5.755,0,0,0-1.475-4.327,4.46,4.46,0,0,0-3.272-1.476h-23.257a4.462,4.462,0,0,0-3.272,1.475,5.755,5.755,0,0,0-1.474,4.328v21.01a1.023,1.023,0,0,0,.889,1.1Z" transform="translate(-1324.275 -1280.5)" fill="#b3b7c0"/>
      </g>
    </g>
    <g id="Group_65485" data-name="Group 65485" transform="translate(-1350.468 -636.356)">
      <g id="Group_65207" data-name="Group 65207" transform="translate(1358.458 651.369)">
        <path id="Rectangle_161" data-name="Rectangle 161" d="M.858,0H7.682A.858.858,0,0,1,8.54.858V2.624H0V.858A.858.858,0,0,1,.858,0Z" transform="translate(6.229 15.005)" fill="none" stroke="#837af5" stroke-linecap="round" stroke-linejoin="round" stroke-miterlimit="10" stroke-width="1.6"/>
        <line id="Line_849" data-name="Line 849" y1="9.316" transform="translate(10.499 4.409)" fill="none" stroke="#837af5" stroke-linecap="round" stroke-miterlimit="10" stroke-width="1.6"/>
        <path id="Path_9831" data-name="Path 9831" d="M1460.45,702.4a3.289,3.289,0,1,1-6.578,0Z" transform="translate(-1453.873 -695.068)" fill="none" stroke="#837af5" stroke-linecap="round" stroke-linejoin="round" stroke-miterlimit="10" stroke-width="1.6"/>
        <path id="Path_9833" data-name="Path 9833" d="M1473.08,702.4a3.289,3.289,0,1,0,6.578,0Z" transform="translate(-1458.658 -695.068)" fill="none" stroke="#837af5" stroke-linecap="round" stroke-linejoin="round" stroke-miterlimit="10" stroke-width="1.6"/>
        <path id="Path_9836" data-name="Path 9836" d="M1458.26,698.856v-3.434a13.821,13.821,0,0,1,14.423,0v3.434" transform="translate(-1454.972 -693.391)" fill="none" stroke="#837af5" stroke-linecap="round" stroke-linejoin="round" stroke-miterlimit="10" stroke-width="1.6"/>
      </g>
    </g>
  </g>
</svg>
