<svg xmlns="http://www.w3.org/2000/svg" class="block-icon" width="40.025" height="38" viewBox="0 0 40.025 38">
  <g id="Compare_Single" data-name="Compare Single" transform="translate(1.698 -0.798)">
    <g id="Group_65458" data-name="Group 65458" transform="translate(-1773.681 -425.202)">
      <g id="Group_64881" data-name="Group 64881" transform="translate(1773 427)">
        <path id="Path_9576" data-name="Path 9576" d="M1647.17,1228.9h-32.425a2.789,2.789,0,0,1-2.562-2.97v-30.664a2.221,2.221,0,0,1,2.042-2.366h33.916a2.222,2.222,0,0,1,2.042,2.366v30.142a3.281,3.281,0,0,1-3.013,3.491Z" transform="translate(-1612.186 -1192.9)" fill="none" stroke="#b3b7c0" stroke-linecap="round" stroke-linejoin="round" stroke-width="2"/>
        <path id="Path_9577" data-name="Path 9577" d="M1618.06,1196.88a1.462,1.462,0,1,0-.428,1.036,1.462,1.462,0,0,0,.428-1.036Z" transform="translate(-1610.741 -1192.642)" fill="#b3b7c0"/>
        <path id="Path_9578" data-name="Path 9578" d="M1620.79,1196.88a1.461,1.461,0,1,0-1.462,1.461,1.461,1.461,0,0,0,1.462-1.461Z" transform="translate(-1609.401 -1192.642)" fill="#b3b7c0"/>
        <path id="Path_9579" data-name="Path 9579" d="M1623.53,1196.88a1.462,1.462,0,1,0-1.461,1.462,1.461,1.461,0,0,0,1.461-1.462Z" transform="translate(-1608.06 -1192.642)" fill="#b3b7c0"/>
      </g>
      <line id="Line_732" data-name="Line 732" x2="37.999" transform="translate(1773 435.132)" fill="none" stroke="#b3b7c0" stroke-linecap="round" stroke-linejoin="round" stroke-width="2"/>
    </g>
    <g id="Group_65485" data-name="Group 65485" transform="translate(-1350.468 -636.356)">
      <g id="Group_65207" data-name="Group 65207" transform="translate(1358.458 651.369)">
        <path id="Rectangle_161" data-name="Rectangle 161" d="M.858,0H7.682A.858.858,0,0,1,8.54.858V2.624H0V.858A.858.858,0,0,1,.858,0Z" transform="translate(6.229 15.005)" fill="none" stroke="#837af5" stroke-linecap="round" stroke-linejoin="round" stroke-miterlimit="10" stroke-width="1.6"/>
        <line id="Line_849" data-name="Line 849" y1="9.316" transform="translate(10.499 4.409)" fill="none" stroke="#837af5" stroke-linecap="round" stroke-miterlimit="10" stroke-width="1.6"/>
        <path id="Path_9831" data-name="Path 9831" d="M1460.45,702.4a3.289,3.289,0,1,1-6.578,0Z" transform="translate(-1453.873 -695.068)" fill="none" stroke="#837af5" stroke-linecap="round" stroke-linejoin="round" stroke-miterlimit="10" stroke-width="1.6"/>
        <path id="Path_9833" data-name="Path 9833" d="M1473.08,702.4a3.289,3.289,0,1,0,6.578,0Z" transform="translate(-1458.658 -695.068)" fill="none" stroke="#837af5" stroke-linecap="round" stroke-linejoin="round" stroke-miterlimit="10" stroke-width="1.6"/>
        <path id="Path_9836" data-name="Path 9836" d="M1458.26,698.856v-3.434a13.821,13.821,0,0,1,14.423,0v3.434" transform="translate(-1454.972 -693.391)" fill="none" stroke="#837af5" stroke-linecap="round" stroke-linejoin="round" stroke-miterlimit="10" stroke-width="1.6"/>
      </g>
    </g>
  </g>
</svg>
