<svg xmlns="http://www.w3.org/2000/svg" class="block-icon" width="40" height="34.943" viewBox="0 0 40 34.943">
  <g id="Checkout_Coupon_Form" data-name="Checkout Coupon Form" transform="translate(0.199 -2.885)">
    <g id="Group_72101" data-name="Group 72101">
      <path id="Path_11584" data-name="Path 11584" d="M4,0H34a3.794,3.794,0,0,1,4,3.548V29.381a3.794,3.794,0,0,1-4,3.548H4a3.794,3.794,0,0,1-4-3.548V3.548A3.794,3.794,0,0,1,4,0Z" transform="translate(0.801 3.892)" fill="none" stroke="#b3b7c0" stroke-width="2"/>
      <g id="Mask_Group_6" data-name="Mask Group 6" transform="translate(11.432 9.647)">
        <g id="cart" transform="translate(0.001 0.001)">
          <g id="Group_72104" data-name="Group 72104">
            <g id="Group_72028" data-name="Group 72028">
              <path id="Path_10138" data-name="Path 10138" d="M783.321,871.892a.57.57,0,0,1-.57-.57V867.7a3.056,3.056,0,1,0-6.112,0v3.626a.57.57,0,1,1-1.14,0V867.7a4.2,4.2,0,0,1,8.391,0v3.626a.57.57,0,0,1-.569.566Z" transform="translate(-771.018 -863.501)" fill="#837af5"/>
              <path id="Path_10139" data-name="Path 10139" d="M786.431,885.384h-14.4a1.476,1.476,0,0,1-1.474-1.559l.806-13.934a1.476,1.476,0,0,1,1.474-1.393h12.789a1.475,1.475,0,0,1,1.474,1.394l.806,13.931a1.476,1.476,0,0,1-1.474,1.56Zm-13.594-15.748a.338.338,0,0,0-.338.317l-.806,13.935a.338.338,0,0,0,.338.355h14.4a.338.338,0,0,0,.334-.358l-.806-13.931a.338.338,0,0,0-.334-.316Z" transform="translate(-770.554 -863.967)" fill="#837af5"/>
            </g>
          </g>
        </g>
        <g id="Group_74453" data-name="Group 74453" transform="translate(-5.568 2.807)">
          <path id="Path_11581" data-name="Path 11581" d="M15.144,17.621a.464.464,0,0,0,.673,0l4.8-4.8a.476.476,0,0,0-.673-.673l-4.8,4.8a.464.464,0,0,0,0,.673Z" transform="translate(-3.637 -3.637)" fill="#837af5" stroke="#837af5" stroke-width="0.2"/>
          <path id="Path_11582" data-name="Path 11582" d="M14.477,13.4h.192a1.812,1.812,0,0,0,1.009-.336,1.691,1.691,0,0,0,.288-2.354,1.544,1.544,0,0,0-1.1-.625,1.677,1.677,0,0,0-1.537,2.69,1.553,1.553,0,0,0,1.148.625Zm-.528-1.778a.528.528,0,0,1,.288-.48A.775.775,0,0,1,14.669,11h.1a.528.528,0,0,1,.48.288.688.688,0,0,1,.144.528.528.528,0,0,1-.288.48,1.1,1.1,0,0,1-.528.144.528.528,0,0,1-.48-.288.968.968,0,0,1-.149-.527Z" transform="translate(-2.585 -2.637)" fill="#837af5" stroke="#837af5" stroke-width="0.2"/>
          <path id="Path_11583" data-name="Path 11583" d="M22.66,19.324a2.044,2.044,0,0,0-.673,1.1,1.716,1.716,0,0,0,.336,1.249,2.044,2.044,0,0,0,1.1.673h.24a1.508,1.508,0,0,0,1.009-.336,2.044,2.044,0,0,0,.673-1.1,1.716,1.716,0,0,0-.336-1.249,2.044,2.044,0,0,0-1.1-.673,1.661,1.661,0,0,0-1.249.336Zm1.585.913a.968.968,0,0,1,.144.528,1,1,0,0,1-.288.48.968.968,0,0,1-.528.144,1,1,0,0,1-.48-.288.968.968,0,0,1-.144-.528,1,1,0,0,1,.288-.48.775.775,0,0,1,.432-.144h.1a.817.817,0,0,1,.48.288Z" transform="translate(-7.261 -7.261)" fill="#837af5" stroke="#837af5" stroke-width="0.2"/>
        </g>
      </g>
    </g>
  </g>
</svg>
