<svg xmlns="http://www.w3.org/2000/svg" class="block-icon" width="37.957" height="35.969" viewBox="0 0 37.957 35.969">
  <g id="Cross_sell" data-name="Cross sell" transform="translate(0.003 -0.006)">
    <g id="Group_72093" data-name="Group 72093">
      <g id="Group_71993" data-name="Group 71993" transform="translate(0.481 35.208) rotate(-90)">
        <path id="Path_10112" data-name="Path 10112" d="M7.629,5.655A.892.892,0,0,0,6.372,5.6l-1.4,1.267C4.7,3.33,3.444,1.292,1.906,0c-.277.122-.55.235-.809.344C.722.5.354.648,0,.812,1.6,1.82,2.879,3.444,3.177,6.78L1.926,5.661A.891.891,0,1,0,.737,6.985L3.542,9.5c.014.012.029.021.042.032a.689.689,0,0,0,.066.048.737.737,0,0,0,.078.044c.022.012.046.023.069.034a.811.811,0,0,0,.091.03.673.673,0,0,0,.069.019.911.911,0,0,0,.115.014.136.136,0,0,1,.044.005h.025A.842.842,0,0,0,4.305,9.7a.258.258,0,0,0,.066-.018.935.935,0,0,0,.1-.029.711.711,0,0,0,.068-.034c.022-.012.055-.027.081-.042s.043-.033.066-.049a.557.557,0,0,0,.056-.041L7.569,6.914a.892.892,0,0,0,.06-1.261Z" transform="translate(9.361 6.511)" fill="#837af5"/>
        <path id="Path_10113" data-name="Path 10113" d="M5.312,4.346C2.994,3.467,1.783,2.913,1.783.864A.892.892,0,0,0,0,.864c0,2.794,1.7,3.919,3.53,4.7a10.284,10.284,0,0,1,1.833-1.2Z" transform="translate(1.883 0.025)" fill="#837af5"/>
        <path id="Path_10114" data-name="Path 10114" d="M13.546,0a.891.891,0,0,0-.889.891c0,2.067-1.044,2.591-3.217,3.487-.344.14-.7.288-1.063.453a11.162,11.162,0,0,0-2,1.134c-1.722,1.251-3.21,3.335-3.5,7.4L1.484,12.1a.871.871,0,0,0-.14-.1c-.016-.009-.034-.016-.051-.026a.955.955,0,0,0-.1-.047c-.022-.008-.044-.012-.067-.019a.939.939,0,0,0-.1-.023.307.307,0,0,1-.073-.006.809.809,0,0,0-.091,0,.517.517,0,0,0-.1.009.3.3,0,0,0-.073.011.9.9,0,0,0-.1.033c-.022.008-.046.014-.068.023a.847.847,0,0,0-.1.058.622.622,0,0,0-.055.033.947.947,0,0,0-.139.123.891.891,0,0,0,.053,1.26L3.126,16c.018.015.037.028.056.041s.042.034.066.049a.861.861,0,0,0,.081.042l.068.034a.936.936,0,0,0,.1.029.643.643,0,0,0,.066.018.926.926,0,0,0,.164.016h.018a.136.136,0,0,0,.044,0A.908.908,0,0,0,3.9,16.21a.247.247,0,0,0,.069-.019c.022-.007.062-.019.091-.03a.648.648,0,0,0,.069-.034.832.832,0,0,0,.078-.044.711.711,0,0,0,.066-.048c.014-.011.029-.02.042-.032l2.8-2.507a.885.885,0,0,0-.069-1.384A.531.531,0,0,0,7,12.08a.885.885,0,0,0-.109-.059c-.022-.009-.044-.015-.066-.023a.885.885,0,0,0-.1-.034.651.651,0,0,0-.073-.011.813.813,0,0,0-.1-.009.823.823,0,0,0-.091,0,.674.674,0,0,0-.071.006.963.963,0,0,0-.1.022.538.538,0,0,0-.064.018.96.96,0,0,0-.1.047l-.049.023a.847.847,0,0,0-.142.1L4.667,13.3C4.98,9.313,6.561,7.771,8.408,6.8a18.014,18.014,0,0,1,1.71-.771l.32-.133c1.939-.809,4-1.825,4-5a.893.893,0,0,0-.892-.9Z" fill="#837af5"/>
      </g>
      <path id="Path_10115" data-name="Path 10115" d="M424.635,810.786c0,.655.878,1.335,2.3,1.9a20.965,20.965,0,0,0,13.379,0c1.418-.567,2.3-1.247,2.3-1.9s-.878-1.332-2.3-1.9a18.713,18.713,0,0,0-6.69-1.1,20.327,20.327,0,0,0-5.636.735l-.142.042c-.324.1-.627.206-.914.319-1.42.569-2.3,1.249-2.3,1.9Zm1.558,3.753a9.382,9.382,0,0,1-1.559-.787v1.025a1,1,0,1,1-1.99,0v-3.991c0-1.55,1.358-2.872,3.554-3.751l.441-.167v-1.106a9.62,9.62,0,0,1-1.558.787,22.82,22.82,0,0,1-14.864,0,9.26,9.26,0,0,1-1.559-.787v8.783a1,1,0,1,1-1.99,0V802.8c0-1.55,1.358-2.872,3.551-3.751a22.829,22.829,0,0,1,14.867,0c2.194.878,3.554,2.2,3.554,3.751v3.5a23.693,23.693,0,0,1,4.994-.511,20.673,20.673,0,0,1,7.431,1.244c2.2.878,3.555,2.2,3.555,3.751v17.989c0,1.554-1.36,2.874-3.555,3.751a20.674,20.674,0,0,1-7.431,1.247,25.341,25.341,0,0,1-2.995-.172,20.351,20.351,0,0,1-2.764-.523,1,1,0,1,1,.506-1.927,18.392,18.392,0,0,0,2.491.468,23.727,23.727,0,0,0,2.761.159,18.674,18.674,0,0,0,6.69-1.1c1.418-.567,2.3-1.247,2.3-1.9v-3.03a9.3,9.3,0,0,1-1.558.787,20.671,20.671,0,0,1-7.431,1.247c-.725,0-1.435-.033-2.128-.086s-1.378-.147-2.032-.258a1,1,0,1,1,.333-1.968c.585.1,1.21.182,1.864.235.629.052,1.286.08,1.962.08a18.676,18.676,0,0,0,6.69-1.1c1.418-.567,2.3-1.247,2.3-1.9v-3.03a9.432,9.432,0,0,1-1.558.787,20.674,20.674,0,0,1-7.431,1.244,25.265,25.265,0,0,1-2.783-.153,20.678,20.678,0,0,1-2.593-.449.995.995,0,1,1,.462-1.935,18.874,18.874,0,0,0,2.351.4,23.529,23.529,0,0,0,2.563.136,18.669,18.669,0,0,0,6.69-1.1c1.418-.568,2.3-1.247,2.3-1.9v-3.03a9.468,9.468,0,0,1-1.558.787,22.819,22.819,0,0,1-14.864,0Zm.441-11.747c0-.654-.878-1.332-2.3-1.9a20.965,20.965,0,0,0-13.379,0c-1.42.567-2.3,1.247-2.3,1.9s.878,1.334,2.3,1.9a20.953,20.953,0,0,0,13.379,0C425.752,804.124,426.634,803.445,426.634,802.792Z" transform="translate(-406.666 -797.799)" fill="#b3b7c0" fill-rule="evenodd"/>
      <path id="Path_10116" data-name="Path 10116" d="M0,7.445v-2.5A7.77,7.77,0,0,0,1.279,5.6,17.041,17.041,0,0,0,7.41,6.62,20.716,20.716,0,0,0,9.7,6.493a17.015,17.015,0,0,0,2.144-.371.822.822,0,1,0-.38-1.6,15.524,15.524,0,0,1-1.939.332,19.427,19.427,0,0,1-2.113.112,15.4,15.4,0,0,1-5.515-.9C.724,3.6,0,3.039,0,2.5V0" transform="translate(1.419 9.039) rotate(6.03)" fill="#b3b7c0" fill-rule="evenodd"/>
    </g>
  </g>
</svg>
