<svg xmlns="http://www.w3.org/2000/svg" class="block-icon" width="35" height="33.805" viewBox="0 0 35 33.805">
  <g id="Product_Flash_Sale_Countdown" data-name="Product Flash Sale Countdown" transform="translate(0.001 0.001)">
    <g id="Group_72091" data-name="Group 72091">
      <g id="Group_71994" data-name="Group 71994">
        <g id="Group_71987" data-name="Group 71987">
          <path id="Path_10066" data-name="Path 10066" d="M1334.2,1313.87h-11.472a2.675,2.675,0,0,1-2.527-2.769V1293.09a6.773,6.773,0,0,1,1.756-5.054,5.633,5.633,0,0,1,4.141-1.847h20.063a5.635,5.635,0,0,1,4.144,1.848,6.768,6.768,0,0,1,1.754,5.054v3.485a.9.9,0,0,1-1.808,0V1293a4.964,4.964,0,0,0-1.271-3.732,3.849,3.849,0,0,0-2.824-1.274h-20.063a3.847,3.847,0,0,0-2.822,1.273A4.964,4.964,0,0,0,1322,1293v18.166a.866.866,0,0,0,.8.9h11.391a.9.9,0,1,1,0,1.808Z" transform="translate(-1320.185 -1282.544)" fill="#b3b7c0"/>
          <path id="Path_10068" data-name="Path 10068" d="M1342.35,1291h-11.091a2.755,2.755,0,0,1-2.751-2.751V1286.4a.9.9,0,1,1,1.808,0v1.849a.947.947,0,0,0,.947.947h11.091a.947.947,0,0,0,.947-.947V1286.4a.9.9,0,1,1,1.808,0v1.849a2.755,2.755,0,0,1-2.751,2.755Z" transform="translate(-1320.85 -1274.809)" fill="#b3b7c0"/>
          <path id="Path_10120" data-name="Path 10120" d="M-296.853,293.439a.9.9,0,0,1-.4-.086.9.9,0,0,1-.457-.517.9.9,0,0,1,.043-.689,25.929,25.929,0,0,1,2.076-3.43c1.763-2.437,3.465-3.666,5.054-3.667.85,0,2.228-.016,3.824-.034,4.264-.047,10.1-.112,12.377.035,1.55.1,3.25,1.321,5.036,3.628a26.29,26.29,0,0,1,2.145,3.256.9.9,0,0,1,.073.686.9.9,0,0,1-.434.537.9.9,0,0,1-.686.073.9.9,0,0,1-.537-.434,24.888,24.888,0,0,0-2-3.025c-1.413-1.817-2.732-2.852-3.712-2.916-2.206-.143-8.008-.078-12.241-.032-1.6.018-2.984.034-3.844.034-.955,0-2.232,1.038-3.6,2.921a24.4,24.4,0,0,0-1.918,3.159.9.9,0,0,1-.812.5Z" transform="translate(298.302 -284.961)" fill="#b3b7c0"/>
        </g>
      </g>
    </g>
    <g id="Group_1" data-name="Group 1" transform="translate(0.073 0.338)">
      <g id="Group_6" data-name="Group 6" transform="translate(18.312 18.316)">
        <g id="Group_5" data-name="Group 5">
          <g id="Group_4" data-name="Group 4">
            <path id="Union_1" data-name="Union 1" d="M-1793-440v-.774h1.548V-440a6.451,6.451,0,0,0,6.452,6.451,6.451,6.451,0,0,0,6.452-6.454,6.452,6.452,0,0,0-6.451-6.449h-.775V-448h.774a8,8,0,0,1,8,8,8,8,0,0,1-8,8A8,8,0,0,1-1793-440Zm7.484,1.29a.774.774,0,0,1-.774-.774v-4.387h1.548v3.613h2.839v1.548Zm-6.065-4.232a.774.774,0,0,1-.283-1.057.774.774,0,0,1,1.058-.283.774.774,0,0,1,.283,1.057.773.773,0,0,1-.671.387.77.77,0,0,1-.386-.1Zm2.3-2.866a.774.774,0,0,1-.078-.588.774.774,0,0,1,.361-.47.774.774,0,0,1,1.057.283.772.772,0,0,1,.078.587.771.771,0,0,1-.361.47.77.77,0,0,1-.386.1.774.774,0,0,1-.67-.381Z" transform="translate(1793.613 447.15)" fill="#837af5"/>
          </g>
        </g>
      </g>
    </g>
  </g>
</svg>
