<svg id="Form_Billing" data-name="Form Billing" class="block-icon" xmlns="http://www.w3.org/2000/svg" width="37.177" height="34.382" viewBox="0 0 37.177 34.382">
  <g id="Group_72105" data-name="Group 72105">
    <g id="Group_72029" data-name="Group 72029">
      <g id="Group_51" data-name="Group 51">
        <path id="Path_78" data-name="Path 78" d="M34.23,26.208H31.936c-.3-12.516.251-17.942,0-21.77A3.444,3.444,0,0,0,28.5,1H5.586A4.586,4.586,0,0,0,1,5.586v8.021a1.146,1.146,0,0,0,1.145,1.145H7.878v14.9a5.736,5.736,0,0,0,5.73,5.73,5.67,5.67,0,0,0,.794-.055,1.153,1.153,0,0,0,.352.055H29.645a5.736,5.736,0,0,0,5.73-5.73v-2.3A1.146,1.146,0,0,0,34.23,26.2ZM3.293,5.586a2.293,2.293,0,1,1,4.586,0v6.878H3.293ZM17.042,27.354v2.293a3.439,3.439,0,0,1-6.878,0V5.586A4.536,4.536,0,0,0,9.53,3.293H28.5a1.147,1.147,0,0,1,1.145,1.145c.152,3.829-.032,17.073,0,21.77H18.188a1.146,1.146,0,0,0-1.146,1.144Zm16.042,2.293a3.444,3.444,0,0,1-3.437,3.437H18.182a5.706,5.706,0,0,0,1.149-3.437V28.5H33.083Z" transform="translate(-1 -1)" fill="#b3b7c0"/>
        <path id="Path_80" data-name="Path 80" d="M11.975,12.755h3.9a.883.883,0,1,0,0-1.756h-3.9a.883.883,0,1,0,0,1.756Z" transform="translate(0.763 0.754)" fill="#b3b7c0"/>
        <path id="Path_81" data-name="Path 81" d="M11.919,16.756H17.4A.878.878,0,0,0,17.4,15H11.919a.878.878,0,1,0,0,1.756Z" transform="translate(0.761 0.432)" fill="#b3b7c0"/>
      </g>
    </g>
    <g id="Group_65425" data-name="Group 65425" transform="translate(22.701 6.829)">
      <circle id="Ellipse_467" data-name="Ellipse 467" cx="6.399" cy="6.399" r="6.399" transform="translate(0.917 0.917)" fill="#fff"/>
      <g id="Group_65425-2" data-name="Group 65425" transform="translate(-1 -0.854)">
        <g id="Group_65401" data-name="Group 65401" transform="translate(5.817 3.711)">
          <path id="Path_10019" data-name="Path 10019" d="M1506.42,1088.27a2.129,2.129,0,0,1-2.128-2.129.6.6,0,0,1,.595-.595h0a.6.6,0,0,1,.595.595.94.94,0,0,0,1.879,0c0-.318-.083-.632-1.124-.969a3.646,3.646,0,0,1-1.275-.668,1.857,1.857,0,0,1-.669-1.437,2.13,2.13,0,0,1,4.26,0,.595.595,0,1,1-1.189,0,.94.94,0,1,0-1.88,0c0,.179,0,.6,1.124.969a3.575,3.575,0,0,1,1.317.682,1.827,1.827,0,0,1,.627,1.42,2.132,2.132,0,0,1-2.129,2.128Z" transform="translate(-1504.287 -1080.079)" fill="#837af5"/>
          <path id="Line_919" data-name="Line 919" d="M-.405,1.055A.6.6,0,0,1-1,.46V-.406A.6.6,0,0,1-.4-1a.6.6,0,0,1,.59.6V.46A.6.6,0,0,1,.016.878.6.6,0,0,1-.4,1.052Z" transform="translate(2.54 1)" fill="#837af5"/>
          <path id="Line_920" data-name="Line 920" d="M-.405,1.055A.6.6,0,0,1-1,.46V-.406A.6.6,0,0,1-.4-1a.6.6,0,0,1,.59.6V.46A.6.6,0,0,1,.016.878.6.6,0,0,1-.4,1.052Z" transform="translate(2.54 7.993)" fill="#837af5"/>
        </g>
      </g>
      <g id="Ellipse_1" data-name="Ellipse 1" transform="translate(-0.524 -0.184)" fill="none" stroke="#837af5" stroke-width="1.4">
        <circle cx="7.5" cy="7.5" r="7.5" stroke="none"/>
        <circle cx="7.5" cy="7.5" r="6.8" fill="none"/>
      </g>
    </g>
  </g>
</svg>
