<svg xmlns="http://www.w3.org/2000/svg" class="block-icon" width="39.303" height="34.78" viewBox="0 0 39.303 34.78">
  <g id="Mask_Group_4" data-name="Mask Group 4" transform="translate(1.734 -0.238)">
    <g id="Group_72166" data-name="Group 72166">
      <path id="Fill_8" data-name="Fill 8" d="M7.378,14.756H7.334a7.258,7.258,0,1,1,.044,0Zm0-12.334a4.957,4.957,0,1,0-.04,9.913l.04,1.211V12.335a4.956,4.956,0,0,0,0-9.913Z" transform="translate(5.01 -0.002)" fill="#b3b7c0"/>
      <path id="Path_10132" data-name="Path 10132" d="M390.711,1256.96H377.925l1.875-5.623a2.426,2.426,0,0,1,2.3-1.66h10.148" transform="translate(-377.925 -1231.78)" fill="none" stroke="#b3b7c0" stroke-width="2.5"/>
      <path id="Path_10207" data-name="Path 10207" d="M401.916,1968.88c-.081,0-.075.494-.138.443l-.01-.008c-.344-.276-8.292-6.689-9.482-10.486a6.442,6.442,0,0,1,.464-5.4,4.593,4.593,0,0,1,3.49-2.231,6.44,6.44,0,0,1,5.76,2.551,6.447,6.447,0,0,1,5.76-2.552,4.591,4.591,0,0,1,3.49,2.231,6.449,6.449,0,0,1,.459,5.425c-1.187,3.782-9.148,10.2-9.486,10.476C402.159,1969.38,402,1968.88,401.916,1968.88Zm-4.958-17.018a5.167,5.167,0,0,0-.631.038,3.906,3.906,0,0,0-2.969,1.894,5.8,5.8,0,0,0-.4,4.8c1.026,3.272,7.729,8.91,9.041,9.988,1.313-1.081,8.016-6.716,9.037-9.972a5.807,5.807,0,0,0-.394-4.822,3.9,3.9,0,0,0-2.969-1.894c-3.393-.412-5.353,2.606-5.373,2.637a.356.356,0,0,1-.3.165h0a.353.353,0,0,1-.3-.164,6.159,6.159,0,0,0-4.743-2.674Z" transform="translate(-375.316 -1935.088)" fill="#837af5" stroke="#837af5" stroke-width="1.5"/>
    </g>
  </g>
</svg>
