<svg xmlns="http://www.w3.org/2000/svg" class="block-icon" width="28.076" height="28.074" viewBox="0 0 28.076 28.074">
  <g id="Group_72110" data-name="Group 72110" transform="translate(-6926.034 -158.416)">
    <g id="Edit_Square" data-name="Edit Square" transform="translate(6929.5 158.372)">
      <path id="Fill_1" data-name="Fill 1" d="M20.124,28.07H7.942C3.192,28.07,0,24.736,0,19.774V8.3C0,3.334,3.192,0,7.942,0H13.1a1.036,1.036,0,0,1,0,2.071H7.942C4.375,2.071,2.07,4.515,2.07,8.3V19.774C2.07,23.555,4.37,26,7.942,26H20.124C23.692,26,26,23.555,26,19.774V14.213a1.035,1.035,0,1,1,2.071,0v5.561c0,4.962-3.193,8.3-7.944,8.3" transform="translate(-3.466 0.044)" fill="#b3b7c0"/>
      <path id="Fill_3" data-name="Fill 3" d="M5.441,18.064H.909a.91.91,0,0,1-.65-.276A.9.9,0,0,1,0,17.133L.115,12.56a3.519,3.519,0,0,1,1.034-2.41l9.044-9.042a3.8,3.8,0,0,1,5.361,0L17.027,2.58a3.791,3.791,0,0,1,0,5.363L7.939,17.03A3.51,3.51,0,0,1,5.441,18.064ZM12.873,1.815a1.969,1.969,0,0,0-1.4.577L2.431,11.434a1.712,1.712,0,0,0-.5,1.171l-.09,3.644h3.6a1.7,1.7,0,0,0,1.215-.5l9.087-9.087a1.977,1.977,0,0,0,0-2.8l-1.472-1.47a1.966,1.966,0,0,0-1.4-.577Z" transform="translate(6.472 0.044)" fill="#837af5"/>
      <path id="Fill_5" data-name="Fill 5" d="M6.432,7.341a.9.9,0,0,1-.641-.266L.266,1.55A.908.908,0,1,1,1.549.266L7.074,5.792a.908.908,0,0,1-.641,1.549" transform="translate(15.023 2.282)" fill="#837af5"/>
    </g>
  </g>
</svg>
