<svg id="Download" class="block-icon" xmlns="http://www.w3.org/2000/svg" width="29.5" height="29.251" viewBox="0 0 29.5 29.251">
  <path id="Fill_1" data-name="Fill 1" d="M1.106,19.972A1.107,1.107,0,0,1,0,18.866V1.106a1.106,1.106,0,0,1,2.212,0v17.76a1.107,1.107,0,0,1-1.106,1.106" transform="translate(13.644)" fill="#837af5"/>
  <path id="Fill_3" data-name="Fill 3" d="M5.406,6.531A1.1,1.1,0,0,1,4.623,6.2L.322,1.888A1.106,1.106,0,1,1,1.888.326L5.406,3.858,8.924.326A1.106,1.106,0,1,1,10.49,1.888L6.189,6.2a1.1,1.1,0,0,1-.783.326" transform="translate(9.344 13.441)" fill="#837af5"/>
  <path id="Fill_5" data-name="Fill 5" d="M22.972,22.271H6.541A6.549,6.549,0,0,1,0,15.73V6.53A6.533,6.533,0,0,1,6.528,0H7.916a1.106,1.106,0,0,1,0,2.212H6.528A4.318,4.318,0,0,0,2.212,6.525v9.2a4.333,4.333,0,0,0,4.329,4.329H22.972a4.321,4.321,0,0,0,4.314-4.314V6.54a4.333,4.333,0,0,0-4.327-4.329H21.584a1.106,1.106,0,0,1,0-2.212h1.375A6.548,6.548,0,0,1,29.5,6.541v9.2a6.535,6.535,0,0,1-6.527,6.527" transform="translate(0 6.98)" fill="#b3b7c0"/>
</svg>
