<svg xmlns="http://www.w3.org/2000/svg" class="block-icon" width="40.27" height="35.373" viewBox="0 0 40.27 35.373">
  <g id="My_Account_Orders" data-name="My Account Orders" transform="translate(-829.052 -246.332)">
    <g id="Group_64892" data-name="Group 64892" transform="translate(-391.159 -1021.499)">
      <g id="Group_64886" data-name="Group 64886" transform="translate(1221.21 1268.835)">
        <path id="Path_9583" data-name="Path 9583" d="M1242.33,1300.18h-19.05a2.069,2.069,0,0,1-2.069-2.069V1270.9a2.069,2.069,0,0,1,2.069-2.069h33.551a2.069,2.069,0,0,1,2.069,2.069v15.2" transform="translate(-1221.21 -1268.835)" fill="none" stroke="#b3b7c0" stroke-linecap="round" stroke-linejoin="round" stroke-width="2"/>
        <path id="Path_9607" data-name="Path 9607" d="M5,0h6.765" transform="translate(15.609 10.012)" fill="none" stroke="#b3b7c0" stroke-linecap="round" stroke-width="2"/>
        <line id="Line_749" data-name="Line 749" x2="11.596" transform="translate(20.777 14.844)" fill="none" stroke="#b3b7c0" stroke-linecap="round" stroke-linejoin="round" stroke-width="2"/>
      </g>
      <g id="Group_64891" data-name="Group 64891" transform="translate(1227.36 1278.3)">
        <g id="Group_64890" data-name="Group 64890">
          <g id="Group_64889" data-name="Group 64889">
            <g id="Group_64888" data-name="Group 64888">
              <g id="Group_64887" data-name="Group 64887" transform="translate(0 6.238)">
                <path id="Path_9588" data-name="Path 9588" d="M1235.99,1281.96l2.147,1.836a2.778,2.778,0,0,1,.971,2.111v1.243h-9.619" transform="translate(-1229.185 -1281.963)" fill="none" stroke="#b3b7c0" stroke-linecap="round" stroke-linejoin="round" stroke-width="1.8"/>
                <path id="Path_9589" data-name="Path 9589" d="M1233.63,1281.96l-2.186,1.835a2.781,2.781,0,0,0-.993,2.128v1.227" transform="translate(-1230.45 -1281.963)" fill="none" stroke="#b3b7c0" stroke-linecap="round" stroke-linejoin="round" stroke-width="1.8"/>
              </g>
              <ellipse id="Ellipse_354" data-name="Ellipse 354" cx="2.931" cy="3.494" rx="2.931" ry="3.494" transform="translate(2.062 0)" fill="none" stroke="#b3b7c0" stroke-linecap="round" stroke-linejoin="round" stroke-width="1.8"/>
            </g>
          </g>
        </g>
        <path id="Path_9591" data-name="Path 9591" d="M1234.68,1282.6" transform="translate(-1221.957 -1275.61)" fill="none" stroke="#b3b7c0" stroke-linecap="round" stroke-linejoin="round" stroke-width="1.8"/>
      </g>
      <g id="Group_74456" data-name="Group 74456" transform="translate(1222.988 1276.834)">
        <g id="Group_72031" data-name="Group 72031" transform="translate(22.897 13.249)">
          <path id="Path_10154" data-name="Path 10154" d="M-354.409,864a.815.815,0,0,1,.811.811.815.815,0,0,1-.811.811h-.293a.815.815,0,0,0-.8.652l-1.1,5.5a2.433,2.433,0,0,1-2.386,1.956H-364.5a2.434,2.434,0,0,1-2.361-1.844l-1.315-5.261a.816.816,0,0,1,.148-.7.815.815,0,0,1,.64-.312h6.63a.815.815,0,0,1,.811.811.815.815,0,0,1-.811.811h-5.59l1.063,4.252a.815.815,0,0,0,.787.614h5.511a.815.815,0,0,0,.8-.652l1.1-5.5A2.433,2.433,0,0,1-354.7,864Z" transform="translate(368.194 -864)" fill="#837af5" fill-rule="evenodd"/>
        </g>
        <path id="Ellipse_618" data-name="Ellipse 618" d="M.8-.5A1.3,1.3,0,1,1-.5.8,1.3,1.3,0,0,1,.8-.5Zm0,1.856A.558.558,0,1,0,.241.8.558.558,0,0,0,.8,1.356Z" transform="translate(25.995 24.27)" fill="#837af5"/>
        <path id="Ellipse_619" data-name="Ellipse 619" d="M.8-.5A1.3,1.3,0,1,1-.5.8,1.3,1.3,0,0,1,.8-.5Zm0,1.856A.558.558,0,1,0,.241.8.558.558,0,0,0,.8,1.356Z" transform="translate(31.515 24.27)" fill="#837af5"/>
      </g>
    </g>
  </g>
</svg>
