<svg xmlns="http://www.w3.org/2000/svg" class="block-icon" width="37.644" height="26.523" viewBox="0 0 37.644 26.523">
  <g id="Payment_Method" data-name="Payment Method" transform="translate(0.151 0.153)">
    <g id="Group_72107" data-name="Group 72107">
      <path id="Line_101" data-name="Line 101" d="M22.71.482H-.259A.741.741,0,0,1-1-.259.741.741,0,0,1-.259-1H22.71a.741.741,0,0,1,.741.741A.741.741,0,0,1,22.71.482Z" transform="translate(1.56 5.815)" fill="#b3b7c0" stroke="#b3b7c0" stroke-width="0.3"/>
      <path id="Line_103" data-name="Line 103" d="M14,.482H-.259A.741.741,0,0,1-1-.259.741.741,0,0,1-.259-1H14a.741.741,0,0,1,.741.741A.741.741,0,0,1,14,.482Z" transform="translate(15.449 8.779)" fill="#b3b7c0" stroke="#b3b7c0" stroke-width="0.3"/>
      <path id="Line_102" data-name="Line 102" d="M5.772.482H-.255A.741.741,0,0,1-.781.266.741.741,0,0,1-1-.259.741.741,0,0,1-.259-1H5.769a.741.741,0,0,1,.741.741.741.741,0,0,1-.738.741Z" transform="translate(5.446 15.081)" fill="#837af5" stroke="#837af5" stroke-width="0.3"/>
      <g id="Group_74455" data-name="Group 74455">
        <g id="Group_72031" data-name="Group 72031" transform="translate(22.897 13.249)">
          <path id="Path_10154" data-name="Path 10154" d="M-354.409,864a.815.815,0,0,1,.811.811.815.815,0,0,1-.811.811h-.293a.815.815,0,0,0-.8.652l-1.1,5.5a2.433,2.433,0,0,1-2.386,1.956H-364.5a2.434,2.434,0,0,1-2.361-1.844l-1.315-5.261a.816.816,0,0,1,.148-.7.815.815,0,0,1,.64-.312h6.63a.815.815,0,0,1,.811.811.815.815,0,0,1-.811.811h-5.59l1.063,4.252a.815.815,0,0,0,.787.614h5.511a.815.815,0,0,0,.8-.652l1.1-5.5A2.433,2.433,0,0,1-354.7,864Z" transform="translate(368.194 -864)" fill="#837af5" fill-rule="evenodd"/>
        </g>
        <path id="Ellipse_618" data-name="Ellipse 618" d="M.8-.5A1.3,1.3,0,1,1-.5.8,1.3,1.3,0,0,1,.8-.5Zm0,1.856A.558.558,0,1,0,.241.8.558.558,0,0,0,.8,1.356Z" transform="translate(25.995 24.27)" fill="#837af5"/>
        <path id="Ellipse_619" data-name="Ellipse 619" d="M.8-.5A1.3,1.3,0,1,1-.5.8,1.3,1.3,0,0,1,.8-.5Zm0,1.856A.558.558,0,1,0,.241.8.558.558,0,0,0,.8,1.356Z" transform="translate(31.515 24.27)" fill="#837af5"/>
      </g>
      <g id="Rectangle_388" data-name="Rectangle 388">
        <path id="Path_10155" data-name="Path 10155" d="M-60.189,1168.87h-16a4.908,4.908,0,0,1-4.85-4.943v-11.909a4.908,4.908,0,0,1,4.85-4.943h21.234a4.908,4.908,0,0,1,4.85,4.943v7.434a.74.74,0,0,1-.217.524.741.741,0,0,1-.524.217.741.741,0,0,1-.741-.74v-7.434a3.42,3.42,0,0,0-3.368-3.462H-76.188a3.42,3.42,0,0,0-3.368,3.461v11.909a3.42,3.42,0,0,0,3.369,3.461h16a.741.741,0,0,1,.524.217.741.741,0,0,1,.217.524.741.741,0,0,1-.217.524.741.741,0,0,1-.524.217Z" transform="translate(81.038 -1147.078)" fill="#b3b7c0" stroke="#b3b7c0" stroke-width="0.3"/>
      </g>
    </g>
  </g>
</svg>
