<svg xmlns="http://www.w3.org/2000/svg" class="block-icon" width="39.325" height="36.377" viewBox="0 0 39.325 36.377">
  <g id="Stocks" transform="translate(0)">
    <g id="Group_72015" data-name="Group 72015">
      <path id="Line_95" data-name="Line 95" d="M37.346.966H-.012A.983.983,0,0,1-.966-.017.983.983,0,0,1-.012-1H37.346a.983.983,0,0,1,.876.483.983.983,0,0,1,0,1,.983.983,0,0,1-.876.483Z" transform="translate(0.966 1.001)" fill="#b3b7c0"/>
      <path id="Rectangle_383" data-name="Rectangle 383" d="M-.017-1H33.409a.983.983,0,0,1,.981.983V24.561a1.966,1.966,0,0,1-1.966,1.966H.966A1.966,1.966,0,0,1-1,24.561V-.017A.983.983,0,0,1-.017-1ZM32.426.966H.966V24.559h31.46Z" transform="translate(2.937 1)" fill="#b3b7c0"/>
      <path id="Line_96" data-name="Line 96" d="M-.017,9.815a.983.983,0,0,1-.6-.208A.983.983,0,0,1-.792,8.229L6.09-.618A.983.983,0,0,1,7.468-.79.983.983,0,0,1,7.64.587L.757,9.435a.983.983,0,0,1-.775.38Z" transform="translate(10.802 26.562)" fill="#b3b7c0"/>
      <path id="Line_97" data-name="Line 97" d="M6.865,9.815a.983.983,0,0,1-.775-.38L-.793.586A.983.983,0,0,1-.621-.791.983.983,0,0,1,.757-.619L7.637,8.23a.983.983,0,0,1-.775,1.584Z" transform="translate(21.617 26.562)" fill="#b3b7c0"/>
    </g>
    <g id="Group_72016" data-name="Group 72016" transform="translate(6.312 3.688)">
      <path id="Rectangle_384" data-name="Rectangle 384" d="M-.013-.75H3.92a.737.737,0,0,1,.522.216.737.737,0,0,1,.216.521V8.835a.737.737,0,0,1-.737.737H-.013A.737.737,0,0,1-.75,8.835V-.013A.737.737,0,0,1-.013-.75ZM3.183.725H.725V8.1H3.183Z" transform="translate(7.653 10.581)" fill="#837af5"/>
      <path id="Rectangle_385" data-name="Rectangle 385" d="M-.013-.75H3.943a.737.737,0,0,1,.737.737V13.036a.737.737,0,0,1-.737.737H-.013a.737.737,0,0,1-.737-.737V-.013A.737.737,0,0,1-.013-.75ZM3.2.725H.725V12.3H3.2Z" transform="translate(0.75 6.381)" fill="#837af5"/>
      <path id="Rectangle_386" data-name="Rectangle 386" d="M-.013-.75H4.9a.737.737,0,0,1,.737.737v18.68A.737.737,0,0,1,4.9,19.4H-.013a.737.737,0,0,1-.737-.737V-.013A.737.737,0,0,1-.013-.75ZM4.166.725H.722v17.2H4.166Z" transform="translate(14.536 0.75)" fill="#837af5"/>
      <path id="Rectangle_387" data-name="Rectangle 387" d="M-.013-.75H3.92a.737.737,0,0,1,.522.216.737.737,0,0,1,.216.521V8.835a.737.737,0,0,1-.737.737H-.013A.737.737,0,0,1-.75,8.835V-.013A.737.737,0,0,1-.013-.75ZM3.183.725H.725V8.1H3.183Z" transform="translate(22.401 10.581)" fill="#837af5"/>
    </g>
  </g>
</svg>
