<svg xmlns="http://www.w3.org/2000/svg" class="block-icon" width="24.505" height="37.286" viewBox="0 0 24.505 37.286">
  <g id="Group_65195" data-name="Group 65195" transform="translate(-600.745 -455.364)">
    <g id="Group_71824" data-name="Group 71824" transform="translate(-2022.086 365.858)">
      <g id="Group_65103" data-name="Group 65103" transform="translate(2623.829 90.5)">
        <path id="Path_9580" data-name="Path 9580" d="M1614.75,1209.4v-8.322h8.4v8.322Z" transform="translate(-1614.748 -1201.072)" fill="none" stroke="#b3b7c0" stroke-linecap="round" stroke-linejoin="round" stroke-width="2"/>
      </g>
      <g id="Group_65117" data-name="Group 65117" transform="translate(2623.829 103.837)">
        <path id="Path_9580-2" data-name="Path 9580" d="M1614.75,1209.4v-8.322h8.4v8.322Z" transform="translate(-1614.748 -1201.072)" fill="none" stroke="#b3b7c0" stroke-linecap="round" stroke-linejoin="round" stroke-width="2"/>
      </g>
      <g id="Group_65104" data-name="Group 65104" transform="translate(2637.934 90.5)">
        <path id="Path_9580-3" data-name="Path 9580" d="M1614.75,1209.4v-8.322h8.4v8.322Z" transform="translate(-1614.748 -1201.072)" fill="none" stroke="#b3b7c0" stroke-linecap="round" stroke-linejoin="round" stroke-width="2"/>
      </g>
      <g id="Group_65118" data-name="Group 65118" transform="translate(2637.934 103.837)">
        <path id="Path_9580-4" data-name="Path 9580" d="M1614.75,1209.4v-8.322h8.4v8.322Z" transform="translate(-1614.748 -1201.072)" fill="none" stroke="#b3b7c0" stroke-linecap="round" stroke-linejoin="round" stroke-width="2"/>
      </g>
    </g>
    <g id="Group_65214" data-name="Group 65214" transform="translate(-445.226 5.858)">
      <path id="Path_9659" data-name="Path 9659" d="M-4898.43,2506.29l3.357,3.544-3.357,3.544" transform="translate(5960.072 -2028)" fill="none" stroke="#837af5" stroke-linecap="round" stroke-linejoin="round" stroke-width="2"/>
      <path id="Path_9660" data-name="Path 9660" d="M-4895.07,2506.29l-3.357,3.544,3.357,3.544" transform="translate(5950.428 -2028)" fill="none" stroke="#837af5" stroke-linecap="round" stroke-linejoin="round" stroke-width="2"/>
    </g>
  </g>
</svg>
