<svg xmlns="http://www.w3.org/2000/svg" class="block-icon" width="33.489" height="39.945" viewBox="0 0 33.489 39.945">
  <g id="Group_65456" data-name="Group 65456" transform="translate(-1777.503 -78.473)">
    <g id="Group_64940" data-name="Group 64940" transform="translate(1685.303 -693.102)">
      <path id="Path_9613" data-name="Path 9613" d="M104.167,772.575H92.7V810.52h24.77a2.064,2.064,0,0,0,2.063-2.063v-2.591h2.591a2.065,2.065,0,0,0,2.065-2.065V772.575H104.167" transform="translate(0.5)" fill="none" stroke="#b3b7c0" stroke-linecap="round" stroke-linejoin="round" stroke-width="2"/>
      <g id="Group_12" data-name="Group 12" transform="translate(0 -2)">
        <path id="Path_9581" data-name="Path 9581" d="M0,0H19.158" transform="translate(99.245 798.362)" fill="none" stroke="#837af5" stroke-linecap="round" stroke-width="2"/>
        <path id="Path_9651" data-name="Path 9651" d="M0,0H7.158" transform="translate(111.245 784.362)" fill="none" stroke="#837af5" stroke-linecap="round" stroke-width="2"/>
        <path id="Path_9649" data-name="Path 9649" d="M0,0H15.579" transform="translate(99.245 802.362)" fill="none" stroke="#837af5" stroke-linecap="round" stroke-width="2"/>
        <path id="Path_9650" data-name="Path 9650" d="M0,0H7.158" transform="translate(111.245 788.999)" fill="none" stroke="#837af5" stroke-linecap="round" stroke-width="2"/>
        <path id="Path_9658" data-name="Path 9658" d="M0,0H7.158" transform="translate(111.245 793.636)" fill="none" stroke="#837af5" stroke-linecap="round" stroke-width="2"/>
        <g id="Group_64939" data-name="Group 64939" transform="translate(-1596.524 473.602)">
          <path id="Path_9655" data-name="Path 9655" d="M1557.94,1430.84l-3.729-9.274-3.73,9.274" transform="translate(145.753 -1110.804)" fill="none" stroke="#837af5" stroke-linecap="round" stroke-linejoin="round" stroke-width="2"/>
          <line id="Line_780" data-name="Line 780" x2="4.775" transform="translate(1697.574 317.081)" fill="none" stroke="#837af5" stroke-linecap="round" stroke-linejoin="round" stroke-width="2"/>
        </g>
      </g>
    </g>
  </g>
</svg>
