<svg xmlns="http://www.w3.org/2000/svg" class="block-icon" width="38.279" height="39.083" viewBox="0 0 38.279 39.083">
  <g id="Group_65457" data-name="Group 65457" transform="translate(-1777.875 -253.566)">
    <g id="Group_64925" data-name="Group 64925" transform="translate(-265.862 -1234.461)">
      <g id="Group_64989" data-name="Group 64989" transform="translate(2052.053 1503.244)">
        <g id="Group_64923" data-name="Group 64923" transform="translate(0 3.635)">
          <g id="Group_64922" data-name="Group 64922">
            <path id="Path_9643" data-name="Path 9643" d="M2049.93,1506.56l5.367-5.125,4.048,3.866" transform="translate(-2049.93 -1498.709)" fill="none" stroke="#837af5" stroke-linecap="round" stroke-linejoin="round" stroke-width="1.8"/>
            <path id="Path_9644" data-name="Path 9644" d="M2056.06,1506.17l6.906-6.595,5.342,4.961" transform="translate(-2046.643 -1499.579)" fill="none" stroke="#837af5" stroke-linecap="round" stroke-linejoin="round" stroke-width="1.8"/>
            <line id="Line_773" data-name="Line 773" x2="4.078" y2="3.894" transform="translate(12.744 4.357)" fill="none" stroke="#837af5" stroke-linecap="round" stroke-linejoin="round" stroke-width="1.8"/>
          </g>
        </g>
        <rect id="Rectangle_73" data-name="Rectangle 73" width="21.642" height="15.5" fill="none" stroke="#837af5" stroke-linecap="round" stroke-linejoin="round" stroke-width="1.8"/>
      </g>
      <g id="Group_64924" data-name="Group 64924" transform="translate(2044.737 1489.024)">
        <path id="Path_9645" data-name="Path 9645" d="M2051.8,1526.11h27.782a1.435,1.435,0,0,0,1.434-1.435V1490.46a1.434,1.434,0,0,0-1.434-1.433H2046.17a1.433,1.433,0,0,0-1.433,1.433v34.215a1.434,1.434,0,0,0,1.433,1.435h13.421" transform="translate(-2044.737 -1489.024)" fill="none" stroke="#b3b7c0" stroke-linecap="round" stroke-linejoin="round" stroke-width="2"/>
        <path id="Path_9646" data-name="Path 9646" d="M2050.42,1492.86a1.426,1.426,0,1,0-1.426,1.426,1.426,1.426,0,0,0,1.426-1.426Z" transform="translate(-2044.324 -1488.811)" fill="#b3b7c0"/>
        <path id="Path_9647" data-name="Path 9647" d="M2053.04,1492.86a1.426,1.426,0,1,0-1.425,1.422A1.425,1.425,0,0,0,2053.04,1492.86Z" transform="translate(-2043.058 -1488.811)" fill="#b3b7c0"/>
        <path id="Path_9648" data-name="Path 9648" d="M2055.67,1492.86a1.424,1.424,0,1,0-.419,1.007,1.423,1.423,0,0,0,.419-1.007Z" transform="translate(-2041.792 -1488.811)" fill="#b3b7c0"/>
      </g>
      <line id="Line_774" data-name="Line 774" x2="30.64" transform="translate(2047.555 1496.787)" fill="none" stroke="#b3b7c0" stroke-linecap="round" stroke-linejoin="round" stroke-width="2"/>
      <line id="Line_776" data-name="Line 776" x2="33.932" transform="translate(2046.164 1496.787)" fill="none" stroke="#b3b7c0" stroke-linecap="round" stroke-linejoin="round" stroke-width="2"/>
    </g>
  </g>
</svg>
