<svg xmlns="http://www.w3.org/2000/svg" class="block-icon" width="39.019" height="32.467" viewBox="0 0 39.019 32.467">
  <g id="REview" transform="translate(0.004 0)">
    <g id="Group_72100" data-name="Group 72100">
      <g id="Group_72021" data-name="Group 72021">
        <path id="Path_10145" data-name="Path 10145" d="M555.77,865.5h22.45a4.274,4.274,0,0,1,4.269,4.269V884.2a4.274,4.274,0,0,1-4.269,4.269h-7.677l-8.413,6.01a2.66,2.66,0,0,1-4.212-2.17v-3.84h-2.145A4.274,4.274,0,0,1,551.5,884.2V869.769a4.274,4.274,0,0,1,4.268-4.269Zm22.451,20.846a2.148,2.148,0,0,0,2.145-2.145V869.769a2.148,2.148,0,0,0-2.145-2.145H555.77a2.148,2.148,0,0,0-2.145,2.145V884.2a2.148,2.148,0,0,0,2.145,2.144h3.207a1.063,1.063,0,0,1,1.063,1.063v4.9a.542.542,0,0,0,.547.543.528.528,0,0,0,.309-.106l8.69-6.208a1.062,1.062,0,0,1,.617-.2Z" transform="translate(-551.504 -865.5)" fill="#837af5"/>
        <path id="Path_10146" data-name="Path 10146" d="M574.172,896.157a2.656,2.656,0,0,1-1.661-.587l-5.121-4.1h-2.835a1.063,1.063,0,1,1,0-2.124h3.207a1.061,1.061,0,0,1,.664.232l5.417,4.329a.542.542,0,0,0,.881-.424V890.4a1.062,1.062,0,0,1,1.063-1.062h3.208a2.148,2.148,0,0,0,2.145-2.145v-16.04a.542.542,0,0,0-.542-.542H579a1.063,1.063,0,1,1,0-2.124h1.6a2.669,2.669,0,0,1,2.669,2.669V887.2A4.274,4.274,0,0,1,579,891.47h-2.15v2.018a2.681,2.681,0,0,1-2.675,2.669Z" transform="translate(-544.254 -863.69)" fill="#b3b7c0"/>
      </g>
    </g>
  </g>
</svg>
