<svg xmlns="http://www.w3.org/2000/svg" class="block-icon" width="36.974" height="39.596" viewBox="0 0 36.974 39.596">
  <g id="Related_Products" data-name="Related Products" transform="translate(0.005 0.001)">
    <g id="Group_72089" data-name="Group 72089">
      <path id="Line_61" data-name="Line 61" d="M21.388,1.093H.046A1.047,1.047,0,1,1,.046-1H21.388a1.047,1.047,0,0,1,0,2.093Z" transform="translate(7.77 4.639)" fill="#b3b7c0"/>
      <path id="Line_62" data-name="Line 62" d="M11.642,1.093H.046A1.047,1.047,0,1,1,.046-1h11.6a1.047,1.047,0,1,1,0,2.093Z" transform="translate(12.642 1)" fill="#b3b7c0"/>
      <g id="Group_71985" data-name="Group 71985" transform="translate(0 7.508)">
        <path id="Path_10066" data-name="Path 10066" d="M1331.13,1280.5h23.258a6.533,6.533,0,0,1,4.8,2.142,7.849,7.849,0,0,1,2.035,5.86v20.9a3.1,3.1,0,0,1-2.982,3.186h-30.968a3.1,3.1,0,0,1-2.983-3.186v-20.9a7.846,7.846,0,0,1,2.035-5.86,6.534,6.534,0,0,1,4.8-2.141Zm27.113,30.006a1.024,1.024,0,0,0,.889-1.1V1288.4a5.755,5.755,0,0,0-1.475-4.327,4.46,4.46,0,0,0-3.272-1.476h-23.257a4.462,4.462,0,0,0-3.272,1.475,5.755,5.755,0,0,0-1.474,4.328v21.01a1.023,1.023,0,0,0,.889,1.1Z" transform="translate(-1324.275 -1280.5)" fill="#b3b7c0"/>
        <path id="Path_10067" data-name="Path 10067" d="M1344.55,1291.88h-12.86a3.193,3.193,0,0,1-3.186-3.186v-2.148a1.047,1.047,0,0,1,2.093,0v2.143a1.1,1.1,0,0,0,1.1,1.1h12.86a1.1,1.1,0,0,0,1.1-1.1v-2.143a1.047,1.047,0,0,1,2.093,0v2.143a3.194,3.194,0,0,1-3.186,3.194Z" transform="translate(-1319.633 -1274.783)" fill="#837af5"/>
      </g>
    </g>
  </g>
</svg>
