<svg xmlns="http://www.w3.org/2000/svg" class="block-icon" width="34.556" height="36.267" viewBox="0 0 34.556 36.267">
  <g id="Product_Tags" data-name="Product Tags" transform="translate(0.001 0.001)">
    <g id="Group_72091" data-name="Group 72091">
      <g id="Group_71994" data-name="Group 71994">
        <g id="Group_71987" data-name="Group 71987">
          <path id="Path_10066" data-name="Path 10066" d="M1334.2,1313.87h-11.472a2.675,2.675,0,0,1-2.527-2.769V1293.09a6.773,6.773,0,0,1,1.756-5.054,5.633,5.633,0,0,1,4.141-1.847h20.063a5.635,5.635,0,0,1,4.144,1.848,6.768,6.768,0,0,1,1.754,5.054v4.485a.9.9,0,0,1-1.808,0V1293a4.964,4.964,0,0,0-1.271-3.732,3.849,3.849,0,0,0-2.824-1.274h-20.063a3.847,3.847,0,0,0-2.822,1.273A4.964,4.964,0,0,0,1322,1293v18.166a.866.866,0,0,0,.8.9h11.391a.9.9,0,1,1,0,1.808Z" transform="translate(-1320.185 -1282.544)" fill="#b3b7c0"/>
          <path id="Path_10068" data-name="Path 10068" d="M1342.35,1291h-11.091a2.755,2.755,0,0,1-2.751-2.751V1286.4a.9.9,0,1,1,1.808,0v1.849a.947.947,0,0,0,.947.947h11.091a.947.947,0,0,0,.947-.947V1286.4a.9.9,0,1,1,1.808,0v1.849a2.755,2.755,0,0,1-2.751,2.755Z" transform="translate(-1320.85 -1274.809)" fill="#b3b7c0"/>
          <path id="Path_10120" data-name="Path 10120" d="M-296.853,293.439a.9.9,0,0,1-.4-.086.9.9,0,0,1-.457-.517.9.9,0,0,1,.043-.689,25.929,25.929,0,0,1,2.076-3.43c1.763-2.437,3.465-3.666,5.054-3.667.85,0,2.228-.016,3.824-.034,4.264-.047,10.1-.112,12.377.035,1.55.1,3.25,1.321,5.036,3.628a26.29,26.29,0,0,1,2.145,3.256.9.9,0,0,1,.073.686.9.9,0,0,1-.434.537.9.9,0,0,1-.686.073.9.9,0,0,1-.537-.434,24.888,24.888,0,0,0-2-3.025c-1.413-1.817-2.732-2.852-3.712-2.916-2.206-.143-8.008-.078-12.241-.032-1.6.018-2.984.034-3.844.034-.955,0-2.232,1.038-3.6,2.921a24.4,24.4,0,0,0-1.918,3.159.9.9,0,0,1-.812.5Z" transform="translate(298.302 -284.961)" fill="#b3b7c0"/>
        </g>
      </g>
    </g>
    <g id="Group_1" data-name="Group 1" transform="translate(-1.927 -0.662)">
      <g id="Group_6" data-name="Group 6" transform="translate(18.312 18.316)">
        <g id="Group_5" data-name="Group 5">
          <g id="Group_4" data-name="Group 4">
            <path id="Path_3" data-name="Path 3" d="M16.185,1.108a1.157,1.157,0,0,1,.881.881l1.092,6.335a1.648,1.648,0,0,1-.411,1.292L9.636,17.728a1.527,1.527,0,0,1-2.16,0L.449,10.7a1.527,1.527,0,0,1,0-2.16L8.557.426A1.653,1.653,0,0,1,9.85.015Zm-6.6.414c.035,0,.04-.006.049-.015L1.53,9.616l7.027,7.027,8.109-8.109c-.02.027-.017.036-.015.049L15.613,2.561ZM12.071,8.4A2.293,2.293,0,1,1,13.7,7.726,2.293,2.293,0,0,1,12.071,8.4Zm0-1.529a.764.764,0,1,0-.764-.764.764.764,0,0,0,.764.764Z" transform="translate(0 0.437)" fill="#837af5"/>
          </g>
        </g>
      </g>
    </g>
  </g>
</svg>
