<svg xmlns="http://www.w3.org/2000/svg" class="block-icon" width="37.65" height="38.649" viewBox="0 0 37.65 38.649">
  <g id="Product_Discount" data-name="Product Discount" transform="translate(0.001 0.001)">
    <g id="Group_72091" data-name="Group 72091">
      <g id="Group_71994" data-name="Group 71994">
        <g id="Group_71987" data-name="Group 71987">
          <path id="Path_10066" data-name="Path 10066" d="M1334.2,1313.87h-11.472a2.675,2.675,0,0,1-2.527-2.769V1293.09a6.773,6.773,0,0,1,1.756-5.054,5.633,5.633,0,0,1,4.141-1.847h20.063a5.635,5.635,0,0,1,4.144,1.848,6.768,6.768,0,0,1,1.754,5.054v6.485a.9.9,0,0,1-1.808,0V1293a4.964,4.964,0,0,0-1.271-3.732,3.849,3.849,0,0,0-2.824-1.274h-20.063a3.847,3.847,0,0,0-2.822,1.273A4.964,4.964,0,0,0,1322,1293v18.166a.866.866,0,0,0,.8.9h11.391a.9.9,0,1,1,0,1.808Z" transform="translate(-1320.185 -1282.544)" fill="#b3b7c0"/>
          <path id="Path_10068" data-name="Path 10068" d="M1342.35,1291h-11.091a2.755,2.755,0,0,1-2.751-2.751V1286.4a.9.9,0,1,1,1.808,0v1.849a.947.947,0,0,0,.947.947h11.091a.947.947,0,0,0,.947-.947V1286.4a.9.9,0,1,1,1.808,0v1.849a2.755,2.755,0,0,1-2.751,2.755Z" transform="translate(-1320.85 -1274.809)" fill="#b3b7c0"/>
          <path id="Path_10120" data-name="Path 10120" d="M-296.853,293.439a.9.9,0,0,1-.4-.086.9.9,0,0,1-.457-.517.9.9,0,0,1,.043-.689,25.929,25.929,0,0,1,2.076-3.43c1.763-2.437,3.465-3.666,5.054-3.667.85,0,2.228-.016,3.824-.034,4.264-.047,10.1-.112,12.377.035,1.55.1,3.25,1.321,5.036,3.628a26.29,26.29,0,0,1,2.145,3.256.9.9,0,0,1,.073.686.9.9,0,0,1-.434.537.9.9,0,0,1-.686.073.9.9,0,0,1-.537-.434,24.888,24.888,0,0,0-2-3.025c-1.413-1.817-2.732-2.852-3.712-2.916-2.206-.143-8.008-.078-12.241-.032-1.6.018-2.984.034-3.844.034-.955,0-2.232,1.038-3.6,2.921a24.4,24.4,0,0,0-1.918,3.159.9.9,0,0,1-.812.5Z" transform="translate(298.302 -284.961)" fill="#b3b7c0"/>
        </g>
      </g>
    </g>
    <g id="Group_2" data-name="Group 2">
      <g id="Group_74452" data-name="Group 74452" transform="translate(14.605 18.623)">
        <path id="Path_11581" data-name="Path 11581" d="M15.144,17.621a.464.464,0,0,0,.673,0l4.8-4.8a.476.476,0,0,0-.673-.673l-4.8,4.8a.464.464,0,0,0,0,.673Z" transform="translate(-3.637 -3.637)" fill="#837af5" stroke="#837af5" stroke-width="0.2"/>
        <path id="Path_11582" data-name="Path 11582" d="M14.477,13.4h.192a1.812,1.812,0,0,0,1.009-.336,1.691,1.691,0,0,0,.288-2.354,1.544,1.544,0,0,0-1.1-.625,1.677,1.677,0,0,0-1.537,2.69,1.553,1.553,0,0,0,1.148.625Zm-.528-1.778a.528.528,0,0,1,.288-.48A.775.775,0,0,1,14.669,11h.1a.528.528,0,0,1,.48.288.688.688,0,0,1,.144.528.528.528,0,0,1-.288.48,1.1,1.1,0,0,1-.528.144.528.528,0,0,1-.48-.288.968.968,0,0,1-.149-.527Z" transform="translate(-2.585 -2.637)" fill="#837af5" stroke="#837af5" stroke-width="0.2"/>
        <path id="Path_11583" data-name="Path 11583" d="M22.66,19.324a2.044,2.044,0,0,0-.673,1.1,1.716,1.716,0,0,0,.336,1.249,2.044,2.044,0,0,0,1.1.673h.24a1.508,1.508,0,0,0,1.009-.336,2.044,2.044,0,0,0,.673-1.1,1.716,1.716,0,0,0-.336-1.249,2.044,2.044,0,0,0-1.1-.673,1.661,1.661,0,0,0-1.249.336Zm1.585.913a.968.968,0,0,1,.144.528,1,1,0,0,1-.288.48.968.968,0,0,1-.528.144,1,1,0,0,1-.48-.288.968.968,0,0,1-.144-.528,1,1,0,0,1,.288-.48.775.775,0,0,1,.432-.144h.1a.817.817,0,0,1,.48.288Z" transform="translate(-7.261 -7.261)" fill="#837af5" stroke="#837af5" stroke-width="0.2"/>
      </g>
      <g id="Group_3" data-name="Group 3" transform="translate(0.5)">
        <path id="Path_11577" data-name="Path 11577" d="M8,0A8,8,0,1,1,0,8,8,8,0,0,1,8,0Z" transform="translate(20.499 21.998)" fill="none" stroke="#837af5" stroke-width="1.3"/>
      </g>
    </g>
  </g>
</svg>
