<svg xmlns="http://www.w3.org/2000/svg" class="block-icon" width="39.269" height="26.35" viewBox="0 0 39.269 26.35">
  <g id="Rating" transform="translate(0.006 0)">
    <g id="Group_72098" data-name="Group 72098">
      <g id="Iconly_Light-Outline_Star" data-name="Iconly/Light-Outline/Star" transform="translate(4.588 6.923)">
        <path id="Star" d="M5.994,7.618a.827.827,0,0,1-.381-.094l-1.5-.779a.2.2,0,0,0-.189,0l-1.5.779a.826.826,0,0,1-.375.094.816.816,0,0,1-.484-.159.8.8,0,0,1-.319-.789l.288-1.651a.187.187,0,0,0-.055-.167L.249,3.682a.8.8,0,0,1-.21-.826A.807.807,0,0,1,.7,2.3l1.683-.243a.2.2,0,0,0,.149-.1L3.283.449a.816.816,0,0,1,1.464,0l.753,1.5a.2.2,0,0,0,.149.1L7.333,2.3a.807.807,0,0,1,.45,1.382L6.563,4.851a.187.187,0,0,0-.055.166L6.8,6.67a.8.8,0,0,1-.319.789A.81.81,0,0,1,6,7.618Zm-1.979-7a.194.194,0,0,0-.178.108l-.753,1.5a.816.816,0,0,1-.612.44L.789,2.912a.193.193,0,0,0-.16.133.183.183,0,0,0,.05.191l1.216,1.17a.8.8,0,0,1,.236.715L1.843,6.776a.183.183,0,0,0,.076.184.194.194,0,0,0,.212.016l1.5-.776a.825.825,0,0,1,.756,0L5.9,6.974a.2.2,0,0,0,.217-.013.183.183,0,0,0,.076-.184L5.9,5.125a.8.8,0,0,1,.236-.715L7.353,3.236a.18.18,0,0,0,.053-.19.189.189,0,0,0-.16-.133L5.559,2.668a.816.816,0,0,1-.612-.441L4.193.725A.193.193,0,0,0,4.015.617Z" transform="translate(0.51 0.516)" fill="#b3b7c0"/>
        <path id="Star_-_Outline" data-name="Star - Outline" d="M6,8.138H6a1.339,1.339,0,0,1-.612-.152L4.025,7.28l-1.362.707a1.327,1.327,0,0,1-1.4-.1,1.311,1.311,0,0,1-.52-1.293L1,5.114-.092,4.063a1.3,1.3,0,0,1-.344-1.35A1.313,1.313,0,0,1,.637,1.806l1.522-.22L2.838.231a1.327,1.327,0,0,1,2.377,0l.679,1.356,1.522.22a1.317,1.317,0,0,1,.73,2.256l-1.1,1.05L7.3,6.595A1.327,1.327,0,0,1,6,8.138Zm-4.49-4.8.743.715a1.313,1.313,0,0,1,.386,1.174l-.177,1.02.947-.491a1.335,1.335,0,0,1,1.224,0l.947.491L5.4,5.227A1.312,1.312,0,0,1,5.792,4.05l.743-.715L5.5,3.185a1.327,1.327,0,0,1-1-.715l-.474-.947-.478.948a1.327,1.327,0,0,1-1,.715Z" transform="translate(0.5 0.505)" fill="#837af5"/>
      </g>
      <g id="Iconly_Light-Outline_Star-2" data-name="Iconly/Light-Outline/Star" transform="translate(15.108 6.923)">
        <path id="Star-2" data-name="Star" d="M5.994,7.618a.827.827,0,0,1-.381-.094l-1.5-.779a.2.2,0,0,0-.189,0l-1.5.779a.826.826,0,0,1-.375.094.816.816,0,0,1-.484-.159.8.8,0,0,1-.319-.789l.288-1.651a.187.187,0,0,0-.055-.167L.249,3.682a.8.8,0,0,1-.21-.826A.807.807,0,0,1,.7,2.3l1.683-.243a.2.2,0,0,0,.149-.1L3.283.449a.816.816,0,0,1,1.464,0l.753,1.5a.2.2,0,0,0,.149.1L7.333,2.3a.807.807,0,0,1,.45,1.382L6.563,4.851a.187.187,0,0,0-.055.166L6.8,6.67a.8.8,0,0,1-.319.789A.81.81,0,0,1,6,7.618Zm-1.979-7a.194.194,0,0,0-.178.108l-.753,1.5a.816.816,0,0,1-.612.44L.789,2.912a.193.193,0,0,0-.16.133.183.183,0,0,0,.05.191l1.216,1.17a.8.8,0,0,1,.236.715L1.843,6.776a.183.183,0,0,0,.076.184.194.194,0,0,0,.212.016l1.5-.776a.825.825,0,0,1,.756,0L5.9,6.974a.2.2,0,0,0,.217-.013.183.183,0,0,0,.076-.184L5.9,5.125a.8.8,0,0,1,.236-.715L7.353,3.236a.18.18,0,0,0,.053-.19.189.189,0,0,0-.16-.133L5.559,2.668a.816.816,0,0,1-.612-.441L4.193.725A.193.193,0,0,0,4.015.617Z" transform="translate(0.51 0.516)" fill="#b3b7c0"/>
        <path id="Star_-_Outline-2" data-name="Star - Outline" d="M6,8.138H6a1.339,1.339,0,0,1-.612-.152L4.025,7.28l-1.362.707a1.327,1.327,0,0,1-1.4-.1,1.311,1.311,0,0,1-.52-1.293L1,5.114-.092,4.063a1.3,1.3,0,0,1-.344-1.35A1.313,1.313,0,0,1,.637,1.806l1.522-.22L2.838.231a1.327,1.327,0,0,1,2.377,0l.679,1.356,1.522.22a1.317,1.317,0,0,1,.73,2.256l-1.1,1.05L7.3,6.595A1.327,1.327,0,0,1,6,8.138Zm-4.49-4.8.743.715a1.313,1.313,0,0,1,.386,1.174l-.177,1.02.947-.491a1.335,1.335,0,0,1,1.224,0l.947.491L5.4,5.227A1.312,1.312,0,0,1,5.792,4.05l.743-.715L5.5,3.185a1.327,1.327,0,0,1-1-.715l-.474-.947-.478.948a1.327,1.327,0,0,1-1,.715Z" transform="translate(0.5 0.505)" fill="#837af5"/>
      </g>
      <g id="Iconly_Light-Outline_Star-3" data-name="Iconly/Light-Outline/Star" transform="translate(25.626 6.923)">
        <path id="Star-3" data-name="Star" d="M5.994,7.618a.827.827,0,0,1-.381-.094l-1.5-.779a.2.2,0,0,0-.189,0l-1.5.779a.826.826,0,0,1-.375.094.816.816,0,0,1-.484-.159.8.8,0,0,1-.319-.789l.288-1.651a.187.187,0,0,0-.055-.167L.249,3.682a.8.8,0,0,1-.21-.826A.807.807,0,0,1,.7,2.3l1.683-.243a.2.2,0,0,0,.149-.1L3.283.449a.816.816,0,0,1,1.464,0l.753,1.5a.2.2,0,0,0,.149.1L7.333,2.3a.807.807,0,0,1,.45,1.382L6.563,4.851a.187.187,0,0,0-.055.166L6.8,6.67a.8.8,0,0,1-.319.789A.81.81,0,0,1,6,7.618Zm-1.979-7a.194.194,0,0,0-.178.108l-.753,1.5a.816.816,0,0,1-.612.44L.789,2.912a.193.193,0,0,0-.16.133.183.183,0,0,0,.05.191l1.216,1.17a.8.8,0,0,1,.236.715L1.843,6.776a.183.183,0,0,0,.076.184.194.194,0,0,0,.212.016l1.5-.776a.825.825,0,0,1,.756,0L5.9,6.974a.2.2,0,0,0,.217-.013.183.183,0,0,0,.076-.184L5.9,5.125a.8.8,0,0,1,.236-.715L7.353,3.236a.18.18,0,0,0,.053-.19.189.189,0,0,0-.16-.133L5.559,2.668a.816.816,0,0,1-.612-.441L4.193.725A.193.193,0,0,0,4.015.617Z" transform="translate(0.51 0.516)" fill="#b3b7c0"/>
        <path id="Star_-_Outline-3" data-name="Star - Outline" d="M6,8.138H6a1.339,1.339,0,0,1-.612-.152L4.025,7.28l-1.362.707a1.327,1.327,0,0,1-1.4-.1,1.311,1.311,0,0,1-.52-1.293L1,5.114-.092,4.063a1.3,1.3,0,0,1-.344-1.35A1.313,1.313,0,0,1,.637,1.806l1.522-.22L2.838.231a1.327,1.327,0,0,1,2.377,0l.679,1.356,1.522.22a1.317,1.317,0,0,1,.73,2.256l-1.1,1.05L7.3,6.595A1.327,1.327,0,0,1,6,8.138Zm-4.49-4.8.743.715a1.313,1.313,0,0,1,.386,1.174l-.177,1.02.947-.491a1.335,1.335,0,0,1,1.224,0l.947.491L5.4,5.227A1.312,1.312,0,0,1,5.792,4.05l.743-.715L5.5,3.185a1.327,1.327,0,0,1-1-.715l-.474-.947-.478.948a1.327,1.327,0,0,1-1,.715Z" transform="translate(0.5 0.505)" fill="#b3b7c0"/>
      </g>
      <path id="Path_10144" data-name="Path 10144" d="M1588.86,506.5h28.54a5.179,5.179,0,0,1,5.362,4.962v12.69a5.18,5.18,0,0,1-5.362,4.962h-22.346a1.888,1.888,0,0,0-.982.267l-4.8,2.9a3.946,3.946,0,0,1-4.592-.375,3.342,3.342,0,0,1-1.187-2.551V511.462a5.179,5.179,0,0,1,5.367-4.962Zm28.538,20.57a3.145,3.145,0,0,0,3.321-2.922V511.462a3.145,3.145,0,0,0-3.321-2.922H1588.86a3.145,3.145,0,0,0-3.321,2.922v17.884a1.61,1.61,0,0,0,1.711,1.456,1.883,1.883,0,0,0,.976-.272l4.788-2.9a3.921,3.921,0,0,1,2.041-.563Z" transform="translate(-1583.499 -506.496)" fill="#b3b7c0"/>
    </g>
  </g>
</svg>
