<svg xmlns="http://www.w3.org/2000/svg" class="block-icon" width="40" height="38" viewBox="0 0 40 38">
  <g id="Size_Chart" data-name="Size Chart" transform="translate(-2902.489 -232.352)">
    <g id="wrapper" transform="translate(2902.791 231.554)">
      <g id="Group_72089" data-name="Group 72089" transform="translate(0.5)">
        <path id="Path_11575" data-name="Path 11575" d="M4,0H34a4,4,0,0,1,4,4V32a4,4,0,0,1-4,4H4a4,4,0,0,1-4-4V4A4,4,0,0,1,4,0Z" transform="translate(0.198 1.798)" fill="none" stroke="#b3b7c0" stroke-width="2"/>
      </g>
      <g id="Group_73561" data-name="Group 73561" transform="translate(-1152.761 -1699.671)">
        <g id="Group_73558" data-name="Group 73558" transform="translate(1160.959 1710.468)">
          <g id="Group_73557" data-name="Group 73557">
            <line id="Line_6479" data-name="Line 6479" y2="1.268" transform="translate(8.965)" fill="none" stroke="#837af5" stroke-linecap="round" stroke-miterlimit="10" stroke-width="1.4"/>
            <line id="Line_6480" data-name="Line 6480" x2="0.634" y2="1.098" transform="translate(4.483 1.201)" fill="none" stroke="#837af5" stroke-linecap="round" stroke-miterlimit="10" stroke-width="1.4"/>
            <line id="Line_6481" data-name="Line 6481" x2="1.098" y2="0.634" transform="translate(1.201 4.483)" fill="none" stroke="#837af5" stroke-linecap="round" stroke-miterlimit="10" stroke-width="1.4"/>
            <line id="Line_6482" data-name="Line 6482" x2="1.268" transform="translate(0 8.965)" fill="none" stroke="#837af5" stroke-linecap="round" stroke-miterlimit="10" stroke-width="1.4"/>
            <line id="Line_6483" data-name="Line 6483" y1="0.634" x2="1.098" transform="translate(1.201 12.814)" fill="none" stroke="#837af5" stroke-linecap="round" stroke-miterlimit="10" stroke-width="1.4"/>
            <line id="Line_6484" data-name="Line 6484" y1="1.098" x2="0.634" transform="translate(4.483 15.632)" fill="none" stroke="#837af5" stroke-linecap="round" stroke-miterlimit="10" stroke-width="1.4"/>
            <path id="Path_11574" data-name="Path 11574" d="M1173.19,1743.28a5.348,5.348,0,1,0-3.045.951h13.989v3.616h-13.989a8.958,8.958,0,1,1,8.038-4.99" transform="translate(-1161.179 -1729.919)" fill="none" stroke="#837af5" stroke-linecap="round" stroke-miterlimit="10" stroke-width="1.4"/>
            <line id="Line_6485" data-name="Line 6485" y1="1.268" transform="translate(12.859 16.663)" fill="none" stroke="#837af5" stroke-linecap="round" stroke-miterlimit="10" stroke-width="1.4"/>
            <line id="Line_6486" data-name="Line 6486" y1="1.268" transform="translate(16.753 16.663)" fill="none" stroke="#837af5" stroke-linecap="round" stroke-miterlimit="10" stroke-width="1.4"/>
            <line id="Line_6487" data-name="Line 6487" y1="1.268" transform="translate(20.647 16.663)" fill="none" stroke="#837af5" stroke-linecap="round" stroke-miterlimit="10" stroke-width="1.4"/>
            <line id="Line_6488" data-name="Line 6488" x1="1.268" transform="translate(16.663 8.965)" fill="none" stroke="#837af5" stroke-linecap="round" stroke-miterlimit="10" stroke-width="1.4"/>
            <line id="Line_6489" data-name="Line 6489" x1="1.098" y2="0.634" transform="translate(15.631 4.483)" fill="none" stroke="#837af5" stroke-linecap="round" stroke-miterlimit="10" stroke-width="1.4"/>
            <line id="Line_6490" data-name="Line 6490" x1="0.634" y2="1.098" transform="translate(12.814 1.201)" fill="none" stroke="#837af5" stroke-linecap="round" stroke-miterlimit="10" stroke-width="1.4"/>
          </g>
          <line id="Line_6491" data-name="Line 6491" y1="1.268" transform="translate(8.965 16.663)" fill="none" stroke="#837af5" stroke-linecap="round" stroke-miterlimit="10" stroke-width="1.4"/>
        </g>
      </g>
    </g>
  </g>
</svg>
