<svg xmlns="http://www.w3.org/2000/svg" class="block-icon" width="38.188" height="31.856" viewBox="0 0 38.188 31.856">
  <g id="Description" transform="translate(0.003 -0.002)">
    <g id="Group_72096" data-name="Group 72096">
      <g id="Group_72012" data-name="Group 72012" transform="translate(20.925 8.802)">
        <path id="Path_9984" data-name="Path 9984" d="M1691.16,216.642a.762.762,0,0,1-.694-1.077l2.247-4.943a.762.762,0,0,1,.154-.224l10.787-10.786a.762.762,0,0,1,1.078,0l2.7,2.7a.762.762,0,0,1,0,1.078l-10.786,10.786a.752.752,0,0,1-.224.154l-4.943,2.247a.76.76,0,0,1-.316.068Zm2.883-5.265-1.348,2.967,2.967-1.348,10.149-10.149-1.619-1.619Z" transform="translate(-1690.395 -199.389)" fill="#b3b7c0"/>
        <path id="Line_27" data-name="Line 27" d="M2,3.426-.7.732.728-.709l2.7,2.7Z" transform="translate(10.637 2.863)" fill="#b3b7c0"/>
        <path id="Line_28" data-name="Line 28" d="M1.986,3.432l-2.7-2.7L.732-.7,3.426,2Z" transform="translate(4 10.516)" fill="#b3b7c0"/>
      </g>
      <g id="Group_72013" data-name="Group 72013">
        <path id="Path_10142" data-name="Path 10142" d="M1086.12,1005.63h-21.155a1.017,1.017,0,0,1,0-2.033h21.155a2.881,2.881,0,0,0,2.874-2.876,1.016,1.016,0,0,1,1.016-1.016h0a1.016,1.016,0,0,1,1.016.981h0v.034a4.917,4.917,0,0,1-4.908,4.908Z" transform="translate(-1060.46 -973.774)" fill="#b3b7c0"/>
        <path id="Path_10142-2" data-name="Path 10142" d="M1067.96,1002.16a1.016,1.016,0,0,1-1.016-1.016V979.1a4.908,4.908,0,0,1,4.908-4.908h14.259a4.912,4.912,0,0,1,4.908,4.908v4.133a1.016,1.016,0,0,1-2.032,0V979.1a2.877,2.877,0,0,0-2.874-2.874h-14.265a2.877,2.877,0,0,0-2.874,2.874v22.043a1.016,1.016,0,0,1-1.016,1.013Z" transform="translate(-1060.46 -974.19)" fill="#b3b7c0"/>
        <path id="Path_10143" data-name="Path 10143" d="M1064.82,1005.84a4.268,4.268,0,0,1-4.258-4.258v-9.73a4.908,4.908,0,0,1,4.908-4.908h2.594a1.016,1.016,0,0,1,1.016,1.016v13.619a4.268,4.268,0,0,1-4.26,4.261Zm.648-16.858a2.877,2.877,0,0,0-2.874,2.874v9.73a2.226,2.226,0,1,0,4.452,0V988.981Z" transform="translate(-1060.565 -973.982)" fill="#b3b7c0"/>
      </g>
      <path id="Line_92" data-name="Line 92" d="M12.211,1.033H.016A1.016,1.016,0,0,1,.016-1h12.2a1.016,1.016,0,0,1,0,2.033Z" transform="translate(13.195 8.117)" fill="#837af5"/>
      <path id="Line_93" data-name="Line 93" d="M10.179,1.033H.016A1.016,1.016,0,0,1,.016-1H10.177a1.016,1.016,0,0,1,0,2.033Z" transform="translate(13.195 12.182)" fill="#837af5"/>
      <path id="Line_94" data-name="Line 94" d="M7.13,1.033H.016A1.016,1.016,0,0,1,.016-1H7.13a1.016,1.016,0,0,1,0,2.033Z" transform="translate(13.195 16.247)" fill="#837af5"/>
    </g>
  </g>
</svg>
