<svg xmlns="http://www.w3.org/2000/svg" class="block-icon" width="29.622" height="37.062" viewBox="0 0 29.622 37.062">
  <g id="Price" transform="translate(0 0.036)">
    <g id="Group_72095" data-name="Group 72095">
      <g id="Group_72010" data-name="Group 72010">
        <path id="Path_10140" data-name="Path 10140" d="M774.167,912.33a4.247,4.247,0,0,1-2.358-.715l-1.166-.775a1.781,1.781,0,0,0-1.974,0l-1.164.775a4.244,4.244,0,0,1-4.717,0l-2.841-1.894,1.369-2.054,2.842,1.894a1.781,1.781,0,0,0,1.974,0l1.164-.775a4.243,4.243,0,0,1,4.717,0l1.165.775a1.781,1.781,0,0,0,1.974,0l1.164-.775a4.243,4.243,0,0,1,4.717,0l1.165.775a1.781,1.781,0,0,0,1.975,0l2.841-1.894,1.369,2.054-2.841,1.894a4.243,4.243,0,0,1-4.717,0l-1.165-.775a1.781,1.781,0,0,0-1.974,0l-1.164.775a4.25,4.25,0,0,1-2.354.716Z" transform="translate(-759.394 -907.46)" fill="#b3b7c0"/>
        <path id="Path_10141" data-name="Path 10141" d="M761.315,933.565l-1.369-2.054,2.842-1.894a4.243,4.243,0,0,1,4.717,0l1.165.775a1.781,1.781,0,0,0,1.974,0l1.164-.775a4.243,4.243,0,0,1,4.717,0l1.165.775a1.781,1.781,0,0,0,1.974,0l1.164-.775a4.243,4.243,0,0,1,4.717,0l2.842,1.894-1.369,2.054-2.841-1.894a1.781,1.781,0,0,0-1.975,0l-1.164.775a4.244,4.244,0,0,1-4.717,0l-1.165-.775a1.781,1.781,0,0,0-1.974,0l-1.164.775a4.244,4.244,0,0,1-4.717,0l-1.165-.775a1.781,1.781,0,0,0-1.974,0Z" transform="translate(-759.396 -896.708)" fill="#b3b7c0"/>
        <path id="Line_85" data-name="Line 85" d="M.234,36.026A1.234,1.234,0,0,1-1,34.792V.234a1.235,1.235,0,1,1,2.469,0V34.792A1.234,1.234,0,0,1,.234,36.026Z" transform="translate(1 1)" fill="#b3b7c0"/>
        <path id="Line_86" data-name="Line 86" d="M.234,36.026A1.234,1.234,0,0,1-1,34.792V.234a1.235,1.235,0,1,1,2.469,0V34.792A1.234,1.234,0,0,1,.234,36.026Z" transform="translate(28.152 1)" fill="#b3b7c0"/>
      </g>
      <g id="Group_65401" data-name="Group 65401" transform="translate(10.39 9.145)">
        <path id="Path_10019" data-name="Path 10019" d="M1508.71,1096.15a4.418,4.418,0,0,1-4.418-4.418,1.234,1.234,0,0,1,1.234-1.234h0a1.234,1.234,0,0,1,1.234,1.234,1.95,1.95,0,1,0,3.9,0c0-.66-.179-1.311-2.332-2.01a7.566,7.566,0,0,1-2.645-1.378,3.854,3.854,0,0,1-1.392-2.982,4.419,4.419,0,0,1,8.838,0,1.235,1.235,0,1,1-2.469,0,1.95,1.95,0,0,0-3.9,0c0,.37,0,1.25,2.333,2.011a7.411,7.411,0,0,1,2.735,1.415,3.788,3.788,0,0,1,1.3,2.944,4.424,4.424,0,0,1-4.419,4.417Z" transform="translate(-1504.287 -1079.157)" fill="#837af5"/>
        <path id="Line_919" data-name="Line 919" d="M.234,3.266A1.234,1.234,0,0,1-1,2.031V.234a1.235,1.235,0,1,1,2.469,0v1.8A1.234,1.234,0,0,1,.234,3.266Z" transform="translate(4.193 1)" fill="#837af5"/>
        <path id="Line_920" data-name="Line 920" d="M.234,3.266A1.234,1.234,0,0,1-1,2.031V.234a1.235,1.235,0,1,1,2.469,0v1.8A1.234,1.234,0,0,1,.234,3.266Z" transform="translate(4.193 15.512)" fill="#837af5"/>
      </g>
    </g>
  </g>
</svg>
