<svg xmlns="http://www.w3.org/2000/svg" class="block-icon" width="39.633" height="37.065" viewBox="0 0 39.633 37.065">
  <g id="Breadcrumbs" transform="translate(3.4 12)">
    <g id="Group_72097" data-name="Group 72097" transform="translate(-3.4 -12)">
      <path id="Path_10142" data-name="Path 10142" d="M2.928,1.653A1.275,1.275,0,0,0,1.653,2.928V6.441A1.275,1.275,0,0,0,2.928,7.713H10.57A12.492,12.492,0,0,0,11.72,6.68c1.215-1.247,1.31-1.949,1.31-2.134A3.4,3.4,0,0,0,11.8,2.63a10.914,10.914,0,0,0-1.186-.976H2.928M2.928,0h8.2s3.555,2.2,3.555,4.547-3.555,4.822-3.555,4.822h-8.2A2.928,2.928,0,0,1,0,6.44V2.928A2.928,2.928,0,0,1,2.928,0Z" fill="#837af5"/>
      <path id="Path_10143" data-name="Path 10143" d="M.889,0H24.462s3.616,2.283,3.616,4.624-3.616,4.743-3.616,4.743H.889S4.67,6.969,4.67,4.624.889,0,.889,0Z" transform="translate(11.555)" fill="none"/>
      <path id="Path_10143_-_Outline" data-name="Path 10143 - Outline" d="M5.215,1.653A5,5,0,0,1,6.323,4.624a5.187,5.187,0,0,1-1.178,3.09H23.93a12.123,12.123,0,0,0,1.212-1.049c1.187-1.187,1.28-1.861,1.28-2.04s-.091-.836-1.258-1.962a11.479,11.479,0,0,0-1.212-1.01H5.215M.889,0H24.462s3.616,2.283,3.616,4.624-3.616,4.743-3.616,4.743H.889S4.67,6.969,4.67,4.624.889,0,.889,0Z" transform="translate(11.555)" fill="#b3b7c0"/>
    </g>
    <path id="Path_9982" data-name="Path 9982" d="M1715.84,225.13h-28.719a5.8,5.8,0,0,1-5.629-5.941l-.005-17.429a1.081,1.081,0,0,1,2.158,0l.005,17.431a3.637,3.637,0,0,0,3.466,3.784h28.716a1.081,1.081,0,1,1,0,2.158Z" transform="translate(-1684.887 -200.07)" fill="#b3b7c0"/>
  </g>
</svg>
