<svg xmlns="http://www.w3.org/2000/svg" class="block-icon" width="33.347" height="38.413" viewBox="0 0 33.347 38.413">
  <g id="Return_to_shop" data-name="Return to shop" transform="translate(0.004 -0.001)">
    <g id="Group_72102" data-name="Group 72102">
      <g id="Group_72027" data-name="Group 72027">
        <g id="Group_72024" data-name="Group 72024" transform="translate(0 9.394)">
          <path id="Path_10148" data-name="Path 10148" d="M425.084,850.519h-12a4.34,4.34,0,0,1-4.311-4.842l2.718-23.1A1.211,1.211,0,0,1,412.7,821.5h26.6a1.211,1.211,0,0,1,1.206,1.069L442.07,836a1.211,1.211,0,1,1-2.4.28l-1.434-12.37h-24.46l-2.6,22.039a1.919,1.919,0,0,0,1.906,2.143h12a1.211,1.211,0,1,1,0,2.42Z" transform="translate(-408.748 -821.504)" fill="#b3b7c0"/>
        </g>
        <path id="Path_10149" data-name="Path 10149" d="M429.793,830.438a1.211,1.211,0,0,1-1.211-1.211V823.75a5.831,5.831,0,1,0-11.662,0v5.477a1.211,1.211,0,0,1-2.42,0V823.75a8.251,8.251,0,1,1,16.5,0v5.477a1.211,1.211,0,0,1-1.207,1.211Z" transform="translate(-405.501 -815.498)" fill="#b3b7c0"/>
      </g>
      <g id="Rectangle_388" data-name="Rectangle 388" transform="translate(13.859 25.097)">
        <path id="Path_10151" data-name="Path 10151" d="M1481.85,13.315h-9.2a1.211,1.211,0,0,1,0-2.42h9.2a4.236,4.236,0,0,0,0-8.473h-5.91a1.211,1.211,0,1,1,0-2.42h5.909a6.657,6.657,0,0,1,0,13.315Z" transform="translate(-1471.468)" fill="#837af5"/>
      </g>
      <path id="Path_9659" data-name="Path 9659" d="M-4894.56,2515.45a1.211,1.211,0,0,1-.879-.378l-3.665-3.875a1.205,1.205,0,0,1,0-1.665l3.665-3.875a1.211,1.211,0,0,1,1.712-.047,1.211,1.211,0,0,1,.047,1.712l-2.876,3.037,2.876,3.037a1.211,1.211,0,0,1-.047,1.712A1.209,1.209,0,0,1-4894.56,2515.45Z" transform="translate(4913.641 -2484.065)" fill="#837af5"/>
    </g>
  </g>
</svg>
