<svg xmlns="http://www.w3.org/2000/svg" class="block-icon" width="39.995" height="32.254" viewBox="0 0 39.995 32.254">
  <g id="Group_72189" data-name="Group 72189" transform="translate(0.002 0)">
    <path id="Path_10177" data-name="Path 10177" d="M11.928,12.67H15.64a.84.84,0,1,0,0-1.671H11.928a.84.84,0,1,0,0,1.671Z" transform="translate(0.958 -0.731)" fill="#b3b7c0"/>
    <path id="Path_10178" data-name="Path 10178" d="M11.874,16.671H17.1A.836.836,0,1,0,17.1,15H11.874a.836.836,0,1,0,0,1.671Z" transform="translate(0.932 -1.231)" fill="#b3b7c0"/>
    <g id="Group_72188" data-name="Group 72188" transform="translate(-0.002)">
      <g id="Group_72131" data-name="Group 72131">
        <g id="Group_72124" data-name="Group 72124" transform="translate(6.362)">
          <path id="Path_10175" data-name="Path 10175" d="M1742.65,754.592l-11.889-.16V727.478a3.771,3.771,0,0,1,3.768-3.767h16.508a3.771,3.771,0,0,1,3.767,3.767v11.847a.944.944,0,1,1-1.887,0V727.478a1.883,1.883,0,0,0-1.881-1.88h-16.507a1.883,1.883,0,0,0-1.881,1.88V752.54l10,.16a.944.944,0,0,1,0,1.888Z" transform="translate(-1730.761 -723.711)" fill="#b3b7c0"/>
        </g>
        <g id="Group_72125" data-name="Group 72125" transform="translate(0 13.157)">
          <path id="Path_10176" data-name="Path 10176" d="M1721.22,765.107h-1.077c-3.915,0-6.227-3.185-6.227-7.1v-6.694a3.771,3.771,0,0,1,3.768-3.767l2.989.012a.944.944,0,0,1,0,1.888l-2.989-.012a1.882,1.882,0,0,0-1.879,1.88v6.694c0,2.874,1.465,5.212,4.339,5.212h1.077a.944.944,0,0,1,0,1.888Z" transform="translate(-1713.916 -747.546)" fill="#b3b7c0"/>
        </g>
      </g>
      <g id="Group_72132" data-name="Group 72132" transform="translate(19.649 18.185)">
        <path id="Path_10179" data-name="Path 10179" d="M1019.7,1024.76h-4.9a.874.874,0,1,1,0-1.748h4.023v-8.768h-9.575v8.768h.77a.874.874,0,1,1,0,1.748h-1.644a.874.874,0,0,1-.874-.874v-9.71a1.684,1.684,0,0,1,1.682-1.682h9.71a1.684,1.684,0,0,1,1.682,1.682v9.71a.874.874,0,0,1-.874.874Z" transform="translate(-1007.5 -1012.494)" fill="#837af5"/>
        <path id="Path_10180" data-name="Path 10180" d="M1029.66,1025.53h-.908a.874.874,0,1,1,0-1.748h.034v-1.44l-1.937-.946a.874.874,0,0,1-.486-.659l-.359-2.487h-2.753v5.535h.786a.874.874,0,0,1,0,1.748h-1.66a.874.874,0,0,1-.874-.874v-7.283a.874.874,0,0,1,.874-.874h3.69a1.669,1.669,0,0,1,1.667,1.484l.291,2.039,1.7.833a.848.848,0,0,1,.159.1,1.69,1.69,0,0,1,.638,1.316v2.378a.874.874,0,0,1-.874.874Z" transform="translate(-1010.176 -1013.259)" fill="#837af5"/>
        <path id="Ellipse_627" data-name="Ellipse 627" d="M1.926-.75A2.676,2.676,0,1,1-.75,1.926,2.676,2.676,0,0,1,1.926-.75Zm0,4.044A1.367,1.367,0,1,0,.561,1.926,1.367,1.367,0,0,0,1.926,3.294Z" transform="translate(14.314 9.467)" fill="#837af5"/>
        <path id="Ellipse_628" data-name="Ellipse 628" d="M1.926-.75A2.676,2.676,0,1,1-.75,1.926,2.676,2.676,0,0,1,1.926-.75Zm0,4.044A1.367,1.367,0,1,0,.561,1.926,1.367,1.367,0,0,0,1.926,3.294Z" transform="translate(2.99 9.467)" fill="#837af5"/>
      </g>
    </g>
  </g>
</svg>
