<svg xmlns="http://www.w3.org/2000/svg" class="block-icon" width="34.718" height="41.584" viewBox="0 0 34.718 41.584">
  <g id="Group_65434" data-name="Group 65434" transform="translate(-1825.972 -275.459)">
    <g id="Group_65432" data-name="Group 65432" transform="translate(-493.949 -366.128)">
      <g id="Group_65427" data-name="Group 65427" transform="translate(2320.925 659.341)">
        <path id="Path_10028" data-name="Path 10028" d="M2338.24,682.171v-22.83h8.178V682.17" transform="translate(-2313.704 -659.341)" fill="none" stroke="#b3b7c0" stroke-linecap="round" stroke-linejoin="round" stroke-miterlimit="10" stroke-width="2"/>
        <path id="Path_10029" data-name="Path 10029" d="M2332.47,680.923V665.74h8.178" transform="translate(-2316.11 -658.18)" fill="none" stroke="#b3b7c0" stroke-linecap="round" stroke-linejoin="round" stroke-miterlimit="10" stroke-width="2"/>
        <path id="Path_10030" data-name="Path 10030" d="M2334.87,670.777h-8.17v9.231" transform="translate(-2318.518 -657.266)" fill="none" stroke="#b3b7c0" stroke-linecap="round" stroke-linejoin="round" stroke-miterlimit="10" stroke-width="2"/>
        <path id="Path_10031" data-name="Path 10031" d="M2329.1,674.684h-8.179V679.3" transform="translate(-2320.925 -656.557)" fill="none" stroke="#b3b7c0" stroke-linecap="round" stroke-linejoin="round" stroke-miterlimit="10" stroke-width="2"/>
      </g>
    </g>
    <g id="Group_65433" data-name="Group 65433" transform="translate(-35.453 -21.815)">
      <path id="Path_9809" data-name="Path 9809" d="M7.288,10.274V6.194H10.5L5.247,0,0,6.194H3.208v4.08" transform="translate(1887.227 298.688) rotate(45)" fill="none" stroke="#837af5" stroke-linecap="round" stroke-linejoin="round" stroke-width="2"/>
      <path id="Path_10033" data-name="Path 10033" d="M24.19,16.63l-7.14,7.139-3.611-3.611L3.085,30.513,5.669,33.1,12.9,25.863l4.148,4.148,5.962-6.242" transform="translate(1859.344 290.283)" fill="none" stroke="#837af5" stroke-linecap="round" stroke-linejoin="round" stroke-width="2"/>
    </g>
  </g>
</svg>
