<?xml version="1.0" encoding="UTF-8"?>
<svg xmlns="http://www.w3.org/2000/svg" xmlns:xlink="http://www.w3.org/1999/xlink" width="19px" height="20px" viewBox="0 0 19 19" version="1.1">
<path style=" stroke:none;fill-rule:evenodd;fill:rgb(32.156864%,27.450982%,92.54902%);fill-opacity:1;" d="M 18.210938 0.0507812 C 18.164062 0.078125 18.023438 0.246094 17.890625 0.425781 C 17.757812 0.605469 17.40625 1.078125 17.113281 1.472656 C 16.699219 2.035156 16.292969 2.601562 15.894531 3.175781 C 15.664062 3.507812 15.433594 3.835938 15.207031 4.167969 C 15.203125 4.171875 15.089844 4.019531 14.960938 3.828125 C 14.648438 3.371094 14.359375 3.019531 14.015625 2.683594 C 13.703125 2.378906 13.496094 2.242188 13.152344 2.125 C 12.832031 2.011719 12.269531 2.003906 11.933594 2.109375 C 11.207031 2.328125 10.65625 2.960938 10.515625 3.726562 C 10.46875 3.996094 10.496094 4.453125 10.578125 4.757812 C 10.613281 4.882812 10.652344 5.050781 10.664062 5.128906 L 10.683594 5.269531 L 10.554688 5.320312 C 10.480469 5.347656 10.40625 5.371094 10.382812 5.371094 C 10.359375 5.371094 9.964844 4.828125 9.5 4.164062 C 8.8125 3.179688 8.605469 2.90625 8.359375 2.660156 C 7.972656 2.269531 7.605469 2.003906 7.167969 1.796875 C 6.484375 1.472656 6.121094 1.394531 5.324219 1.398438 C 4.808594 1.398438 4.714844 1.40625 4.410156 1.480469 C 3.640625 1.667969 3.019531 2 2.449219 2.53125 C 0.503906 4.34375 -0.371094 7.089844 0.164062 9.695312 C 0.761719 12.613281 3.003906 14.933594 5.988281 15.722656 C 7.117188 16.023438 8.351562 16.085938 9.46875 15.898438 C 9.652344 15.867188 9.808594 15.84375 9.8125 15.847656 C 9.816406 15.851562 9.835938 16.011719 9.855469 16.203125 C 9.9375 17.023438 9.804688 17.304688 9.230469 17.550781 C 8.820312 17.726562 8.792969 17.746094 8.699219 17.917969 C 8.558594 18.1875 8.59375 18.421875 8.800781 18.5625 C 8.914062 18.640625 9.316406 18.773438 9.675781 18.859375 C 9.886719 18.90625 10.050781 18.917969 10.597656 18.914062 C 11.191406 18.914062 11.296875 18.90625 11.527344 18.847656 C 12.132812 18.6875 12.667969 18.449219 13.078125 18.15625 C 13.582031 17.800781 14.128906 17.183594 14.394531 16.667969 C 14.832031 15.824219 14.851562 14.878906 14.449219 14.230469 L 14.339844 14.058594 L 14.550781 13.925781 C 14.976562 13.664062 15.492188 13.09375 15.910156 12.425781 C 17.097656 10.523438 18.171875 6.761719 18.859375 2.085938 C 19.09375 0.476562 19.101562 0.34375 18.933594 0.191406 C 18.746094 0.0195312 18.375 -0.0507812 18.210938 0.0507812 M 17.726562 2.675781 C 17.261719 5.648438 16.570312 8.425781 15.867188 10.1875 C 15.789062 10.382812 15.71875 10.566406 15.707031 10.59375 C 15.699219 10.625 15.675781 10.644531 15.65625 10.636719 C 15.464844 10.5625 13.296875 9.71875 13.296875 9.714844 C 13.277344 9.699219 13.722656 8.742188 13.980469 8.238281 C 14.613281 7.003906 15.359375 5.765625 16.371094 4.273438 C 16.972656 3.386719 17.746094 2.300781 17.777344 2.300781 C 17.78125 2.300781 17.761719 2.46875 17.726562 2.675781 M 6.039062 2.730469 C 6.550781 2.871094 7.011719 3.144531 7.375 3.519531 C 7.472656 3.621094 7.9375 4.253906 8.402344 4.929688 C 8.871094 5.601562 9.300781 6.199219 9.355469 6.253906 C 9.601562 6.503906 9.929688 6.628906 10.359375 6.628906 C 10.859375 6.628906 11.25 6.472656 11.589844 6.144531 C 11.695312 6.039062 11.824219 5.875 11.875 5.777344 C 11.960938 5.609375 11.964844 5.578125 11.964844 5.171875 C 11.964844 4.785156 11.953125 4.710938 11.875 4.453125 C 11.800781 4.222656 11.785156 4.125 11.800781 3.984375 C 11.84375 3.507812 12.28125 3.183594 12.699219 3.3125 C 13.023438 3.417969 13.773438 4.328125 14.1875 5.125 L 14.371094 5.476562 L 13.96875 6.152344 C 13.535156 6.882812 12.820312 8.238281 12.570312 8.804688 C 11.761719 10.652344 11.5 12.027344 11.777344 12.976562 C 11.804688 13.066406 11.820312 13.144531 11.8125 13.152344 C 11.804688 13.160156 11.714844 13.183594 11.613281 13.210938 C 11.507812 13.234375 11.304688 13.3125 11.15625 13.382812 C 10.941406 13.484375 10.832031 13.5625 10.613281 13.773438 C 10.460938 13.921875 10.292969 14.121094 10.230469 14.226562 L 10.121094 14.417969 L 9.882812 14.480469 C 9.304688 14.632812 8.917969 14.675781 8.152344 14.679688 C 7.351562 14.683594 7.03125 14.648438 6.371094 14.480469 C 4.789062 14.085938 3.355469 13.097656 2.445312 11.765625 C 1.785156 10.792969 1.421875 9.753906 1.335938 8.566406 C 1.207031 6.773438 1.84375 5.007812 3.101562 3.679688 C 3.40625 3.359375 3.65625 3.15625 3.929688 3.007812 C 4.203125 2.855469 4.613281 2.714844 4.902344 2.671875 C 5.210938 2.625 5.761719 2.65625 6.039062 2.730469 M 4.914062 4.339844 C 4.5625 4.480469 4.390625 4.640625 4.234375 4.964844 C 4.160156 5.117188 4.148438 5.179688 4.148438 5.429688 C 4.148438 5.828125 4.230469 6.023438 4.492188 6.277344 C 4.757812 6.53125 4.960938 6.609375 5.371094 6.609375 C 5.644531 6.613281 5.691406 6.601562 5.886719 6.515625 C 6.265625 6.339844 6.519531 6.015625 6.570312 5.625 C 6.648438 5.078125 6.378906 4.585938 5.878906 4.363281 C 5.738281 4.296875 5.644531 4.28125 5.402344 4.273438 C 5.140625 4.265625 5.078125 4.273438 4.914062 4.339844 M 3.84375 7.75 C 3.554688 7.851562 3.332031 8.046875 3.226562 8.296875 C 2.996094 8.824219 3.222656 9.394531 3.75 9.628906 C 3.984375 9.734375 4.359375 9.742188 4.582031 9.644531 C 4.949219 9.484375 5.179688 9.160156 5.207031 8.773438 C 5.222656 8.484375 5.167969 8.304688 4.996094 8.085938 C 4.75 7.773438 4.222656 7.621094 3.84375 7.75 M 5.355469 10.640625 C 5.039062 10.746094 4.847656 10.945312 4.75 11.273438 C 4.652344 11.605469 4.765625 11.976562 5.039062 12.207031 C 5.640625 12.71875 6.589844 12.296875 6.589844 11.523438 C 6.589844 11.234375 6.496094 11.03125 6.277344 10.835938 C 6.007812 10.597656 5.683594 10.53125 5.355469 10.640625 M 15.230469 11.566406 C 15.214844 11.636719 14.832031 12.226562 14.667969 12.4375 C 14.097656 13.167969 13.417969 13.492188 13.0625 13.203125 C 12.945312 13.113281 12.800781 12.84375 12.746094 12.628906 C 12.699219 12.445312 12.699219 11.828125 12.746094 11.546875 C 12.78125 11.320312 12.925781 10.71875 12.949219 10.679688 C 12.972656 10.644531 15.238281 11.527344 15.230469 11.566406 M 12.820312 14.300781 C 13.503906 14.503906 13.78125 15.105469 13.53125 15.84375 C 13.230469 16.734375 12.410156 17.472656 11.425781 17.75 C 11.148438 17.828125 10.644531 17.890625 10.644531 17.847656 C 10.644531 17.835938 10.679688 17.773438 10.722656 17.710938 C 10.851562 17.523438 10.964844 17.140625 10.988281 16.839844 C 10.996094 16.6875 10.988281 16.320312 10.964844 16.023438 C 10.925781 15.523438 10.929688 15.464844 10.980469 15.28125 C 11.148438 14.6875 11.519531 14.3125 12.007812 14.238281 C 12.246094 14.203125 12.578125 14.226562 12.820312 14.300781 "/>
</svg>
