<svg xmlns="http://www.w3.org/2000/svg" class="block-icon" width="31.509" height="39.425" viewBox="0 0 31.509 39.425">
  <g id="Group_72076" data-name="Group 72076" transform="translate(0.005 0)">
    <g id="Group_71963" data-name="Group 71963">
      <g id="Group_71958" data-name="Group 71958">
        <path id="Path_9981" data-name="Path 9981" d="M1689.87,202.42h-7.3a1.081,1.081,0,0,1-.764-1.846l8.757-8.757a1.081,1.081,0,0,1,1.846.764v7.293A2.543,2.543,0,0,1,1689.87,202.42Zm-4.684-2.158h4.684a.378.378,0,0,0,.377-.377V195.2Z" transform="translate(-1681.492 -191.5)" fill="#b3b7c0"/>
        <path id="Path_9982" data-name="Path 9982" d="M1694.84,225.13h-7.719a5.8,5.8,0,0,1-5.629-5.941l-.005-23.429a1.081,1.081,0,0,1,2.158,0l.005,23.431a3.637,3.637,0,0,0,3.466,3.784h7.716a1.081,1.081,0,1,1,0,2.158Z" transform="translate(-1681.492 -185.71)" fill="#b3b7c0"/>
        <path id="Path_9983" data-name="Path 9983" d="M1708,205a1.081,1.081,0,0,1-1.081-1.081V197.44a3.784,3.784,0,0,0-3.779-3.779h-14.974a1.081,1.081,0,1,1,0-2.158h14.974a5.946,5.946,0,0,1,5.941,5.941v6.479A1.081,1.081,0,0,1,1708,205Z" transform="translate(-1678.107 -191.5)" fill="#b3b7c0"/>
      </g>
      <g id="Group_72095" data-name="Group 72095" transform="translate(14.418 15.067)">
        <g id="Group_72010" data-name="Group 72010">
          <path id="Path_10140" data-name="Path 10140" d="M768.149,910.356a2.449,2.449,0,0,1-1.36-.413l-.672-.447a1.027,1.027,0,0,0-1.139,0l-.672.447a2.448,2.448,0,0,1-2.721,0l-1.639-1.093.79-1.185,1.639,1.093a1.027,1.027,0,0,0,1.139,0l.671-.447a2.448,2.448,0,0,1,2.721,0l.672.447a1.027,1.027,0,0,0,1.139,0l.671-.447a2.448,2.448,0,0,1,2.721,0l.672.447a1.027,1.027,0,0,0,1.139,0l1.639-1.093.79,1.185-1.639,1.093a2.448,2.448,0,0,1-2.721,0l-.672-.447a1.027,1.027,0,0,0-1.139,0l-.671.447A2.452,2.452,0,0,1,768.149,910.356Z" transform="translate(-759.628 -907.547)" fill="#837af5"/>
          <path id="Path_10141" data-name="Path 10141" d="M760.736,931.592l-.79-1.185,1.639-1.093a2.448,2.448,0,0,1,2.721,0l.672.447a1.027,1.027,0,0,0,1.139,0l.672-.447a2.448,2.448,0,0,1,2.721,0l.672.447a1.027,1.027,0,0,0,1.139,0l.672-.447a2.448,2.448,0,0,1,2.721,0l1.639,1.093-.79,1.185-1.639-1.093a1.027,1.027,0,0,0-1.139,0l-.671.447a2.448,2.448,0,0,1-2.721,0l-.672-.447a1.027,1.027,0,0,0-1.139,0l-.672.447a2.448,2.448,0,0,1-2.721,0l-.672-.447a1.028,1.028,0,0,0-1.139,0Z" transform="translate(-759.629 -910.332)" fill="#837af5"/>
          <path id="Line_85" data-name="Line 85" d="M-.288,20.357A.712.712,0,0,1-1,19.645V-.289A.712.712,0,0,1-.288-1a.712.712,0,0,1,.712.712V19.645a.712.712,0,0,1-.712.712Z" transform="translate(1 1)" fill="#837af5"/>
          <path id="Line_86" data-name="Line 86" d="M-.288,20.357A.712.712,0,0,1-1,19.645V-.289A.712.712,0,0,1-.288-1a.712.712,0,0,1,.712.712V19.645a.712.712,0,0,1-.712.712Z" transform="translate(16.662 1)" fill="#837af5"/>
        </g>
        <g id="Group_65401" data-name="Group 65401" transform="translate(5.993 5.275)">
          <path id="Path_10019" data-name="Path 10019" d="M1506.84,1089.71a2.548,2.548,0,0,1-2.548-2.548.712.712,0,0,1,.712-.712h0a.712.712,0,0,1,.712.712,1.125,1.125,0,1,0,2.25,0c0-.381-.1-.756-1.345-1.16a4.355,4.355,0,0,1-1.526-.8,2.224,2.224,0,0,1-.8-1.72,2.55,2.55,0,1,1,5.1,0,.712.712,0,1,1-1.424,0,1.125,1.125,0,0,0-2.25,0c0,.214,0,.721,1.346,1.16a4.274,4.274,0,0,1,1.577.816,2.187,2.187,0,0,1,.75,1.7,2.552,2.552,0,0,1-2.549,2.548Z" transform="translate(-1504.287 -1079.911)" fill="#837af5"/>
          <path id="Line_919" data-name="Line 919" d="M-.288,1.46A.712.712,0,0,1-1,.748V-.289A.712.712,0,0,1-.288-1a.712.712,0,0,1,.712.712V.748a.712.712,0,0,1-.208.5.712.712,0,0,1-.5.208Z" transform="translate(2.842 1)" fill="#837af5"/>
          <path id="Line_920" data-name="Line 920" d="M-.288,1.46A.712.712,0,0,1-1,.748V-.289A.712.712,0,0,1-.288-1a.712.712,0,0,1,.712.712V.748a.712.712,0,0,1-.208.5.712.712,0,0,1-.5.208Z" transform="translate(2.842 9.371)" fill="#837af5"/>
        </g>
      </g>
    </g>
  </g>
</svg>
