<svg xmlns="http://www.w3.org/2000/svg" class="block-icon" width="26.218" height="38.378" viewBox="0 0 26.218 38.378">
  <g id="Up-Sell" transform="translate(15.688 0)">
    <g id="Group_72094" data-name="Group 72094" transform="translate(-15.684)">
      <g id="Group_72008" data-name="Group 72008" transform="translate(22.201 38.378) rotate(180)">
        <path id="Path_10112" data-name="Path 10112" d="M8.054,5.97a.942.942,0,0,0-1.329-.064L5.253,7.246C4.96,3.516,3.639,1.368,2.013,0c-.291.129-.581.248-.855.362C.762.524.374.689,0,.861c1.689,1.061,3.04,2.77,3.358,6.3L2.033,5.975a.942.942,0,0,0-1.258,1.4l2.956,2.646c.015.013.031.022.045.034a.722.722,0,0,0,.069.051.775.775,0,0,0,.086.047c.024.012.047.025.073.035s.064.022.1.033a.689.689,0,0,0,.072.02.962.962,0,0,0,.121.015c.015,0,.031.005.047.006H4.37a.889.889,0,0,0,.172-.017.283.283,0,0,0,.069-.019.987.987,0,0,0,.1-.031.78.78,0,0,0,.071-.035c.023-.012.058-.028.086-.045a.5.5,0,0,0,.069-.053c.022-.018.04-.028.059-.044L8,7.3a.942.942,0,0,0,.063-1.33Z" transform="translate(9.888 6.872)" fill="#837af5"/>
        <path id="Path_10113" data-name="Path 10113" d="M5.608,4.586C3.16,3.659,1.883,3.072,1.883.914A.942.942,0,0,0,0,.914C0,3.862,1.8,5.053,3.732,5.869a10.856,10.856,0,0,1,1.93-1.262Z" transform="translate(1.995 0.028)" fill="#837af5"/>
        <path id="Path_10114" data-name="Path 10114" d="M14.307,0a.941.941,0,0,0-.941.941c0,2.184-1.1,2.736-3.4,3.682-.361.149-.738.3-1.119.478A11.784,11.784,0,0,0,6.733,6.3C4.92,7.622,3.346,9.82,3.043,14.116L1.574,12.778a.919.919,0,0,0-.149-.109c-.017-.011-.036-.017-.054-.028a1.009,1.009,0,0,0-.108-.05c-.023-.009-.047-.013-.071-.02a.991.991,0,0,0-.1-.025.291.291,0,0,1-.077-.007.855.855,0,0,0-.1,0,1.082,1.082,0,0,0-.108.011.383.383,0,0,0-.077.011.954.954,0,0,0-.107.034.375.375,0,0,0-.071.025.893.893,0,0,0-.108.061c-.02.012-.04.021-.058.034a1,1,0,0,0-.146.13A.941.941,0,0,0,.3,14.174l3,2.717a.587.587,0,0,0,.059.044c.02.015.045.036.069.053a.909.909,0,0,0,.086.045.781.781,0,0,0,.071.035.986.986,0,0,0,.1.031.694.694,0,0,0,.069.019.977.977,0,0,0,.172.017h.03L4,17.129a.959.959,0,0,0,.121-.015.257.257,0,0,0,.072-.02c.023-.007.065-.02.1-.033a.652.652,0,0,0,.073-.035.879.879,0,0,0,.086-.047.748.748,0,0,0,.069-.051c.015-.012.031-.021.045-.034l2.956-2.646a.939.939,0,0,0-.073-1.464c-.017-.013-.037-.022-.055-.034a.931.931,0,0,0-.109-.063c-.023-.01-.047-.017-.07-.025a.931.931,0,0,0-.109-.035.721.721,0,0,0-.077-.012,1,1,0,0,0-.2-.011.712.712,0,0,0-.075.007,1.017,1.017,0,0,0-.1.024l-.068.018a1.014,1.014,0,0,0-.11.05c-.017.009-.035.015-.052.025a.9.9,0,0,0-.149.108l-1.34,1.2c.331-4.208,2-5.84,3.95-6.863.586-.308,1.2-.563,1.808-.814l.338-.14C13.077,5.365,15.25,4.292,15.25.937A.947.947,0,0,0,14.307,0Z" fill="#837af5"/>
      </g>
      <g id="Group_72009" data-name="Group 72009">
        <path id="Path_10138" data-name="Path 10138" d="M787.317,876.178a.861.861,0,0,1-.861-.861v-5.478a4.617,4.617,0,0,0-9.234,0v5.478a.861.861,0,0,1-1.722,0v-5.478a6.339,6.339,0,0,1,12.678,0v5.478a.861.861,0,0,1-.861.861Z" transform="translate(-768.731 -863.5)" fill="#b3b7c0"/>
        <path id="Path_10139" data-name="Path 10139" d="M794.543,894.012h-2.976a.861.861,0,0,1,0-1.722h2.976a.508.508,0,0,0,.505-.541L793.831,870.7a.508.508,0,0,0-.5-.478H774a.507.507,0,0,0-.507.479l-1.218,21.053a.508.508,0,0,0,.507.536H775.4a.861.861,0,0,1,0,1.722h-2.617a2.23,2.23,0,0,1-2.227-2.355l1.218-21.052A2.229,2.229,0,0,1,774,868.5h19.322a2.229,2.229,0,0,1,2.227,2.107l1.218,21.048a2.23,2.23,0,0,1-2.227,2.357Z" transform="translate(-770.557 -861.653)" fill="#b3b7c0"/>
      </g>
    </g>
  </g>
</svg>
