<svg xmlns="http://www.w3.org/2000/svg" class="block-icon" width="30.836" height="38.059" viewBox="0 0 30.836 38.059">
  <g id="Wishlist" transform="translate(-0.001 -0.001)">
    <g id="Group_72104" data-name="Group 72104">
      <g id="Group_72028" data-name="Group 72028">
        <path id="Path_10138" data-name="Path 10138" d="M789.4,878.412a1.013,1.013,0,0,1-1.013-1.013v-6.443a5.431,5.431,0,0,0-10.862,0V877.4a1.013,1.013,0,0,1-2.026,0v-6.443a7.456,7.456,0,0,1,14.912,0V877.4A1.013,1.013,0,0,1,789.4,878.412Z" transform="translate(-767.535 -863.5)" fill="#b3b7c0"/>
        <path id="Path_10139" data-name="Path 10139" d="M798.768,898.506H773.177a2.623,2.623,0,0,1-2.619-2.77l1.432-24.762a2.622,2.622,0,0,1,2.619-2.476h22.726a2.622,2.622,0,0,1,2.619,2.478l1.432,24.757a2.623,2.623,0,0,1-2.619,2.772Zm-24.157-27.985a.6.6,0,0,0-.6.563l-1.432,24.763a.6.6,0,0,0,.6.63h25.589a.6.6,0,0,0,.594-.636l-1.432-24.757a.6.6,0,0,0-.593-.562Z" transform="translate(-770.553 -860.446)" fill="#b3b7c0"/>
      </g>
    </g>
    <g id="Group_72169" data-name="Group 72169" transform="translate(7.482 18.032)">
      <g id="Group_72168" data-name="Group 72168">
        <path id="Path_10208" data-name="Path 10208" d="M400.1,1964.61c-.063,0-.388.864-.437.824-.266-.214-6.527-5.263-7.464-8.252a5.065,5.065,0,0,1,.365-4.249,3.612,3.612,0,0,1,2.744-1.754,5.068,5.068,0,0,1,4.529,2.006h0a5.071,5.071,0,0,1,4.527-2,3.608,3.608,0,0,1,2.744,1.754,5.07,5.07,0,0,1,.361,4.264c-.933,2.974-7.193,8.024-7.459,8.238-.05.04.152-.824.088-.826Zm-4.23-12.906a4.027,4.027,0,0,0-.5.03,3.071,3.071,0,0,0-2.334,1.49,4.557,4.557,0,0,0-.314,3.777c.807,2.576,6.077,7.007,7.11,7.855,1.033-.85,6.3-5.278,7.106-7.841a4.564,4.564,0,0,0-.31-3.789,3.07,3.07,0,0,0-2.334-1.49,4.709,4.709,0,0,0-4.225,2.073.279.279,0,0,1-.236.129h0a.278.278,0,0,1-.235-.129,4.844,4.844,0,0,0-3.73-2.109Z" transform="translate(-391.898 -1951.158)" fill="#837af5" stroke="#837af5" stroke-width="1.5"/>
      </g>
    </g>
  </g>
</svg>
