<svg id="sp-addtocart-icon" xmlns="http://www.w3.org/2000/svg" width="11.678" height="14" viewBox="0 0 11.678 14"><path id="Path_22652" data-name="Path 22652" d="M583.353-21637c-4.408,0-4.883,0-4.977-.031a1.223,1.223,0,0,1-.739-.613c-.148-.3-.139.055-.139-4.855,0-4.293,0-4.418.04-4.559a1.284,1.284,0,0,1,.1-.266,1.461,1.461,0,0,1,.515-.512c.242-.125.287-.129,1.241-.129h.847l.013-.047a.747.747,0,0,0,.013-.125,2.9,2.9,0,0,1,.179-.844,3.1,3.1,0,0,1,2.576-2,3,3,0,0,1,1.693.313,3.059,3.059,0,0,1,1.554,1.793,3.38,3.38,0,0,1,.152.8v.113l.909,0c.891,0,.914,0,1.03.055a1.255,1.255,0,0,1,.762.77l.054.156v9l-.054.156a1.224,1.224,0,0,1-.766.777l-.134.051Zm-4.793-10.113a.393.393,0,0,0-.2.188c-.027.055-.031.531-.027,4.445,0,4.316,0,4.395.04,4.469a.393.393,0,0,0,.251.191c.067.016,1.393.023,4.766.016l4.672,0,.085-.043a.372.372,0,0,0,.139-.137l.058-.094v-4.387c0-4.277,0-4.395-.036-4.461a.394.394,0,0,0-.2-.191c-.063-.023-.573-.023-4.771-.023C578.8-21647.145,578.637-21647.145,578.56-21647.113Zm4.264-3.008a2.457,2.457,0,0,0-.623.25,2.307,2.307,0,0,0-1.008,1.25,2.5,2.5,0,0,0-.112.582v.074h4.524l-.013-.074c0-.039-.013-.125-.018-.2a2.274,2.274,0,0,0-.376-.969,2.746,2.746,0,0,0-.587-.582,2.242,2.242,0,0,0-1.026-.371c-.085-.012-.179-.016-.206-.02-.01,0-.023,0-.039,0A3.543,3.543,0,0,0,582.825-21650.121Zm.036,10.645v-2.473h-2.477v-.824h2.477v-2.473h.824v2.473h2.473v.824h-2.473v2.473Z" transform="translate(-577.499 21651)" /></svg>
