<svg height="24" viewBox="0 0 24 24" width="24" xmlns="http://www.w3.org/2000/svg" xmlns:xlink="http://www.w3.org/1999/xlink"><defs><clipPath id="clip-path-cart"><rect data-name="Rectangle 10" fill="#77828e" height="24" id="Rectangle_10" stroke="#707070" stroke-width="1" transform="translate(681 656)" width="24" /></clipPath></defs><g clip-path="url(#clip-path-cart)" id="sp-mobp-cart-i" transform="translate(-681 -656)"><path d="M619.6-4370.857a2.434,2.434,0,0,1,2.41-2.432,2.449,2.449,0,0,1,2.409,2.432,2.434,2.434,0,0,1-2.409,2.43A2.434,2.434,0,0,1,619.6-4370.857Zm1.459,0a.944.944,0,0,0,.951.957.974.974,0,0,0,.949-.957.944.944,0,0,0-.949-.959A.944.944,0,0,0,621.06-4370.857Zm-9.427,0a2.434,2.434,0,0,1,2.41-2.432,2.434,2.434,0,0,1,2.409,2.432,2.434,2.434,0,0,1-2.409,2.43A2.434,2.434,0,0,1,611.633-4370.857Zm1.459,0a.944.944,0,0,0,.951.957.974.974,0,0,0,.949-.957.944.944,0,0,0-.949-.959A.944.944,0,0,0,613.092-4370.857Zm-.758-3.367a2.23,2.23,0,0,1-2.154-1.7l-2.826-11.359a.768.768,0,0,0-.742-.584h-2.363a.724.724,0,0,1-.718-.724.725.725,0,0,1,.718-.724h2.363a2.23,2.23,0,0,1,2.154,1.706l.44,1.729h14.106a2.218,2.218,0,0,1,1.737.863,2.16,2.16,0,0,1,.417,1.894l-1.737,7.2a2.211,2.211,0,0,1-2.154,1.7Zm-.742-2.033a.767.767,0,0,0,.741.585h9.243a.766.766,0,0,0,.741-.585l1.738-7.2h0a.739.739,0,0,0-.139-.655.766.766,0,0,0-.6-.3H609.577Z" fill="#77828e" id="cart" transform="translate(78.469 5046.619)"/></g></svg>
