<svg xmlns="http://www.w3.org/2000/svg" width="15" height="15" viewBox="0 0 15 15"><path id="sp-wishlist-date-icon" d="M19.42,28.3H28.18a3.146,3.146,0,0,0,3.12-3.153V17.918a3.146,3.146,0,0,0-3.12-3.153H27.6V13.75a.446.446,0,1,0-.892,0v1.014H20.891V13.75a.446.446,0,1,0-.892,0v1.014H19.42a3.146,3.146,0,0,0-3.12,3.153v7.206A3.151,3.151,0,0,0,19.42,28.3Zm0-12.635H20v1.464a.446.446,0,1,0,.892,0V15.665h5.84v1.464a.446.446,0,1,0,.892,0V15.665H28.2a2.247,2.247,0,0,1,2.229,2.252v1.149H17.192V17.918A2.247,2.247,0,0,1,19.42,15.665Zm-2.229,4.3H30.408v5.157a2.247,2.247,0,0,1-2.229,2.252H19.42a2.247,2.247,0,0,1-2.229-2.252Z" transform="translate(-16.3 -13.3)" fill="#80868d"/></svg>
