<svg xmlns="http://www.w3.org/2000/svg" width="18" height="17" viewBox="0 0 18 17">
	<path id="heart"
		d="M9,17a.5.5,0,0,1-.332-.126L5.585,14.132l-.049-.045C4.167,12.829,0,9,0,5.147A5.193,5.193,0,0,1,5.225,0,4.343,4.343,0,0,1,9,1.739,4.352,4.352,0,0,1,12.775,0,5.193,5.193,0,0,1,18,5.147c0,3.867-4.165,7.694-5.534,8.951l-.037.034-3.1,2.743A.5.5,0,0,1,9,17ZM5.143,1.471A3.723,3.723,0,0,0,1.566,5.147c0,2.951,3.83,6.724,5.089,7.964C6.872,13.326,8.912,15.224,9,15.3c.013-.01,2.212-2.031,2.375-2.193l.075-.075c1.373-1.37,5.021-5.01,5.021-7.889a3.7,3.7,0,0,0-3.617-3.676,4.029,4.029,0,0,0-2.767,1.075L9.011,3.632l-1.1-1.085A4.009,4.009,0,0,0,5.143,1.471Z"/>
</svg>
