<svg xmlns="http://www.w3.org/2000/svg" xmlns:xlink="http://www.w3.org/1999/xlink" width="24" height="24" viewBox="0 0 24 24">
  <defs>
    <clipPath id="mobp-cart">
      <rect id="rectangle" width="24" height="24" transform="translate(229 69)" fill="#fff"/>
    </clipPath>
  </defs>
  <g id="sp-mobp-cart-i" transform="translate(-229 -69)" clip-path="url(#mobp-cart)">
    <path id="sp-mobp-cart-i-2" data-name="sp-mobp-cart-i" d="M0,.465V.93L1.319.942c1.254.011,1.327.016,1.491.092a1.236,1.236,0,0,1,.574.55c.076.158.27,1.191,1.068,5.711.536,3.035,1,5.628,1.033,5.762a3.8,3.8,0,0,0,.607,1.2,3.206,3.206,0,0,0,1.716,1.083l.329.087h4.826a48.379,48.379,0,0,0,5.117-.065,3.243,3.243,0,0,0,1.554-.827,2.978,2.978,0,0,0,.844-1.371c.053-.175.51-2.288,1.016-4.695s.929-4.415.94-4.462l.021-.084-8.821-.009L4.812,3.91,4.617,2.779C4.509,2.157,4.385,1.538,4.34,1.4A2.118,2.118,0,0,0,3.766.541a2.453,2.453,0,0,0-1.035-.5C2.6.018,1.928,0,1.244,0H0V.465M21.287,4.9c0,.069-1.269,5.988-1.292,6.024s-2.634.036-6.975.036H6.067l-.022-.1C5.982,10.55,5.013,4.985,5.013,4.93s.374-.066,8.137-.066c5.544,0,8.137.012,8.137.038m-1.5,7.049A7.581,7.581,0,0,1,19.566,13a2.317,2.317,0,0,1-1.2,1.3c-.424.193-.241.187-5.38.181-5.249-.007-4.959.006-5.462-.239a2.556,2.556,0,0,1-.987-1,3.718,3.718,0,0,1-.3-1.225L6.207,11.9H13c5.906,0,6.792.007,6.792.054m-12.9,5.161a2.647,2.647,0,0,0-1.429,1.044,2.711,2.711,0,0,0-.251.531,1.821,1.821,0,0,0-.1.73,1.818,1.818,0,0,0,.1.729,2.318,2.318,0,0,0,.661,1,2.363,2.363,0,1,0,2.4-3.966,1.747,1.747,0,0,0-.718-.108,2.8,2.8,0,0,0-.665.038m10.026,0a2.3,2.3,0,0,0-1.056.615,2.375,2.375,0,0,0-.186,3.165,2.351,2.351,0,0,0,3.5.186,2.156,2.156,0,0,0,.685-1.755,1.991,1.991,0,0,0-.115-.693,2.413,2.413,0,0,0-1.568-1.485,2.933,2.933,0,0,0-1.257-.033M8.09,18.137a1.561,1.561,0,0,1,.695.71,1.045,1.045,0,0,1,.1.57,1,1,0,0,1-.122.6A1.413,1.413,0,0,1,6.1,19.159a1.253,1.253,0,0,1,.367-.724,1.259,1.259,0,0,1,1.059-.428,1.085,1.085,0,0,1,.566.13m10.026.015a1.561,1.561,0,0,1,.686.685.983.983,0,0,1,.109.58A1.089,1.089,0,0,1,18.8,20a1.706,1.706,0,0,1-.7.713,1.418,1.418,0,0,1-1.885-.7,1.027,1.027,0,0,1-.114-.58,1.051,1.051,0,0,1,.1-.555,1.407,1.407,0,0,1,.769-.76,1.067,1.067,0,0,1,.567-.079,1.184,1.184,0,0,1,.57.111" transform="translate(230 71)" fill-rule="evenodd"/>
  </g>
</svg>
