<svg xmlns="http://www.w3.org/2000/svg" xmlns:xlink="http://www.w3.org/1999/xlink" width="24" height="24" viewBox="0 0 24 24">
  <defs>
    <clipPath id="clip-path">
      <rect id="rectangle" width="24" height="24" transform="translate(374 69)" fill="#fff"/>
    </clipPath>
  </defs>
  <g id="sp-mobp-categories-i" transform="translate(-374 -69)" clip-path="url(#clip-path)">
    <path id="sp-mobp-categories-i-2" data-name="sp-mobp-categories-i" d="M-7178-6290.955a1.987,1.987,0,0,1,1.985-1.984,1.989,1.989,0,0,1,1.986,1.984,1.988,1.988,0,0,1-1.986,1.988A1.988,1.988,0,0,1-7178-6290.955Zm.826,0a1.161,1.161,0,0,0,1.159,1.165,1.164,1.164,0,0,0,1.162-1.165,1.164,1.164,0,0,0-1.162-1.16A1.159,1.159,0,0,0-7177.173-6290.955Zm6.038.415a.413.413,0,0,1-.412-.412.412.412,0,0,1,.412-.412h14.723a.413.413,0,0,1,.413.412.412.412,0,0,1-.413.412Zm-6.864-8.53a1.988,1.988,0,0,1,1.985-1.986,1.99,1.99,0,0,1,1.986,1.986,1.987,1.987,0,0,1-1.986,1.983A1.987,1.987,0,0,1-7178-6299.07Zm.826,0a1.16,1.16,0,0,0,1.159,1.16,1.163,1.163,0,0,0,1.162-1.16,1.164,1.164,0,0,0-1.162-1.162A1.161,1.161,0,0,0-7177.173-6299.07Zm6.038.412a.412.412,0,0,1-.412-.412.412.412,0,0,1,.412-.412h14.723a.412.412,0,0,1,.413.412.412.412,0,0,1-.413.412Zm-6.864-8.532a1.988,1.988,0,0,1,1.985-1.986,1.986,1.986,0,0,1,1.984,1.986,1.99,1.99,0,0,1-1.986,1.988A1.989,1.989,0,0,1-7178-6307.19Zm.826,0a1.161,1.161,0,0,0,1.159,1.165,1.164,1.164,0,0,0,1.162-1.165,1.164,1.164,0,0,0-1.162-1.162A1.161,1.161,0,0,0-7177.173-6307.19Zm6.038.414a.412.412,0,0,1-.412-.412.412.412,0,0,1,.412-.412h14.723a.41.41,0,0,1,.413.412.412.412,0,0,1-.413.412Z" transform="translate(7553 6380.176)"/>
  </g>
</svg>
