<svg xmlns="http://www.w3.org/2000/svg" xmlns:xlink="http://www.w3.org/1999/xlink" width="24" height="24" viewBox="0 0 24 24">
  <defs>
    <clipPath id="clip-path">
      <rect id="rectangle" width="24" height="24" transform="translate(307 69)" fill="#fff"/>
    </clipPath>
  </defs>
  <g id="sp-mobp-home-i" transform="translate(-307 -69)" clip-path="url(#clip-path)">
    <path id="sp-mobp-home-i-2" data-name="sp-mobp-home-i" d="M10.17.061c-.066.034-2.36,1.8-5.1,3.916C1.135,7.026.085,7.855.047,7.945S0,9.175,0,14.859c0,7.426-.014,6.907.195,7.071C.286,22,.288,22,3.836,22a21.8,21.8,0,0,0,3.621-.061c.18-.152.17-.008.191-2.755a13.96,13.96,0,0,1,.093-2.827A2.765,2.765,0,0,1,9.847,14.37a3.378,3.378,0,0,1,1.241.037,2.784,2.784,0,0,1,1.788,1.545c.224.535.213.391.234,3.226l.019,2.589.129.119.129.118H20.5l.12-.123.119-.124V7.924l-.1-.1C20.5,7.688,10.7.1,10.586.045a.457.457,0,0,0-.416.016m4.96,4.677,4.694,3.638V21.1H14.046V18.95c0-2.36-.007-2.461-.207-3.051a3.581,3.581,0,0,0-.944-1.46,3.654,3.654,0,0,0-5.034,0,3.581,3.581,0,0,0-.944,1.46c-.2.591-.207.692-.207,3.051V21.1H.934V8.376L5.646,4.723c2.592-2.009,4.73-3.646,4.751-3.637s2.151,1.651,4.732,3.652" transform="translate(309 69.998)" fill-rule="evenodd"/>
  </g>
</svg>
