<svg xmlns="http://www.w3.org/2000/svg" xmlns:xlink="http://www.w3.org/1999/xlink" width="24" height="24" viewBox="0 0 24 24">
  <defs>
    <clipPath id="mobp-wishlist">
      <rect id="rectangle" width="24" height="24" transform="translate(270 71)" fill="#fff"/>
    </clipPath>
  </defs>
  <g id="sp-mobp-wishlist-i" transform="translate(-270 -71)" clip-path="url(#mobp-wishlist)">
    <path id="sp-mobp-wishlist-i-2" data-name="sp-mobp-wishlist-i" d="M13.5,27.376a.48.48,0,0,1-.34-.141L4.3,18.38a6.165,6.165,0,0,1,8.72-8.718l.479.479.48-.479A6.165,6.165,0,0,1,22.7,18.38h0l-.821.819L13.84,27.235A.481.481,0,0,1,13.5,27.376ZM8.66,8.821A5.2,5.2,0,0,0,4.982,17.7L13.5,26.214,22.017,17.7a5.2,5.2,0,0,0-7.356-7.355l-.822.82a.482.482,0,0,1-.681,0l-.819-.819A5.169,5.169,0,0,0,8.66,8.821Zm13.7,9.219h0Z" transform="translate(268.5 65.142)"/>
  </g>
</svg>
