<svg xmlns="http://www.w3.org/2000/svg" xmlns:xlink="http://www.w3.org/1999/xlink" width="24" height="24" viewBox="0 0 24 24">
  <defs>
    <clipPath id="mobp-shop">
      <rect id="rectangle" width="24" height="24" transform="translate(335 69)" fill="#fff"/>
    </clipPath>
  </defs>
  <g id="sp-mobp-shop-i" transform="translate(-335 -69)" clip-path="url(#mobp-shop)">
    <path id="sp-mobp-shop-i-2" data-name="sp-mobp-shop-i" d="M43.834,30.8h0l-1.158-7.295a.376.376,0,0,0-.386-.309H40.978V21.386A.365.365,0,0,0,40.592,21H26.658a.365.365,0,0,0-.386.386v1.775H24.96a.416.416,0,0,0-.386.309l-1.158,7.295a3.868,3.868,0,0,0,.888,3.126,3.56,3.56,0,0,0,1,.849v7.874a.365.365,0,0,0,.386.386H41.518a.365.365,0,0,0,.386-.386V34.74a3.56,3.56,0,0,0,1-.849A3.645,3.645,0,0,0,43.834,30.8ZM27.044,21.772H40.206v1.389H27.044ZM41.171,42.228H26.118v-7.14a4.042,4.042,0,0,0,1.158.193,3.9,3.9,0,0,0,3.358-1.968,3.286,3.286,0,0,0,6.021,0,3.9,3.9,0,0,0,3.358,1.968,3.832,3.832,0,0,0,1.158-.193Zm1.2-8.8a3.093,3.093,0,0,1-5.442-2.007.386.386,0,1,0-.772,0v.618a2.509,2.509,0,0,1-5.018,0v-.618a.386.386,0,1,0-.772,0,3.089,3.089,0,1,1-6.137-.5l1.119-6.986H41.981L43.1,30.919A3.294,3.294,0,0,1,42.367,33.428Zm-4.94,4.207v4.593h-.772V38.021H30.634v4.207h-.772V37.635a.365.365,0,0,1,.386-.386H37A.4.4,0,0,1,37.427,37.635Z" transform="translate(313.636 49)"/>
  </g>
</svg>
