<svg xmlns="http://www.w3.org/2000/svg" xmlns:xlink="http://www.w3.org/1999/xlink" width="24" height="24" viewBox="0 0 24 24">
  <defs>
    <clipPath id="mobp-account">
      <rect id="rectangle" width="24" height="24" transform="translate(149 68)" fill="#fff"/>
    </clipPath>
  </defs>
  <g id="sp-mobp-account-i" transform="translate(-149 -68)" clip-path="url(#mobp-account)">
    <path id="sp-mobp-account-i-2" data-name="sp-mobp-account-i" d="M10.576.023A5.809,5.809,0,0,0,8.157.754,5.869,5.869,0,0,0,5.83,3.245a5.717,5.717,0,0,0,1.08,6.48,5.689,5.689,0,0,0,5.827,1.446A5.449,5.449,0,0,0,14.985,9.8a5.689,5.689,0,0,0,1.1-6.655A5.77,5.77,0,0,0,12.9.336,5.847,5.847,0,0,0,10.576.023m1.209,1.1a4.964,4.964,0,0,1,1.828.739,5.587,5.587,0,0,1,1.122,1.076A4.94,4.94,0,0,1,15.6,5,5.962,5.962,0,0,1,15.559,6.7a4.754,4.754,0,0,1-2.127,3.012,4.991,4.991,0,0,1-1.555.606,5.863,5.863,0,0,1-1.794,0A4.769,4.769,0,0,1,6.906,8a4.7,4.7,0,0,1-.227-4.08A4.632,4.632,0,0,1,9.936,1.176a3.257,3.257,0,0,1,1.024-.11,4.975,4.975,0,0,1,.825.052M9.33,13.982A14.255,14.255,0,0,0,3.8,15.224a7.4,7.4,0,0,0-2.221,1.589A5.4,5.4,0,0,0,.015,20.145l-.024.413h22v-.084a4.9,4.9,0,0,0-.888-2.6,9.189,9.189,0,0,0-5.737-3.418,22.493,22.493,0,0,0-2.957-.422c-.488-.038-2.684-.074-3.078-.051m3.444,1.128c3.4.359,5.623,1.248,7.053,2.827a5.159,5.159,0,0,1,.934,1.548l.026.082H10.981c-8.614,0-9.805-.007-9.805-.054a4.788,4.788,0,0,1,.336-.837C2.38,16.954,4.4,15.74,7.185,15.265a16.1,16.1,0,0,1,3.537-.223c1.038.008,1.673.029,2.052.069" transform="translate(150.009 69.993)" fill-rule="evenodd"/>
  </g>
</svg>
