
<svg xmlns="http://www.w3.org/2000/svg" xmlns:xlink="http://www.w3.org/1999/xlink" width="18" height="14.25" viewBox="0 0 18 14.25"><g id="quick_view" data-name="quick view" transform="translate(-618.623 -4148)"><g id="Quick_view-2" data-name="Quick view" transform="translate(3 3)" clip-path="url(#clip-path-qview)"><path id="Path_523" data-name="Path 523" d="M9.095,3a9,9,0,0,1,8.716,6.75,9,9,0,0,1-17.433,0A9,9,0,0,1,9.095,3Zm0,12A7.5,7.5,0,0,1,1.937,9.75a7.5,7.5,0,0,1,14.314,0A7.5,7.5,0,0,1,9.095,15Z" transform="translate(615.528 4142.75)" fill-rule="evenodd"></path><path id="Path_522" data-name="Path 522" d="M14,11a3,3,0,1,1-3-3A3,3,0,0,1,14,11Zm-1.5,0A1.5,1.5,0,1,1,11,9.5,1.5,1.5,0,0,1,12.5,11Z" transform="translate(613.622 4141.5)" fill-rule="evenodd"></path></g></g></svg>
