<svg height="24" viewBox="0 0 24 24" width="24" xmlns="http://www.w3.org/2000/svg" xmlns:xlink="http://www.w3.org/1999/xlink"><defs><clipPath id="clip-path-shop"><rect data-name="Rectangle 8" fill="#77828e" height="24" id="Rectangle_8" transform="translate(474 95)" width="24" /></clipPath></defs><g id="sp-mobp-shop-i" transform="translate(-474 -95)" clip-path="url(#clip-path-shop)"><g id="Group_46" transform="translate(474.5 98)" data-name="Group 46"><g id="Path_22" transform="translate(-17.623 -24.38)" data-name="Path 22" fill="#77828e"><path d="M 36.69630432128906 41.87909698486328 L 21.73391342163086 41.87908554077148 C 20.90024375915527 41.87734603881836 20.2216739654541 41.19735336303711 20.2216739654541 40.36326599121094 L 20.2216739654541 34.7178955078125 C 20.2216739654541 34.43314361572266 20.45334243774414 34.20147705078125 20.73809242248535 34.20147705078125 C 21.02284240722656 34.20147705078125 21.25451278686523 34.43314361572266 21.25451278686523 34.7178955078125 L 21.25450325012207 40.37043380737305 C 21.25290298461914 40.49523544311523 21.30328369140625 40.62022399902344 21.39273262023926 40.7108268737793 C 21.48217391967773 40.80143356323242 21.60653305053711 40.85341644287109 21.73391342163086 40.85341644287109 C 25.16203308105469 40.85341644287109 27.50705337524414 40.85146331787109 29.77486228942871 40.84957504272461 C 31.82427406311035 40.84787368774414 33.78191375732422 40.84624481201172 36.36898422241211 40.84624481201172 L 36.68912506103516 40.84625625610352 C 36.81648254394531 40.84625625610352 36.94083404541016 40.79429626464844 37.03030395507812 40.70368576049805 C 37.11978149414062 40.61304473876953 37.1701545715332 40.488037109375 37.16851425170898 40.36069488525391 L 37.16854476928711 32.7620735168457 L 37.16854476928711 32.57908630371094 L 36.98627471923828 32.5628662109375 C 36.11838150024414 32.48563385009766 35.32176208496094 32.08431625366211 34.7431526184082 31.43284606933594 L 34.59287261962891 31.26364517211914 L 34.44342422485352 31.43357467651367 C 33.79933166503906 32.16598510742188 32.87055206298828 32.58906555175781 31.89522361755371 32.59431457519531 C 31.8745231628418 32.59463500976562 31.85602378845215 32.59478378295898 31.83748245239258 32.59478378295898 C 30.89541244506836 32.59478378295898 29.98261260986328 32.20337677001953 29.3331241607666 31.52091598510742 L 29.19064331054688 31.3712043762207 L 29.04568290710449 31.51852607727051 C 28.37263298034668 32.20255661010742 27.43623352050781 32.59486389160156 26.47659301757812 32.59486389160156 C 25.51695251464844 32.59486389160156 24.58056259155273 32.20255661010742 23.90751266479492 31.51852607727051 L 23.76255416870117 31.3712043762207 L 23.62007331848145 31.52091598510742 C 22.97058296203613 32.20337677001953 22.05778312683105 32.59478378295898 21.11571311950684 32.59478378295898 C 21.09723281860352 32.59478378295898 21.07861328125 32.59463500976562 21.06010246276855 32.59434509277344 C 19.27693367004395 32.59431457519531 17.82883262634277 31.38082504272461 17.82883262634277 29.88924598693848 L 17.82883262634277 29.88153457641602 L 17.82824325561523 29.87384605407715 C 17.82728385925293 29.86148452758789 17.82728385925293 29.84894561767578 17.82824325561523 29.83659553527832 L 17.82985305786133 29.81566429138184 L 17.82709312438965 29.79486465454102 C 17.81328392028809 29.69080543518066 17.83114242553711 29.58633613586426 17.87874412536621 29.49274444580078 L 19.95283317565918 25.40906524658203 C 20.20956230163574 24.89732551574707 20.72380256652832 24.57998466491699 21.29532241821289 24.57998466491699 L 37.0580940246582 24.57998466491699 L 37.06326293945312 24.57997512817383 C 37.63477325439453 24.57997512817383 38.14901351928711 24.89732551574707 38.40530395507812 25.40817451477051 L 40.43612289428711 29.48057556152344 C 40.48212432861328 29.57327461242676 40.49908447265625 29.67684555053711 40.48501205444336 29.77975463867188 L 40.4820442199707 29.80141448974609 L 40.48383331298828 29.82321548461914 C 40.48469161987305 29.8337459564209 40.48469161987305 29.84443473815918 40.48383331298828 29.85496520996094 L 40.48316192626953 29.86313438415527 L 40.48316192626953 29.87132453918457 C 40.48316192626953 31.0511360168457 39.64699172973633 32.05557632446289 38.35292434692383 32.43026351928711 L 38.20854187011719 32.47206497192383 L 38.20854187011719 32.62237548828125 L 38.20854187011719 40.36326599121094 C 38.20854187011719 41.19735336303711 37.52996444702148 41.87735366821289 36.69588470458984 41.87909698486328 L 36.69630432128906 41.87909698486328 Z M 23.75779342651367 29.35849571228027 C 24.04254341125488 29.35849571228027 24.27421379089355 29.59016609191895 24.27421379089355 29.87491607666016 C 24.27421379089355 30.78136444091797 25.27950286865234 31.54715538024902 26.46943283081055 31.54715538024902 C 27.65937232971191 31.54715538024902 28.66466331481934 30.78136444091797 28.66466331481934 29.87491607666016 C 28.66466331481934 29.59016609191895 28.89632415771484 29.35849571228027 29.18107414245605 29.35849571228027 C 29.46582412719727 29.35849571228027 29.6974925994873 29.59016609191895 29.6974925994873 29.87491607666016 C 29.6974925994873 30.77941513061523 30.70114326477051 31.54356575012207 31.88913345336914 31.54356575012207 C 33.14555358886719 31.54356575012207 34.0843620300293 30.58694458007812 34.0843620300293 29.73162460327148 C 34.0843620300293 29.44687461853027 34.31603240966797 29.21520614624023 34.60078430175781 29.21520614624023 C 34.88553237915039 29.21520614624023 35.11719512939453 29.44687461853027 35.11719512939453 29.73162460327148 C 35.11719512939453 30.58694458007812 36.05446243286133 31.54356575012207 37.30883407592773 31.54356575012207 C 38.50759506225586 31.54356575012207 39.44982147216797 30.80941581726074 39.45391464233398 29.87219429016113 L 39.4541130065918 29.82506561279297 L 39.43325424194336 29.78279495239258 L 37.48817443847656 25.84250450134277 L 37.48659133911133 25.83930587768555 L 37.48489379882812 25.8361644744873 C 37.40114212036133 25.68072509765625 37.23942184448242 25.58416557312012 37.06287384033203 25.58416557312012 L 21.30048370361328 25.58416557312012 C 21.11832237243652 25.58490562438965 20.95433235168457 25.68563461303711 20.8717041015625 25.84706497192383 L 18.87608337402344 29.78814506530762 L 18.85409355163574 29.83157539367676 L 18.85452270507812 29.8802547454834 C 18.86261367797852 30.79938507080078 19.84738349914551 31.54715538024902 21.04973411560059 31.54715538024902 C 22.23772239685059 31.54715538024902 23.24137306213379 30.78136444091797 23.24137306213379 29.87491607666016 C 23.24137306213379 29.59016609191895 23.47304344177246 29.35849571228027 23.75779342651367 29.35849571228027 Z" stroke="none" /><path d="M 37.06326293945312 24.37997436523438 L 37.0580940246582 24.77998352050781 L 21.29532241821289 24.77998352050781 C 20.79993438720703 24.77998352050781 20.35418319702148 25.0550537109375 20.13115310668945 25.4996337890625 L 18.05701446533203 29.58340454101562 C 18.02783203125 29.64076614379883 18.01689147949219 29.70478439331055 18.02535247802734 29.7685546875 L 18.0308723449707 29.81015396118164 L 18.02764511108398 29.85199356079102 C 18.02748489379883 29.8541259765625 18.02748489379883 29.85629653930664 18.02764511108398 29.85842514038086 L 18.02883148193359 29.88923645019531 C 18.02883148193359 31.27054595947266 19.38721466064453 32.39431381225586 21.05689239501953 32.39431381225586 L 21.06322479248047 32.39436340332031 C 21.96907043457031 32.40892791748047 22.85125350952148 32.03865814208984 23.47520446777344 31.38303375244141 L 23.76016235351562 31.0836067199707 L 24.05007171630859 31.37825393676758 C 24.68577194213867 32.02432632446289 25.5702018737793 32.39486694335938 26.47659301757812 32.39486694335938 C 27.38298416137695 32.39486694335938 28.26742362976074 32.02432632446289 28.90312385559082 31.37825393676758 L 29.19303321838379 31.0836067199707 L 29.47800254821777 31.38303375244141 C 30.08991241455078 32.02601623535156 30.94991302490234 32.3947868347168 31.83748245239258 32.3947868347168 C 31.85492324829102 32.3947868347168 31.87232398986816 32.3946533203125 31.89414405822754 32.39432525634766 C 32.81240081787109 32.38937377929688 33.68684387207031 31.99105453491211 34.29324340820312 31.30150604248047 L 34.59213256835938 30.96162414550781 L 34.89268493652344 31.30003356933594 C 35.43729400634766 31.91322708129883 36.18710327148438 32.29095458984375 37.00399398803711 32.36364364624023 L 37.36854553222656 32.39608383178711 L 37.36853408813477 40.36100769042969 C 37.37006378173828 40.54047393798828 37.29875946044922 40.71642684936523 37.17261505126953 40.84420776367188 C 37.04583358764648 40.97261428833008 36.86960601806641 41.04625701904297 36.68909454345703 41.04625701904297 L 36.36898040771484 41.04624557495117 C 33.78197479248047 41.04624557495117 31.82438278198242 41.04787445068359 29.77503395080566 41.04957580566406 C 27.50718307495117 41.05146789550781 25.16212463378906 41.05341339111328 21.73391342163086 41.05341339111328 C 21.55339431762695 41.05341339111328 21.37715148925781 40.97974395751953 21.25042343139648 40.85134506225586 C 21.12425994873047 40.72357940673828 21.05295562744141 40.54758453369141 21.05451202392578 40.36808776855469 L 21.05451202392578 34.7178955078125 C 21.05451202392578 34.54342651367188 20.91256332397461 34.40147399902344 20.73809432983398 34.40147399902344 C 20.56362152099609 34.40147399902344 20.42167282104492 34.54342651367188 20.42167282104492 34.7178955078125 L 20.42167282104492 40.36326599121094 C 20.42167282104492 41.08730316162109 21.01071166992188 41.67757415771484 21.73391342163086 41.67908477783203 L 36.69546508789062 41.67909240722656 C 37.41950225830078 41.67758560180664 38.008544921875 41.08730316162109 38.008544921875 40.36326599121094 L 38.008544921875 32.3217658996582 L 38.29729461669922 32.23815536499023 C 39.503662109375 31.88886642456055 40.28316497802734 30.95982360839844 40.28316497802734 29.8713264465332 L 40.28450393676758 29.83956527709961 L 40.28092193603516 29.79598617553711 L 40.2868537902832 29.75265502929688 C 40.29547119140625 29.68960571289062 40.28508377075195 29.62613677978516 40.25714111328125 29.5698356628418 L 38.22653198242188 25.49786376953125 C 38.0043830871582 25.0550651550293 37.55864334106445 24.77998352050781 37.06325531005859 24.77997589111328 L 37.06326293945312 24.37997436523438 M 37.30883407592773 31.74356460571289 C 35.8994026184082 31.74356460571289 34.91719055175781 30.68324661254883 34.91719055175781 29.73162460327148 C 34.91719055175781 29.55715560913086 34.77525329589844 29.41520690917969 34.60078430175781 29.41520690917969 C 34.42631530761719 29.41520690917969 34.28436279296875 29.55715560913086 34.28436279296875 29.73162460327148 C 34.28436279296875 30.68324661254883 33.30067443847656 31.74356460571289 31.88913345336914 31.74356460571289 C 30.59273338317871 31.74356460571289 29.49749374389648 30.88782501220703 29.49749374389648 29.87491607666016 C 29.49749374389648 29.70044708251953 29.35554313659668 29.55849456787109 29.18107414245605 29.55849456787109 C 29.0066032409668 29.55849456787109 28.86466407775879 29.70044708251953 28.86466407775879 29.87491607666016 C 28.86466407775879 30.90727615356445 27.79016304016113 31.74715423583984 26.46943283081055 31.74715423583984 C 25.14870452880859 31.74715423583984 24.07421493530273 30.90727615356445 24.07421493530273 29.87491607666016 C 24.07421493530273 29.70044708251953 23.9322624206543 29.55849456787109 23.75779342651367 29.55849456787109 C 23.58332443237305 29.55849456787109 23.44137191772461 29.70044708251953 23.44137191772461 29.87491607666016 C 23.44137191772461 30.90727615356445 22.36848449707031 31.74715423583984 21.04973220825195 31.74715423583984 C 19.73807144165039 31.74715423583984 18.66358184814453 30.91045379638672 18.65452194213867 29.88202667236328 L 18.65366363525391 29.7846565246582 L 20.69367218017578 25.75593566894531 C 20.81052398681641 25.52766418457031 21.04241180419922 25.38521575927734 21.30048370361328 25.3841667175293 L 37.06287384033203 25.3841667175293 C 37.31308364868164 25.3841667175293 37.54225158691406 25.52099609375 37.66095352172852 25.74126434326172 L 37.66751098632812 25.75396347045898 L 39.65432357788086 29.77880477905273 L 39.65391540527344 29.87307357788086 C 39.64932250976562 30.92194366455078 38.61924362182617 31.74356460571289 37.30883407592773 31.74356460571289 M 37.06326293945312 24.37997817993164 C 37.70672607421875 24.37998962402344 38.29537963867188 24.74307632446289 38.58406066894531 25.31849670410156 L 40.61510467529297 29.39132690429688 C 40.67889404296875 29.5198860168457 40.70261383056641 29.66464614868164 40.68316268920898 29.80685424804688 C 40.68492126464844 29.82830429077148 40.68492126464844 29.84987640380859 40.68316268920898 29.8713264465332 C 40.68316268920898 31.16804504394531 39.74465179443359 32.23551559448242 38.40854263305664 32.62237548828125 L 38.40854263305664 40.36326599121094 C 38.40854263305664 41.30949401855469 37.64252471923828 42.07711791992188 36.69630432128906 42.07909393310547 L 21.73391342163086 42.07908630371094 C 20.78769302368164 42.07711791992188 20.02167510986328 41.30949401855469 20.02167510986328 40.36326599121094 L 20.02167510986328 34.7178955078125 C 20.02167510986328 34.32223510742188 20.34242248535156 34.0014762878418 20.73809432983398 34.0014762878418 C 21.13375473022461 34.0014762878418 21.45451354980469 34.32223510742188 21.45451354980469 34.7178955078125 L 21.45451354980469 40.37043762207031 C 21.45354461669922 40.44515609741211 21.48256301879883 40.51714324951172 21.53505325317383 40.57030487060547 C 21.58754348754883 40.62348556518555 21.65916442871094 40.65341567993164 21.73391342163086 40.65341567993164 C 28.41016387939453 40.65341567993164 31.04276466369629 40.64595794677734 36.68913269042969 40.64625549316406 C 36.68914794921875 40.64625549316406 36.68915557861328 40.64625549316406 36.68917083740234 40.64625549316406 C 36.76388549804688 40.64625549316406 36.83549499511719 40.61632537841797 36.88798522949219 40.56316375732422 C 36.94048309326172 40.50998687744141 36.9694938659668 40.43798446655273 36.96853256225586 40.36326599121094 L 36.96854400634766 32.7620735168457 C 36.05331420898438 32.68063354492188 35.20377349853516 32.25265502929688 34.59361267089844 31.56565475463867 C 33.91122436523438 32.34161376953125 32.92960357666016 32.78874588012695 31.89630317687988 32.79431533813477 C 30.87472534179688 32.8109130859375 29.89266204833984 32.39897537231445 29.1882438659668 31.65879440307617 C 28.4731330871582 32.38557434082031 27.49620246887207 32.79486465454102 26.47659301757812 32.79486465454102 C 25.45699310302734 32.79486465454102 24.48006439208984 32.38557434082031 23.76495361328125 31.65879440307617 C 23.06053161621094 32.39897155761719 22.07859802246094 32.81066513061523 21.05689239501953 32.79431533813477 C 19.16555404663086 32.79431533813477 17.62883377075195 31.49043655395508 17.62883377075195 29.88923645019531 C 17.62708282470703 29.86658477783203 17.62708282470703 29.84383392333984 17.62883377075195 29.82118606567383 C 17.6097526550293 29.67744445800781 17.63474273681641 29.53131484985352 17.70047378540039 29.40207672119141 L 19.77451324462891 25.31849670410156 C 20.06338119506836 24.74268341064453 20.65196990966797 24.37939071655273 21.29689407348633 24.37998580932617 L 37.0580940246582 24.37998580932617 C 37.0598258972168 24.37997817993164 37.06153106689453 24.37997817993164 37.06326293945312 24.37997817993164 Z M 37.30883407592773 31.34356689453125 C 38.3798828125 31.34356689453125 39.25032043457031 30.69162368774414 39.25391387939453 29.8713264465332 L 37.30883407592773 25.93102645874023 C 37.25988006591797 25.84019470214844 37.1646728515625 25.78399276733398 37.06167602539062 25.78416442871094 L 21.30048370361328 25.78416442871094 C 21.19467163085938 25.78459548950195 21.09794235229492 25.84401702880859 21.04973220825195 25.93819427490234 L 19.05450439453125 29.87849426269531 C 19.06167221069336 30.69162368774414 19.97152328491211 31.3471565246582 21.04973220825195 31.3471565246582 C 22.12794494628906 31.3471565246582 23.04137420654297 30.67371368408203 23.04137420654297 29.87491607666016 C 23.04137420654297 29.47924423217773 23.36212158203125 29.15849685668945 23.75779342651367 29.15849685668945 C 24.15346145629883 29.15849685668945 24.47421264648438 29.47924423217773 24.47421264648438 29.87491607666016 C 24.47421264648438 30.67371368408203 25.38764190673828 31.3471565246582 26.46943283081055 31.3471565246582 C 27.55122375488281 31.3471565246582 28.46466255187988 30.67371368408203 28.46466255187988 29.87491607666016 C 28.46466255187988 29.47924423217773 28.78541374206543 29.15849685668945 29.18107414245605 29.15849685668945 C 29.57674407958984 29.15849685668945 29.89749336242676 29.47924423217773 29.89749336242676 29.87491607666016 C 29.89749336242676 30.67013549804688 30.81451416015625 31.34356689453125 31.88913345336914 31.34356689453125 C 33.03182220458984 31.34356689453125 33.88436126708984 30.49102401733398 33.88436126708984 29.73162460327148 C 33.88436126708984 29.33596420288086 34.20511245727539 29.01520538330078 34.60078430175781 29.01520538330078 C 34.99644470214844 29.01520538330078 35.31719207763672 29.33596420288086 35.31719207763672 29.73162460327148 C 35.31719207763672 30.49102401733398 36.16973114013672 31.34356689453125 37.30883407592773 31.34356689453125 Z" stroke="none" fill="#77828e" /></g></g></g></svg>
