<svg xmlns="http://www.w3.org/2000/svg" width="18" height="10.935" viewBox="0 0 18 10.935">
  <path id="sp-video-icon-18" d="M15.893,27.3a.964.964,0,1,1-.964-.964A.963.963,0,0,1,15.893,27.3Zm8.357-1.453v6.126a1.929,1.929,0,0,1-3,1.607l-2.79-1.858v.726a1.934,1.934,0,0,1-1.929,1.929H8.179a1.934,1.934,0,0,1-1.929-1.929V25.367a1.934,1.934,0,0,1,1.929-1.929h8.357a1.934,1.934,0,0,1,1.929,1.929v.726l2.79-1.858a1.925,1.925,0,0,1,3,1.6Zm-7.071-.476a.645.645,0,0,0-.643-.643H8.179a.645.645,0,0,0-.643.643v7.071a.645.645,0,0,0,.643.643h8.357a.645.645,0,0,0,.643-.643Zm5.786.476a.645.645,0,0,0-1-.534l-3.5,2.334v2.526l3.5,2.334a.641.641,0,0,0,.662.032.622.622,0,0,0,.341-.566Z" transform="translate(-6.25 -23.438)"/>
</svg>
