<svg xmlns="http://www.w3.org/2000/svg" width="16" height="16.001" viewBox="0 0 16 16.001"><path id="whatsapp-ico" d="M36,28A8,8,0,0,0,29.05,39.963l-.72,2.521a.96.96,0,0,0,1.187,1.187l2.521-.72A8,8,0,1,0,36,28Zm0,15.36a7.349,7.349,0,0,1-3.756-1.029.32.32,0,0,0-.251-.033l-2.652.758a.32.32,0,0,1-.4-.4l.758-2.652a.32.32,0,0,0-.033-.251A7.361,7.361,0,1,1,36,43.36Zm4.041-5.876L38.4,36.548a.961.961,0,0,0-.97.01l-1.1.663a3.523,3.523,0,0,1-1.551-1.551l.663-1.1a.961.961,0,0,0,.01-.97l-.935-1.637a.873.873,0,0,0-.757-.439,2.561,2.561,0,0,0-2.56,2.55A6.72,6.72,0,0,0,37.92,40.8h.01a2.561,2.561,0,0,0,2.55-2.56.873.873,0,0,0-.439-.757ZM37.929,40.16H37.92a6.08,6.08,0,0,1-6.08-6.088,1.92,1.92,0,0,1,1.92-1.911.232.232,0,0,1,.2.117l.935,1.637a.32.32,0,0,1,0,.323l-.751,1.252a.32.32,0,0,0-.017.3,4.163,4.163,0,0,0,2.091,2.091.32.32,0,0,0,.3-.017l1.252-.751a.32.32,0,0,1,.323,0l1.637.935a.232.232,0,0,1,.117.2,1.92,1.92,0,0,1-1.912,1.92Z" transform="translate(-28.001 -28)"/></svg>