<svg xmlns="http://www.w3.org/2000/svg" width="16" height="15.981" viewBox="0 0 16 15.981"><path d="M7.422.805A.946.946,0,0,1,8.538.8l6.625,4.963-6.2,4.573-.275-.2a1.153,1.153,0,0,0-1.355,0l-.291.214L.836,5.766Zm2.067,9.922,5.886-4.34v8.668ZM7.7,10.64a.517.517,0,0,1,.306-.1.535.535,0,0,1,.16.024.5.5,0,0,1,.145.073l.461.339h0l5.951,4.376H1.29ZM.626,6.389l5.886,4.35L.626,15.068ZM16,5.763c0-.008,0-.017,0-.025s0-.006,0-.009a.309.309,0,0,0-.016-.067l0-.006c0-.008-.007-.017-.011-.025l-.005-.01L15.952,5.6l-.008-.012-.006-.009-.006-.008-.009-.011-.015-.016L15.9,5.54l-.023-.019,0,0h0l0,0L8.914.3a1.584,1.584,0,0,0-1.87,0L.129,5.516h0l0,0,0,0L.1,5.54l-.009.009-.015.016-.009.011-.006.007-.006.009L.048,5.6l-.011.019-.005.01c0,.009-.008.017-.011.026l0,0A.308.308,0,0,0,0,5.729s0,.006,0,.009,0,.016,0,.024,0,0,0,.005v9.615a.582.582,0,0,0,.178.417.31.31,0,0,0,.122.092.644.644,0,0,0,.326.088H15.374a.613.613,0,0,0,.626-.6V5.768s0,0,0-.005Z" transform="translate(0 0)" fill-rule="evenodd"/></svg>