<svg xmlns="http://www.w3.org/2000/svg" width="15.97" height="16" viewBox="0 0 15.97 16"><path d="M9.733,5.011v.625a4.191,4.191,0,0,1,2.355-.593c3.44,0,3.881,2.572,3.881,4.812v6.11L11.992,16V10.156c0-.981-.351-1.167-1-1.167-.618,0-1,.2-1,1.167V16l-4.03-.035V5.011H9.733ZM4,5V16H0V5H4Zm-1,1H1v8.989H3V6.005Zm5.729.007H6.961v8.961l2.028.018V10.156c0-1.887,1.254-2.168,2-2.168.913,0,2,.376,2,2.168v4.835l1.976-.018V9.855c0-2.778-.78-3.811-2.88-3.811a3.141,3.141,0,0,0-2.344.825l-.139.118H8.732ZM2,0A2,2,0,1,1,0,2,2,2,0,0,1,2,0ZM2,1A1,1,0,1,0,3,2,1,1,0,0,0,2,1Z" fill-rule="evenodd"/></svg>