<svg xmlns="http://www.w3.org/2000/svg" width="16" height="13.42" viewBox="0 0 16 13.42"><path id="reddit-ico" d="M15.581,9.936a3.386,3.386,0,0,1,.04.491,4.168,4.168,0,0,1-2.145,3.42A9.241,9.241,0,0,1,8.468,15.21,9.221,9.221,0,0,1,3.46,13.847a4.148,4.148,0,0,1-2.145-3.42,3.981,3.981,0,0,1,.04-.532A1.821,1.821,0,1,1,3.516,6.976,9.276,9.276,0,0,1,8.29,5.652l1.081-3.41a.32.32,0,0,1,.371-.21l2.8.661a1.513,1.513,0,1,1-.121.614l-2.541-.6L8.944,5.661A9.041,9.041,0,0,1,13.46,7a1.821,1.821,0,1,1,2.121,2.936ZM1.532,9.25a4.444,4.444,0,0,1,1.451-1.9,1.168,1.168,0,0,0-.661-.2,1.2,1.2,0,0,0-1.2,1.2,1.191,1.191,0,0,0,.411.9ZM15,10.427a3.574,3.574,0,0,0-1.863-2.9A8.676,8.676,0,0,0,8.468,6.274,8.688,8.688,0,0,0,3.8,7.531a3.569,3.569,0,0,0-1.863,2.9,3.571,3.571,0,0,0,1.863,2.9,8.676,8.676,0,0,0,4.669,1.258,8.674,8.674,0,0,0,4.669-1.258A3.572,3.572,0,0,0,15,10.427Zm-8.9.234a1.119,1.119,0,0,1-1.121-1.1A1.135,1.135,0,0,1,6.1,8.443,1.121,1.121,0,0,1,7.2,9.564,1.1,1.1,0,0,1,6.1,10.661Zm4.984,1.606a.316.316,0,0,1,0,.443,3.49,3.49,0,0,1-2.573.8H8.492a3.49,3.49,0,0,1-2.573-.8.316.316,0,0,1,0-.443.305.305,0,0,1,.436,0,2.932,2.932,0,0,0,2.137.62h.016a2.943,2.943,0,0,0,2.137-.62A.305.305,0,0,1,11.081,12.267Zm.943-2.7a1.106,1.106,0,0,1-1.1,1.1A1.119,1.119,0,0,1,9.8,9.564a1.135,1.135,0,0,1,1.121-1.121A1.121,1.121,0,0,1,12.024,9.564ZM13.04,3.291a.879.879,0,1,0,.879-.88A.881.881,0,0,0,13.04,3.291Zm2.839,5.063a1.2,1.2,0,0,0-1.2-1.2,1.155,1.155,0,0,0-.694.226A4.368,4.368,0,0,1,15.42,9.3a1.209,1.209,0,0,0,.459-.945Z" transform="translate(-0.5 -1.79)"/></svg>