<svg xmlns="http://www.w3.org/2000/svg" width="18" height="15" viewBox="0 0 18 15"><path d="M53.25,282.03a4.975,4.975,0,0,1,5.15-4.78,5.259,5.259,0,0,1,3.6,1.542,5.259,5.259,0,0,1,3.6-1.542,4.975,4.975,0,0,1,5.15,4.78,7.807,7.807,0,0,1-1.882,4.852,18.234,18.234,0,0,1-3.885,3.484,13.724,13.724,0,0,1-1.533.941,2.6,2.6,0,0,1-2.9,0,13.724,13.724,0,0,1-1.533-.941,18.236,18.236,0,0,1-3.885-3.484A7.807,7.807,0,0,1,53.25,282.03Zm5.15-3.28a3.479,3.479,0,0,0-3.65,3.28,6.318,6.318,0,0,0,1.556,3.918,16.726,16.726,0,0,0,3.565,3.185,12.312,12.312,0,0,0,1.36.838,2.168,2.168,0,0,0,.77.279,2.168,2.168,0,0,0,.77-.279,12.313,12.313,0,0,0,1.36-.838,16.726,16.726,0,0,0,3.565-3.185,6.318,6.318,0,0,0,1.556-3.918,3.479,3.479,0,0,0-3.65-3.28,3.951,3.951,0,0,0-3.005,1.619.75.75,0,0,1-1.189,0A3.951,3.951,0,0,0,58.4,278.75Z" transform="translate(-53.25 -277.25)" fill-rule="evenodd"/></svg>
