<svg xmlns="http://www.w3.org/2000/svg" width="84.299" height="86.824"><path d="M80.506.233c-.194.125-.83.897-1.415 1.718-.585.82-2.131 2.977-3.435 4.793a356.277 356.277 0 0 0-5.386 7.798 2418.296 2418.296 0 0 1-3.046 4.538c-.018.023-.504-.673-1.081-1.546-1.388-2.103-2.661-3.701-4.175-5.24-1.384-1.407-2.296-2.019-3.825-2.568-1.419-.509-3.896-.542-5.386-.073-3.207 1.01-5.65 3.903-6.261 7.412-.216 1.239-.096 3.33.27 4.712.154.58.322 1.345.373 1.701l.094.647-.578.231c-.317.127-.657.231-.755.231-.098 0-1.851-2.48-3.896-5.512-3.045-4.514-3.959-5.762-5.047-6.897-1.708-1.78-3.339-3.002-5.275-3.951-3.006-1.476-4.616-1.837-8.149-1.828-2.266.005-2.686.045-4.042.384-3.399.85-6.135 2.368-8.655 4.801C2.236 19.886-1.643 32.468.721 44.397c2.647 13.36 12.567 23.989 25.761 27.605 4.991 1.368 10.445 1.648 15.387.79.811-.141 1.492-.243 1.512-.226.021.016.106.75.19 1.631.356 3.746-.224 5.041-2.764 6.169-1.816.807-1.937.894-2.346 1.687-.628 1.221-.463 2.293.453 2.946.493.35 2.267.97 3.868 1.351.922.219 1.653.267 4.074.264 2.614-.003 3.083-.04 4.109-.319 2.67-.727 5.042-1.818 6.855-3.152 2.227-1.637 4.637-4.467 5.818-6.829 1.931-3.861 2.023-8.186.239-11.149l-.481-.798.933-.598c1.881-1.205 4.158-3.812 6.008-6.876 5.252-8.701 9.996-25.929 13.036-47.339 1.047-7.379 1.07-7.982.33-8.676-.831-.781-2.472-1.111-3.197-.645m-2.129 12.025c-2.069 13.598-5.114 26.321-8.229 34.387-.343.889-.659 1.73-.701 1.87-.043.14-.148.226-.235.192-.848-.334-10.418-4.206-10.432-4.22-.073-.074 1.89-4.451 3.033-6.763 2.799-5.661 6.097-11.327 10.565-18.149 2.659-4.061 6.083-9.038 6.218-9.038.023 0-.075.775-.219 1.721m-51.682.243a13.035 13.035 0 0 1 5.912 3.617c.431.465 2.478 3.368 4.548 6.449 2.071 3.082 3.963 5.812 4.204 6.067 1.091 1.154 2.54 1.714 4.439 1.714 2.214 0 3.947-.705 5.437-2.211.479-.483 1.045-1.239 1.265-1.686.379-.773.398-.901.397-2.777-.002-1.762-.044-2.105-.404-3.29-.32-1.05-.387-1.493-.329-2.143.198-2.177 2.135-3.671 3.973-3.065 1.442.476 4.749 4.641 6.581 8.287l.812 1.616-1.777 3.091c-1.921 3.342-5.08 9.554-6.179 12.152-3.579 8.458-4.736 14.758-3.506 19.089.118.414.188.778.157.81-.032.031-.431.152-.887.267-.456.116-1.363.472-2.017.792-.95.465-1.428.823-2.392 1.79-.674.676-1.419 1.59-1.692 2.077l-.488.869-1.054.287c-2.554.696-4.26.899-7.657.911-3.537.013-4.946-.148-7.868-.901-7.004-1.806-13.33-6.343-17.354-12.445-2.929-4.443-4.53-9.212-4.913-14.639a30.08 30.08 0 0 1 7.815-22.38c1.34-1.461 2.439-2.388 3.658-3.085 1.2-.687 3.013-1.333 4.293-1.529 1.367-.21 3.804-.081 5.026.266m-4.965 7.364c-1.563.658-2.326 1.383-3.016 2.866-.323.693-.374.985-.372 2.137.003 1.81.355 2.705 1.526 3.876 1.168 1.168 2.063 1.52 3.876 1.528 1.214.005 1.42-.035 2.276-.441 1.683-.797 2.796-2.294 3.033-4.078.332-2.504-.858-4.753-3.061-5.781-.622-.291-1.032-.37-2.107-.406-1.164-.04-1.44-.002-2.155.299m-4.729 15.627c-1.278.462-2.269 1.363-2.741 2.493-1.008 2.412-.017 5.024 2.319 6.114 1.03.481 2.688.507 3.677.059 1.623-.735 2.649-2.223 2.756-3.993.078-1.308-.168-2.144-.924-3.144-1.084-1.431-3.416-2.132-5.087-1.529m6.67 13.233c-1.387.48-2.234 1.399-2.67 2.9-.439 1.508.073 3.212 1.284 4.278 2.645 2.329 6.846.399 6.849-3.146.001-1.317-.409-2.244-1.385-3.137-1.191-1.088-2.616-1.401-4.078-.895m43.664 4.23c-.076.326-1.759 3.033-2.486 4-2.514 3.34-5.534 4.829-7.107 3.505-.502-.422-1.146-1.641-1.387-2.625-.209-.852-.215-3.683-.012-4.961.166-1.039.797-3.797.911-3.981.097-.158 10.123 3.883 10.081 4.062M56.681 65.479c3.025.935 4.252 3.691 3.145 7.065-1.338 4.075-4.956 7.466-9.317 8.731-1.213.352-3.442.639-3.442.443 0-.052.154-.33.343-.618.564-.861 1.074-2.614 1.164-3.994.044-.688 0-2.37-.099-3.738-.166-2.292-.16-2.558.071-3.4.748-2.713 2.386-4.438 4.534-4.773 1.053-.164 2.526-.048 3.601.284" fill="#5246ec" fill-rule="evenodd"/></svg>
