<svg width="74" height="74" viewBox="0 0 74 74" fill="none" xmlns="http://www.w3.org/2000/svg">
<path d="M36.0055 53.4248L32.1862 49.5203C31.9686 49.2975 31.8464 48.9955 31.8464 48.6807C31.8464 48.3659 31.9686 48.0639 32.1862 47.8411L50.0998 29.5277C50.3178 29.3053 50.6131 29.1804 50.9211 29.1804C51.229 29.1804 51.5244 29.3053 51.7424 29.5277L55.5617 33.4323C55.7792 33.6551 55.9014 33.957 55.9014 34.2719C55.9014 34.5867 55.7792 34.8886 55.5617 35.1115L37.648 53.4248C37.5403 53.5353 37.4123 53.623 37.2714 53.6828C37.1304 53.7426 36.9794 53.7734 36.8268 53.7734C36.6742 53.7734 36.5231 53.7426 36.3821 53.6828C36.2412 53.623 36.1132 53.5353 36.0055 53.4248Z" fill="url(#paint0_linear_75_4)"/>
<path opacity="0.55" d="M36.0055 53.4248L32.1862 49.5203C31.9686 49.2975 31.8464 48.9955 31.8464 48.6807C31.8464 48.3659 31.9686 48.0639 32.1862 47.8411L50.0998 29.5277C50.3178 29.3053 50.6131 29.1804 50.9211 29.1804C51.229 29.1804 51.5244 29.3053 51.7424 29.5277L55.5617 33.4323C55.7792 33.6551 55.9014 33.957 55.9014 34.2719C55.9014 34.5867 55.7792 34.8886 55.5617 35.1115L37.648 53.4248C37.5403 53.5353 37.4123 53.623 37.2714 53.6828C37.1304 53.7426 36.9794 53.7734 36.8268 53.7734C36.6742 53.7734 36.5231 53.7426 36.3821 53.6828C36.2412 53.623 36.1132 53.5353 36.0055 53.4248Z" fill="url(#paint1_linear_75_4)"/>
<path d="M41.4675 49.5203L37.6482 53.4248C37.4302 53.6472 37.1349 53.7721 36.8269 53.7721C36.519 53.7721 36.2236 53.6472 36.0056 53.4248L26.4225 43.6278C26.2049 43.405 26.0828 43.103 26.0828 42.7882C26.0828 42.4734 26.2049 42.1715 26.4225 41.9486L30.2418 38.0441C30.4598 37.8217 30.7551 37.6968 31.0631 37.6968C31.371 37.6968 31.6664 37.8217 31.8844 38.0441L41.4675 47.8411C41.6851 48.0639 41.8072 48.3658 41.8072 48.6807C41.8072 48.9955 41.6851 49.2974 41.4675 49.5203Z" fill="url(#paint2_linear_75_4)"/>
<path opacity="0.31" d="M41.4675 49.5203L37.6482 53.4248C37.4302 53.6472 37.1349 53.7721 36.8269 53.7721C36.519 53.7721 36.2236 53.6472 36.0056 53.4248L26.4225 43.6278C26.2049 43.405 26.0828 43.103 26.0828 42.7882C26.0828 42.4734 26.2049 42.1715 26.4225 41.9486L30.2418 38.0441C30.4598 37.8217 30.7551 37.6968 31.0631 37.6968C31.371 37.6968 31.6664 37.8217 31.8844 38.0441L41.4675 47.8411C41.6851 48.0639 41.8072 48.3658 41.8072 48.6807C41.8072 48.9955 41.6851 49.2974 41.4675 49.5203Z" fill="url(#paint3_linear_75_4)"/>
<path d="M36.0056 53.4248L31.365 48.6807L36.8269 43.0969L42.2887 48.6807L37.6481 53.4248C37.5404 53.5353 37.4124 53.623 37.2715 53.6828C37.1305 53.7426 36.9795 53.7734 36.8269 53.7734C36.6743 53.7734 36.5232 53.7426 36.3822 53.6828C36.2413 53.623 36.1133 53.5353 36.0056 53.4248Z" fill="url(#paint4_linear_75_4)"/>
<path d="M38.7133 41.1682L36.8269 43.0967L42.2888 48.6805L38.7133 41.1682Z" fill="url(#paint5_linear_75_4)"/>
<path d="M66.0541 1.11655C63.7007 0.0525648 61.0909 -0.271871 58.5567 0.184493C56.0224 0.640858 53.6782 1.8574 51.822 3.67943L36.996 17.9729L22.1717 3.68113C20.3153 1.85893 17.9709 0.642168 15.4364 0.185513C12.9019 -0.271143 10.2918 0.0529334 7.93795 1.11655C5.56623 2.13738 3.54496 3.85606 2.13105 6.05416C0.717133 8.25225 -0.0255689 10.8305 -0.00265937 13.4612V23.1937C-0.00265937 15.9613 5.40446 10.0994 12.0758 10.0994C12.5334 10.0999 12.9905 10.1288 13.4446 10.1859C13.5531 10.195 13.6611 10.2097 13.7681 10.23C18.3191 10.922 22.0539 14.3601 23.5039 18.9516L33.5832 28.6672C34.5067 29.5577 35.7282 30.0538 36.9977 30.0538C38.2672 30.0538 39.4887 29.5577 40.4122 28.6672L50.4914 18.9516C51.9415 14.3601 55.6762 10.922 60.2255 10.23C60.333 10.2088 60.4416 10.1941 60.5507 10.1859C61.0044 10.1296 61.4609 10.1007 61.9179 10.0994C68.5892 10.0994 73.9963 15.9613 73.9963 23.1937V13.4612C74.0186 10.8304 73.2754 8.25229 71.8612 6.05428C70.4471 3.85627 68.4258 2.13758 66.0541 1.11655Z" fill="url(#paint6_linear_75_4)"/>
<path d="M64.0399 36.0827V37.4091C63.7181 44.52 60.7286 51.2308 55.6927 56.1469C50.6567 61.063 43.9615 63.8065 36.9984 63.8071C30.0352 63.8078 23.3395 61.0656 18.3027 56.1504C13.2658 51.2352 10.2752 44.525 9.95211 37.4141V36.0827C4.29447 34.9937 -0.00268555 29.6407 -0.00268555 23.1936V37.521C-0.00268555 37.5905 -0.00102641 37.6601 0.00063272 37.7279C0.301716 45.0087 2.65208 52.0459 6.76951 57.9945C10.8869 63.9432 16.5964 68.5504 23.2124 71.263C29.8284 73.9756 37.0696 74.6783 44.0666 73.2867C51.0637 71.8951 57.5191 68.4683 62.6578 63.4179C69.5496 56.678 73.6118 47.4654 73.988 37.7228C73.9913 37.6533 73.9913 37.5855 73.9913 37.5159V23.1919C73.9947 29.639 69.6975 34.9937 64.0399 36.0827Z" fill="url(#paint7_linear_75_4)"/>
<path d="M9.95211 36.0827V13.4611C9.93847 12.82 10.1157 12.1898 10.4603 11.654C10.8048 11.1181 11.3005 10.702 11.8817 10.4606C12.3732 10.243 12.9084 10.1482 13.4429 10.1842C12.9887 10.1279 12.5317 10.099 12.0741 10.0977C5.40443 10.0994 -0.00268555 15.963 -0.00268555 23.1937C-0.00268555 29.639 4.29447 34.9938 9.95211 36.0827Z" fill="url(#paint8_linear_75_4)"/>
<path d="M9.95211 36.0827V13.4611C9.93847 12.82 10.1157 12.1898 10.4603 11.654C10.8048 11.1181 11.3005 10.702 11.8817 10.4606C12.3732 10.243 12.9084 10.1482 13.4429 10.1842C12.9887 10.1279 12.5317 10.099 12.0741 10.0977C5.40443 10.0994 -0.00268555 15.963 -0.00268555 23.1937C-0.00268555 29.639 4.29447 34.9938 9.95211 36.0827Z" fill="url(#paint9_linear_75_4)"/>
<path d="M23.5024 18.9516C22.0523 14.3601 18.3176 10.922 13.7666 10.23C14.3615 10.3525 14.9086 10.6496 15.3411 11.0848L23.5024 18.9516Z" fill="url(#paint10_linear_75_4)"/>
<path d="M58.651 11.0849C59.0834 10.6507 59.6298 10.3543 60.2239 10.2317C55.6729 10.9237 51.9382 14.3635 50.4897 18.9533L58.651 11.0849Z" fill="url(#paint11_linear_75_4)"/>
<path d="M61.9162 10.0994C61.4592 10.0998 61.0026 10.1287 60.5491 10.1859C61.0836 10.1491 61.619 10.2439 62.1103 10.4623C62.6916 10.7035 63.1875 11.1196 63.5321 11.6555C63.8767 12.1913 64.0538 12.8217 64.0399 13.4628V36.0844C69.6975 34.9955 73.9947 29.6425 73.9947 23.1954C73.9947 15.963 68.5876 10.0994 61.9162 10.0994Z" fill="url(#paint12_linear_75_4)"/>
<path d="M61.9162 10.0994C61.4592 10.0998 61.0026 10.1287 60.5491 10.1859C61.0836 10.1491 61.619 10.2439 62.1103 10.4623C62.6916 10.7035 63.1875 11.1196 63.5321 11.6555C63.8767 12.1913 64.0538 12.8217 64.0399 13.4628V36.0844C69.6975 34.9955 73.9947 29.6425 73.9947 23.1954C73.9947 15.963 68.5876 10.0994 61.9162 10.0994Z" fill="url(#paint13_linear_75_4)"/>
<path d="M0.131104 23.5012H9.83438V36.9008H0.131104V23.5012Z" fill="url(#paint14_linear_75_4)"/>
<path d="M64.1736 24.6885H73.9037V38.0881H64.1736V24.6885Z" fill="url(#paint15_linear_75_4)"/>
<defs>
<linearGradient id="paint0_linear_75_4" x1="34.0835" y1="51.4617" x2="54.0722" y2="31.9343" gradientUnits="userSpaceOnUse">
<stop stop-color="#18CDE9"/>
<stop offset="0.435" stop-color="#17A3D8"/>
<stop offset="1" stop-color="#7AF6FF"/>
</linearGradient>
<linearGradient id="paint1_linear_75_4" x1="43.3928" y1="36.091" x2="48.8191" y2="42.2189" gradientUnits="userSpaceOnUse">
<stop stop-color="#0EB0C9"/>
<stop offset="0.466" stop-color="#15CFEC"/>
<stop offset="1" stop-color="#7AF6FF"/>
</linearGradient>
<linearGradient id="paint2_linear_75_4" x1="41.7915" y1="48.9656" x2="26.0033" y2="42.7448" gradientUnits="userSpaceOnUse">
<stop stop-color="#75EAAF"/>
<stop offset="0.489" stop-color="#71EBB3"/>
<stop offset="1" stop-color="#B7EA68"/>
</linearGradient>
<linearGradient id="paint3_linear_75_4" x1="36.8226" y1="43.4035" x2="28.1498" y2="45.6401" gradientUnits="userSpaceOnUse">
<stop stop-color="#75EAAF"/>
<stop offset="0.489" stop-color="#71EBB3"/>
<stop offset="1" stop-color="#B9EB44"/>
</linearGradient>
<linearGradient id="paint4_linear_75_4" x1="34.0959" y1="45.8942" x2="39.4273" y2="51.5999" gradientUnits="userSpaceOnUse">
<stop stop-color="#61DE9C"/>
<stop offset="1" stop-color="#39DCBE"/>
</linearGradient>
<linearGradient id="paint5_linear_75_4" x1="37.9903" y1="41.9044" x2="44.5547" y2="45.4553" gradientUnits="userSpaceOnUse">
<stop stop-color="#0094CF"/>
<stop offset="1" stop-color="#01AAE2" stop-opacity="0.102"/>
</linearGradient>
<linearGradient id="paint6_linear_75_4" x1="36.9968" y1="48.8478" x2="36.9968" y2="-0.0166016" gradientUnits="userSpaceOnUse">
<stop stop-color="#A8EA79"/>
<stop offset="0.736" stop-color="#4EE5FE"/>
<stop offset="1" stop-color="#00DCFF"/>
</linearGradient>
<linearGradient id="paint7_linear_75_4" x1="49.0554" y1="71.2406" x2="34.7389" y2="1.08177" gradientUnits="userSpaceOnUse">
<stop stop-color="#B8F58D"/>
<stop offset="1" stop-color="#29E2ED"/>
</linearGradient>
<linearGradient id="paint8_linear_75_4" x1="6.55877" y1="34.9134" x2="9.04961" y2="11.2243" gradientUnits="userSpaceOnUse">
<stop stop-color="#54E8D0"/>
<stop offset="1" stop-color="#3EE3FE"/>
</linearGradient>
<linearGradient id="paint9_linear_75_4" x1="4.13856" y1="28.573" x2="12.2692" y2="12.9936" gradientUnits="userSpaceOnUse">
<stop offset="0.247" stop-color="#09B1DD" stop-opacity="0"/>
<stop offset="1" stop-color="#05A9E2"/>
</linearGradient>
<linearGradient id="paint10_linear_75_4" x1="17.9627" y1="11.9045" x2="22.221" y2="21.0197" gradientUnits="userSpaceOnUse">
<stop stop-color="#48E4FE"/>
<stop offset="1" stop-color="#5DE5E7"/>
</linearGradient>
<linearGradient id="paint11_linear_75_4" x1="54.6073" y1="18.6306" x2="57.4735" y2="10.0256" gradientUnits="userSpaceOnUse">
<stop stop-color="#5DE5E6"/>
<stop offset="1" stop-color="#3EE3FE"/>
</linearGradient>
<linearGradient id="paint12_linear_75_4" x1="69.9207" y1="31.2772" x2="61.0033" y2="15.31" gradientUnits="userSpaceOnUse">
<stop stop-color="#85EEAF"/>
<stop offset="1" stop-color="#39E2FE"/>
</linearGradient>
<linearGradient id="paint13_linear_75_4" x1="67.2719" y1="36.2923" x2="67.2719" y2="10.0994" gradientUnits="userSpaceOnUse">
<stop offset="0.247" stop-color="#09B1DD" stop-opacity="0"/>
<stop offset="1" stop-color="#05A9E2"/>
</linearGradient>
<linearGradient id="paint14_linear_75_4" x1="4.98274" y1="23.5012" x2="4.98274" y2="36.9008" gradientUnits="userSpaceOnUse">
<stop stop-color="#45E3E5" stop-opacity="0"/>
<stop offset="0.167" stop-color="#49E4E1"/>
<stop offset="0.891" stop-color="#58E8CF"/>
<stop offset="1" stop-color="#5AE9CC" stop-opacity="0"/>
</linearGradient>
<linearGradient id="paint15_linear_75_4" x1="69.0387" y1="24.6885" x2="69.0387" y2="38.0881" gradientUnits="userSpaceOnUse">
<stop stop-color="#51DACF" stop-opacity="0"/>
<stop offset="0.088" stop-color="#57DCCB" stop-opacity="0.639"/>
<stop offset="0.676" stop-color="#89EEAC"/>
<stop offset="1" stop-color="#91F0A7" stop-opacity="0"/>
</linearGradient>
</defs>
</svg>
