<svg xmlns="http://www.w3.org/2000/svg" xmlns:xlink="http://www.w3.org/1999/xlink" width="300" height="300" viewBox="0 0 300 300">
  <defs>
    <clipPath id="clip-path">
      <rect id="Rectangle_4" data-name="Rectangle 4" width="300" height="300" transform="translate(123 87)" fill="#fff"/>
    </clipPath>
    <linearGradient id="linear-gradient" x1="0.084" y1="0.939" x2="0.889" y2="0.287" gradientUnits="objectBoundingBox">
      <stop offset="0" stop-color="#fca111"/>
      <stop offset="0.1" stop-color="#fd867c"/>
      <stop offset="0.242" stop-color="#f97480"/>
      <stop offset="0.339" stop-color="#f474b0"/>
      <stop offset="0.512" stop-color="#d278f8"/>
      <stop offset="0.774" stop-color="#9588f9"/>
      <stop offset="1" stop-color="#7664fe"/>
    </linearGradient>
  </defs>
  <g id="shoppress-icon" transform="translate(-123 -87)" clip-path="url(#clip-path)">
    <g id="Icon" transform="translate(-1013.999 -10.052)">
      <path id="Path_7" data-name="Path 7" d="M-3351.881-4919.053H-3421a19.868,19.868,0,0,1-14.142-5.857,19.868,19.868,0,0,1-5.858-14.142l22-190a19.869,19.869,0,0,1,5.857-14.142,19.869,19.869,0,0,1,14.142-5.857h27.557a65.857,65.857,0,0,1,5.366-25.665,66.373,66.373,0,0,1,14.28-20.962,66.359,66.359,0,0,1,21.068-14.137A65.879,65.879,0,0,1-3305-5215a65.879,65.879,0,0,1,25.731,5.184,66.362,66.362,0,0,1,21.067,14.137,66.366,66.366,0,0,1,14.279,20.962,65.85,65.85,0,0,1,5.365,25.665H-3210a19.87,19.87,0,0,1,14.143,5.857,19.868,19.868,0,0,1,5.858,14.142l6.354,57.5-2.715-24.356-124.394-.07c-11.851,0-22.729,4.413-32.331,13.115a59.749,59.749,0,0,0-18.658,31.256c-2.78,12.036-1.409,22.364,4.074,30.7,5.727,8.889,14.639,13.4,26.489,13.4h90.142a4.8,4.8,0,0,1,3.984,1.614c1.347,1.693,1.519,4.766.51,9.132a18.475,18.475,0,0,1-3.6,8.057,7.518,7.518,0,0,1-5.851,2.685h-90.419l-7.731,33.491-7.731,33.485ZM-3305-5196.325a47.922,47.922,0,0,0-47.768,47.272h95.535A47.921,47.921,0,0,0-3305-5196.325Zm116,277.271h-129.391l7.727-33.485h56.934c11.853,0,22.843-4.492,32.665-13.352a59.691,59.691,0,0,0,18.012-30.881c2.77-12,1.5-22.391-3.777-30.882-5.751-8.86-14.687-13.353-26.559-13.353h-90.321a4.852,4.852,0,0,1-4.025-1.623c-1.333-1.675-1.508-4.7-.519-8.981a18.866,18.866,0,0,1,3.632-8.163,7.521,7.521,0,0,1,5.872-2.721l136.072-.339-.964-8.722.972,8.722h-.009l13.68,123.78a19.869,19.869,0,0,1-5.857,14.142A19.869,19.869,0,0,1-3189-4919.054Z" transform="translate(4592 5314.052)" stroke="rgba(0,0,0,0)" stroke-width="1" fill="url(#linear-gradient)"/>
    </g>
  </g>
</svg>
