<svg xmlns="http://www.w3.org/2000/svg" width="18" height="17.164" viewBox="0 0 18 17.164">
  <path id="sp-wishlist-ico-8" d="M15.6,19.566a1.206,1.206,0,0,1-.674-.206l-4.052-2.716a.12.12,0,0,0-.136,0L6.685,19.359A1.206,1.206,0,0,1,4.849,18.05L6.18,13.357a.125.125,0,0,0-.043-.13L2.3,10.212A1.206,1.206,0,0,1,3,8.039l4.889-.185A.125.125,0,0,0,8,7.773L9.684,3.194a1.206,1.206,0,0,1,2.265,0l1.684,4.579a.125.125,0,0,0,.109.081l4.889.185a1.206,1.206,0,0,1,.7,2.173L15.5,13.227a.12.12,0,0,0-.043.13l1.331,4.693A1.211,1.211,0,0,1,15.6,19.566Zm-4.791-4.03a1.2,1.2,0,0,1,.668.228l4.052,2.716a.12.12,0,0,0,.185-.136L14.382,13.65a1.2,1.2,0,0,1,.418-1.276l3.835-3.015a.12.12,0,0,0-.071-.217l-4.889-.185a1.206,1.206,0,0,1-1.086-.793L10.906,3.585a.12.12,0,0,0-.228,0L9.01,8.159a1.206,1.206,0,0,1-1.086.793l-4.889.185a.12.12,0,0,0-.071.217l3.84,3.02a1.206,1.206,0,0,1,.418,1.276L5.9,18.344a.114.114,0,0,0,.043.13.109.109,0,0,0,.141,0l4.052-2.716a1.206,1.206,0,0,1,.668-.2Z" transform="translate(-1.816 -2.402)"/>
</svg>
