<svg xmlns="http://www.w3.org/2000/svg" width="18" height="15.372" viewBox="0 0 18 15.372">
  <path id="sp-wishlist-ico-2" d="M4.27,2l-.47.051-.461.1-.45.144-.429.192-.408.237L1.672,3l-.35.315L1,3.668.727,4.05l-.234.408L.3,4.889l-.148.449-.1.461-.049.468V6.74l.049.47.1.459L.3,8.117l.192.431.234.406L1,9.338l.318.35,7.684,7.688,7.688-7.688.315-.35.28-.384.234-.406.192-.431.148-.449.1-.459.049-.47V6.266L17.959,5.8l-.1-.461-.148-.449-.192-.431-.234-.408-.28-.382-.315-.35L16.344,3l-.38-.276-.41-.237L15.123,2.3l-.447-.144-.461-.1L13.745,2h-.47l-.468.051-.463.1L11.9,2.3l-.431.192-.406.237L10.677,3l-.35.315L9.006,4.639,7.688,3.318,7.338,3l-.382-.276-.408-.237L6.117,2.3l-.447-.144-.463-.1L4.74,2Zm.016.9h.435l.435.053.42.1.406.157.387.2.357.246.325.289L9.006,5.911l1.958-1.956.325-.289.357-.246.387-.2.406-.157.42-.1.435-.053h.433l.433.053.42.1.408.157.385.2.357.246.327.289.288.327.246.357.2.385.155.406.1.422.051.433V6.72l-.051.431-.1.424-.155.408-.2.385-.246.357-.288.324L9.006,16.1,1.957,9.049l-.289-.324L1.42,8.369l-.2-.385-.155-.408-.1-.424L.91,6.72V6.286l.051-.433.1-.422.155-.406.2-.385.248-.357.289-.327.325-.289.359-.246.384-.2.406-.157.424-.1Z" transform="translate(-0.008 -2.004)"/>
</svg>
