<svg xmlns="http://www.w3.org/2000/svg" width="18" height="16.5" viewBox="0 0 18 16.5">
  <path id="sp-wishlist-ico-6" d="M11.993,5.1A5.418,5.418,0,0,0,3,9.11a5.324,5.324,0,0,0,1.352,3.56L12,20.25l7.422-7.356.219-.231A5.313,5.313,0,0,0,21,9.11,5.418,5.418,0,0,0,12.007,5.1L12,5.09ZM12,7.1l.055.048.853-.845L13,6.224A3.918,3.918,0,0,1,19.5,9.11a3.812,3.812,0,0,1-.964,2.538l-.187.2L12,18.138l-6.557-6.5A3.825,3.825,0,0,1,4.5,9.11,3.918,3.918,0,0,1,11,6.224l.089.078.853.845Z" transform="translate(-3 -3.75)" fill-rule="evenodd"/>
</svg>
