<svg xmlns="http://www.w3.org/2000/svg" width="18" height="16.65" viewBox="0 0 18 16.65">
  <path id="sp-wishlist-ico-5" d="M9,17.65l-.45-.375C6.525,15.775,0,10.375,0,5.725A4.787,4.787,0,0,1,4.875,1,4.984,4.984,0,0,1,9,3.175H9A4.984,4.984,0,0,1,13.125,1,4.787,4.787,0,0,1,18,5.725c0,4.725-6.525,10.05-8.55,11.625ZM4.875,2.425A3.284,3.284,0,0,0,1.5,5.65C1.5,8.725,5.325,12.775,9,15.7c3.675-2.925,7.5-6.975,7.5-10.05a3.284,3.284,0,0,0-3.375-3.225,3.413,3.413,0,0,0-2.85,1.5L9,5.95,7.725,4A3.3,3.3,0,0,0,4.875,2.425Z" transform="translate(0 -1)"/>
</svg>
