<svg xmlns="http://www.w3.org/2000/svg" width="18" height="17.099" viewBox="0 0 18 17.099">
  <path id="sp-wishlist-ico-3" d="M28.148,20.292a3.975,3.975,0,0,1,3.977,3.971c0,1.522-.66,3.919-3.8,6.688A22.626,22.626,0,0,1,25,33.357a22.625,22.625,0,0,1-3.321-2.406c-3.139-2.769-3.8-5.166-3.8-6.688a3.971,3.971,0,0,1,6.114-3.347L25,21.565l1.011-.649a3.96,3.96,0,0,1,2.137-.624m0-1.875A5.828,5.828,0,0,0,25,19.338a5.846,5.846,0,0,0-9,4.926c0,6.75,9,11.25,9,11.25s9-4.5,9-11.25a5.846,5.846,0,0,0-5.852-5.846Z" transform="translate(-16 -18.414)" fill="#231f20"/>
</svg>
