<svg xmlns="http://www.w3.org/2000/svg" width="18" height="15.231" viewBox="0 0 18 15.231">
  <g id="sp-wishlist-ico-12" transform="translate(-3 -5)">
    <path id="Path_20" data-name="Path 20" d="M18.231,7.077H11.862L10.276,5.692A2.769,2.769,0,0,0,8.448,5H5.769A2.769,2.769,0,0,0,3,7.769v9.692a2.769,2.769,0,0,0,2.769,2.769H18.231A2.769,2.769,0,0,0,21,17.462V9.846A2.769,2.769,0,0,0,18.231,7.077Zm1.385,10.385a1.385,1.385,0,0,1-1.385,1.385H5.769a1.385,1.385,0,0,1-1.385-1.385V7.769A1.385,1.385,0,0,1,5.769,6.385H8.448a1.385,1.385,0,0,1,.914.339l1.786,1.565a.692.692,0,0,0,.457.173h6.625a1.385,1.385,0,0,1,1.385,1.385Z"/>
    <path id="Path_21" data-name="Path 21" d="M14.641,14.126a2.132,2.132,0,0,0-2.451.367,2.077,2.077,0,0,0,0,2.935l1.959,1.959a.692.692,0,0,0,.983,0l1.959-1.959a2.077,2.077,0,0,0,0-2.935,2.125,2.125,0,0,0-2.451-.367Zm1.468,2.326L14.641,17.92l-1.468-1.468a.693.693,0,1,1,.976-.983.692.692,0,0,0,.983,0,.693.693,0,1,1,.976.983Z" transform="translate(-2.641 -2.736)"/>
  </g>
</svg>
