<svg xmlns="http://www.w3.org/2000/svg" width="18" height="17.228" viewBox="0 0 18 17.228">
  <path id="sp-wishlist-ico-9" d="M87.966,112.556l-3.874,2.033a.978.978,0,0,1-.781.1,1.14,1.14,0,0,1-.631-.46.971.971,0,0,1-.15-.77l.728-4.323a1.142,1.142,0,0,0-.032-.514,1.038,1.038,0,0,0-.268-.449l-3.146-3.061a.984.984,0,0,1-.332-.717,1.1,1.1,0,0,1,.246-.738,1.041,1.041,0,0,1,.685-.385l4.345-.642a1.137,1.137,0,0,0,.471-.193,1.114,1.114,0,0,0,.342-.385L87.5,98.11a1.15,1.15,0,0,1,.6-.535,1.028,1.028,0,0,1,.77,0,1.15,1.15,0,0,1,.6.535l1.926,3.938a1.114,1.114,0,0,0,.342.385,1.137,1.137,0,0,0,.471.193l4.345.642a1.041,1.041,0,0,1,.685.385,1.1,1.1,0,0,1,.246.738.984.984,0,0,1-.332.717L94,108.169a1.275,1.275,0,0,0-.257.449,1.054,1.054,0,0,0-.043.514l.728,4.323a.971.971,0,0,1-.15.77,1.14,1.14,0,0,1-.631.46.978.978,0,0,1-.781-.1l-3.874-2.033a1.092,1.092,0,0,0-1.027,0Z" transform="translate(-79.48 -97.5)"/>
</svg>
