<svg xmlns="http://www.w3.org/2000/svg" width="14.944" height="18" viewBox="0 0 14.944 18">
  <path id="sp-wishlist-ico-10" d="M4.817,18.249A1.492,1.492,0,0,1,4.16,18.1a1.758,1.758,0,0,1-.981-1.617V2.019A1.706,1.706,0,0,1,4.812.25H16.488a1.706,1.706,0,0,1,1.633,1.769V16.481A1.758,1.758,0,0,1,17.14,18.1a1.518,1.518,0,0,1-1.638-.2l-4.7-3.824a.24.24,0,0,0-.313,0L5.8,17.895a1.565,1.565,0,0,1-.981.355Zm5.833-5.541a1.565,1.565,0,0,1,.981.35l4.7,3.824h0a.219.219,0,0,0,.256.037.454.454,0,0,0,.235-.438V2.019c0-.245-.157-.464-.329-.464H4.812c-.172,0-.329.219-.329.464V16.481a.454.454,0,0,0,.235.438.219.219,0,0,0,.256-.037l4.7-3.824a1.565,1.565,0,0,1,.981-.35Z" transform="translate(-3.178 -0.25)"/>
</svg>
