<svg xmlns="http://www.w3.org/2000/svg" width="15.834" height="15.834" viewBox="0 0 15.834 15.834">
  <path id="sp-wishlist-ico-7" d="M16.417,9.583A7.917,7.917,0,1,1,8.5,1.666a7.917,7.917,0,0,1,7.917,7.917ZM13.337,7.59l-1.472-.174L10.38,7.24l-1.247-2.7c-.345-.747-.908-.747-1.253,0L6.633,7.24l-1.485.176L3.677,7.59c-.817.1-.991.633-.387,1.192L4.378,9.788l1.1,1.015L5.184,12.27l-.289,1.453c-.16.807.3,1.138,1.014.737l2.6-1.455,2.6,1.455c.717.4,1.173.07,1.013-.737l-.58-2.92,1.1-1.015,1.089-1.006c.6-.559.43-1.1-.387-1.192Z" transform="translate(-0.583 -1.666)"/>
</svg>
