<svg xmlns="http://www.w3.org/2000/svg" width="13.44" height="18" viewBox="0 0 13.44 18">
  <path id="sp-wishlist-ico-11" d="M53.7,0H43.319a1.532,1.532,0,0,0-1.531,1.53V17.213a.787.787,0,0,0,1.076.732l5.644-2.23,5.645,2.23a.787.787,0,0,0,1.075-.732V1.53A1.531,1.531,0,0,0,53.7,0ZM51.131,8.658l-1.372,1,.524,1.613a.262.262,0,0,1-.095.293.262.262,0,0,1-.309,0l-1.371-1-1.371,1a.262.262,0,0,1-.4-.293l.524-1.613-1.372-1a.262.262,0,0,1,.154-.475h1.7l.524-1.612a.273.273,0,0,1,.5,0l.524,1.612h1.7a.262.262,0,0,1,.154.475Z" transform="translate(-41.788)"/>
</svg>
