<svg xmlns="http://www.w3.org/2000/svg" width="111.893" height="101.485" xmlns:v="https://vecta.io/nano"><g fill="none" stroke="#737d8b" stroke-linejoin="round" stroke-width="2"><path d="M73.444 54.924l-4.056 4.056-4.052 4.056c2.834 8.22 9.509 14.205 12.646 16.67.94.735 2.28.651 3.122-.194l4.408-4.408 4.408-4.408a2.36 2.36 0 0 0 .2-3.125c-2.464-3.137-8.452-9.805-16.676-12.647z"/><path d="M81.931 78.685l20.316 20.316a5.07 5.07 0 0 0 3.582 1.484h0c1.344 0 2.633-.534 3.583-1.485s1.483-2.24 1.482-3.584h0a5.06 5.06 0 0 0-1.484-3.582L89.098 71.518m-23.762-8.482a14.24 14.24 0 0 1-8.834-1.573c-2.526-1.4-4.063-4.164-5.137-6.844a25.4 25.4 0 0 1-1.361-6.987l-.884-8.92 8.921.88a25.32 25.32 0 0 1 6.991 1.365c2.677 1.071 5.446 2.612 6.844 5.134a14.25 14.25 0 0 1 1.57 8.835m-6.317-6.206c-.349-.636-1.351-1.624-4.117-2.731a21.18 21.18 0 0 0-5.5-1" stroke-linecap="round"/></g><path d="M78.239 67.617a12.38 12.38 0 0 1 5.34-2.969c-2.789-2.418-5.906-4.429-9.258-5.973l-5.4 5.181c1.631 3.247 3.727 6.238 6.223 8.879a11.71 11.71 0 0 1 3.095-5.118z" fill="#21dbfa" opacity=".6"/><g fill="none" stroke="#737d8b" stroke-linejoin="round" stroke-width="2"><path d="M67.128 78.51H7.934c-1.839 0-3.603-.73-4.903-2.031S1 73.415 1 71.576V6.094A5.1 5.1 0 0 1 6.094 1H90.71a5.1 5.1 0 0 1 5.094 5.094v59.458" stroke-linecap="round"/><path d="M13.743 11.243a.891.891 0 1 0-1.782 0 .891.891 0 1 0 1.782 0zm10.171 0c.001-.493-.398-.894-.891-.895s-.894.398-.895.891.398.894.891.895.893-.398.895-.891zm10.167 0c.001-.362-.216-.688-.55-.827s-.718-.062-.974.193a.89.89 0 0 0-.193.974c.139.334.465.551.827.55a.89.89 0 0 0 .891-.891z"/><path d="M1.001 21.29h94.803m-82.803 13H36.5m-23.499 24H36.5m-23.499-16H48.5m-35.499 8H48.5" stroke-linecap="round"/></g></svg>