<svg xmlns="http://www.w3.org/2000/svg" width="98.612" height="101.46" xmlns:v="https://vecta.io/nano"><style><![CDATA[.B{stroke-width:2}.C{stroke-miterlimit:10}.D{stroke-linecap:round}]]></style><g fill="none" stroke="#737d8b" class="B"><g class="D"><g stroke-linejoin="round"><path d="M66.55 17.631h6.356"/><path d="M72.906 17.631h17.509a7.2 7.2 0 0 1 7.2 7.2v57.334a7.2 7.2 0 0 1-7.2 7.2H8.196a7.2 7.2 0 0 1-7.2-7.2V24.831a7.2 7.2 0 0 1 7.2-7.2h26.179"/><path d="M24.666 89.36l-4.391 11.1H78.34l-4.391-11.1"/></g><path d="M42.024 55.743l-1.419-3.69C29.354 22.209 50.462 1.405 50.462 1.405s17.767 17.509 12.015 43.44a52.48 52.48 0 0 1-2.158 7.208l-1.415 3.686m-20.66-11.858c-9.052 9.052-.884 21.386-.884 21.386l1-1c3.212-3.209 7.566-5.013 12.106-5.014h0a17.13 17.13 0 0 1 12.106 5.014l1 1s8.163-12.334-.888-21.386" class="C"/></g><path d="M56.455 33.402c-.001 3.308-2.683 5.989-5.992 5.989s-5.99-2.682-5.99-5.99 2.681-5.991 5.989-5.992a5.99 5.99 0 0 1 5.993 5.993z" class="C"/><g class="D C"><path d="M58.031 12.427a12.24 12.24 0 0 1-15.132 0m2.404 55.433c.033 11.123 5.159 13.845 5.159 13.845s5.13-2.723 5.159-13.845"/><path d="M50.488 64.484v6.334"/></g></g><path d="M92.47 82.162V61.1L69.353 84.212h21.06a2.05 2.05 0 0 0 1.453-.599c.386-.385.603-.907.604-1.451zm-86.154 0V61.1l23.112 23.112H8.365a2.05 2.05 0 0 1-2.049-2.05z" opacity=".6" fill="#21dbfa"/></svg>