<svg xmlns="http://www.w3.org/2000/svg" width="190" height="144.566" viewBox="0 0 190 144.566">
  <g id="sp-backend-support-illu-1" transform="translate(-81.136 0.003)">
    <g id="g6940" transform="translate(81.136 19.296)">
      <path id="path6942" d="M10553.341-2817.413c1.349-6.282,11.017-20.437,18.259-26.924,16.936-14.374,34.019-24.445,56.058-24.645,32.37-.3,67.094,3.966,91.479,25.1,12.644,10.961,21.365,27.074,19.809,45.265a46.792,46.792,0,0,1-9.28,24.433c-8.251,10.693-35.717,18.662-48.342,20.282-21.514,2.761-27.845,4.958-50.948,3.921-25.312-1.138-54.474,2.851-71.073-17.257a73.976,73.976,0,0,1-5.247-13.351c-1.977-7.168-4.547-23.322-.713-36.824" transform="translate(-10551.36 2868.997)" fill="#eef2f5"/>
    </g>
    <g id="g6944" transform="translate(143.057 38.781)">
      <path id="path6946" d="M11017.064-2789.423a2.844,2.844,0,0,0-2.2,1.139,2.827,2.827,0,0,0-.381,2.564c.1.334-.416.478-.537.146a3.39,3.39,0,0,1,.484-3.036,3.38,3.38,0,0,1,2.635-1.357c.346-.009.346.538,0,.546h0" transform="translate(-11013.78 2789.968)" fill="#fff"/>
    </g>
    <g id="g6948" transform="translate(169.513 20.155)">
      <path id="path6950" d="M10778.036-2837.8c.48-2.591,1.187-5.107,1.906-7.607a108.8,108.8,0,0,1,5.338-14.771c.256-.577.618-2.1.809-2.6a22.206,22.206,0,0,1,5.68,7.427c1.65,3.224,1.324,5.116,1.324,9.116,0,3.269.994,8.225,2.832,11.114a18.3,18.3,0,0,0,5.048,4.961c2.093,1.473,4.309,2.715,6.368,4.238a20.153,20.153,0,0,1,4.772,4.9,16.837,16.837,0,0,1,2.814,11.853.1.1,0,0,0-.017.065,9.851,9.851,0,0,1-2.884,1.329,85.979,85.979,0,0,1-11.536-3.422c-2.66-.994-5.3-2.12-7.881-3.373a49.462,49.462,0,0,1-6.5-3.686,22.837,22.837,0,0,1-5.306-4.869,15.28,15.28,0,0,1-3-6.93,22.979,22.979,0,0,1,.24-7.753" transform="translate(-10777.565 2862.772)" fill="#252637"/>
    </g>
    <g id="g6952" transform="translate(135.391 17.124)">
      <path id="path6954" d="M10912.7-2824.951a10.882,10.882,0,0,0,1.547,6.109,6.184,6.184,0,0,0,2.24,2.063,8.447,8.447,0,0,0,3.2.888,28.5,28.5,0,0,0,3.475.069c1.3-.026,2.589-.057,3.894-.1l1.095-.035c.035-6.445,21.615-12.584,21.649-19.028.035-7.619-12.25-29.856-12.2-37.476.035-3.619-3.006-2.318-7.263,1.286-5.77,4.886-6.013,12.25-7.316,19.11a28.071,28.071,0,0,1-2.293,6.843c-2.049,4.393-4.8,8.439-6.516,12.99a20.928,20.928,0,0,0-1.511,7.277" transform="translate(-10912.698 2874.607)" fill="#252637"/>
    </g>
    <g id="g6956" transform="translate(90.44 58.169)">
      <path id="path6958" d="M10580.8-2643.275a19.365,19.365,0,0,1-4.094-12.286c-.088-13.942,17.413-29.855,30.165-41.38,3.494-3.156,6.811-6.506,10.534-9.407,10.144-7.926,21.752-8.136,34.1-7.454,13.954.769,28.262.632,41.175,6.755a88.62,88.62,0,0,1,19.052,12.71c5.77,4.964,21.471,19.352,23.253,21.153,6.792,6.849,11.395,14.93,9.227,24.973-3,13.9-18.877,13.975-30.767,13.524-10.32-.39-26.763-4.02-36.959-7.492-.847,1.564-2.663,1.728-4.287,2.583-2.47,1.287-5.327,1.546-8.045,1.779a182.411,182.411,0,0,1-20.233.607,181.941,181.941,0,0,1-20.252-1.647c-.266-.037-.513-.077-.776-.113a109.177,109.177,0,0,1-16.09,3.947c-9.7,1.317-20.34-1.156-26-8.252" transform="translate(-10576.708 2714.05)" fill="#fff"/>
    </g>
    <g id="g6960" transform="translate(91.807 124.551)">
      <path id="path6962" d="M11136.638-2442.351a38.162,38.162,0,0,1-14.327.062,25.739,25.739,0,0,1-11.961-5.577,18.723,18.723,0,0,1-4.835-6.6c-.142-.319.335-.6.459-.275a19.569,19.569,0,0,0,9.4,9.556,30.729,30.729,0,0,0,13,3,39.8,39.8,0,0,0,8.1-.7c.353-.063.494.461.159.526h0" transform="translate(-11105.488 2454.881)" fill="#1e203d"/>
    </g>
    <g id="g6964" transform="translate(206.951 114.547)">
      <path id="path6966" d="M10627.2-2493.742a24.3,24.3,0,0,1,.017,8.506,17.06,17.06,0,0,1-2.049,5.759,15.931,15.931,0,0,1-7.791,6.509,34.222,34.222,0,0,1-10.875,2.256,93.624,93.624,0,0,1-11.415-.011,116.63,116.63,0,0,1-16.869-2.39q-1.118-.227-2.236-.468c-.338-.074-.186-.6.153-.525a132.675,132.675,0,0,0,16.954,2.7,95.12,95.12,0,0,0,11.67.244,39.274,39.274,0,0,0,10.839-1.724,16.594,16.594,0,0,0,8.3-5.642c2.728-3.69,3.438-8.558,3.05-13.033-.069-.683-.154-1.36-.272-2.032-.068-.344.458-.492.525-.146h0" transform="translate(-10575.793 2493.94)" fill="#1e203d"/>
    </g>
    <g id="g6968" transform="translate(142.334 59.896)">
      <path id="path6970" d="M10990.138-2707.267q3.845,11.414,7.713,22.832,1.093,3.224,2.185,6.45c.12.333-.4.476-.521.144q-3.848-11.414-7.73-22.832c-.728-2.15-1.456-4.3-2.167-6.45-.121-.333.4-.475.521-.144h0" transform="translate(-10989.598 2707.456)" fill="#1e203d"/>
    </g>
    <g id="g6972" transform="translate(178.3 60.032)">
      <path id="path6974" d="M10859.682-2706.587q-3.312,11.711-7.46,23.152c-.788,2.151-1.592,4.3-2.43,6.435-.12.324-.652.183-.53-.145q4.414-11.341,7.956-22.986c.668-2.192,1.318-4.393,1.935-6.6a.274.274,0,0,1,.334-.183.274.274,0,0,1,.2.327h0" transform="translate(-10849.244 2706.923)" fill="#1e203d"/>
    </g>
    <g id="g6976" transform="translate(146.282 58.207)">
      <path id="path6978" d="M10882.6-2713.806c6.577.364,13.259.524,19.818,1.239l-.156.491c-1.178,3.614-2.335,7.23-3.514,10.846s-2.336,7.235-3.513,10.853c-.623,1.951-1.263,3.905-1.887,5.855l-5.021-.192-14.452-.557c-.45-.018-.9-.036-1.352-.051q-.935-2.918-1.87-5.835c-.864-2.7-1.713-5.394-2.595-8.09l-2.579-8.087c-.623-1.927-1.23-3.851-1.853-5.777,6.041-1.165,12.41-1.056,18.97-.694" transform="translate(-10863.63 2714.053)" fill="#fff"/>
    </g>
    <g id="g6980" transform="translate(147.596 17.789)">
      <path id="path6982" d="M10911.172-2857.548a11.672,11.672,0,0,0-2.908-9.511,16.315,16.315,0,0,0-16.477-4.192c-7.114,2.44-9.712,8.564-11.356,15.057-.156.6-.294,1.248-.432,1.932-.086.149-.156.3-.242.446-3.532,6.319-3.721,14.493,2.7,16.44,4.88,1.486,10.022-.991,14.229-2.913,6.68-3.044,13.516-9.186,14.486-17.258" transform="translate(-10877.314 2872.009)" fill="#c87357"/>
    </g>
    <g id="g6984" transform="translate(152.344 15.709)">
      <path id="path6986" d="M10912.4-2875.71s-7.481,2.367-10.555,8.086c0,0-.969-6.472,3.645-9.868,4.629-3.4,11.714-3.156,17.241-1.289,6.237,2.1-4.249,4.875-4.249,4.875l-6.082-1.8" transform="translate(-10901.757 2880.131)" fill="#252637"/>
    </g>
    <g id="g6988" transform="translate(159.623 43.54)">
      <path id="path6990" d="M10916.4-2771.07s.345,8.355.6,13.51c0,0,.242,3.575,5.6,3.425,5.875-.166,5.738-4.019,5.738-4.019l-.673-13.215-11.268.3" transform="translate(-10916.399 2771.369)" fill="#c87357"/>
    </g>
    <g id="g6992" transform="translate(155.586 56.831)">
      <path id="path6994" d="M10908.1-2710.68l16.648.331a.733.733,0,0,0,.743-.709l.138-7.325a.73.73,0,0,0-.707-.739l-16.649-.331a.717.717,0,0,0-.518.2.724.724,0,0,0-.226.509l-.154,7.326a.734.734,0,0,0,.725.739" transform="translate(-10907.372 2719.453)" fill="#fff"/>
    </g>
    <g id="g6996" transform="translate(166.213 34.991)">
      <path id="path6998" d="M10891.485-2780.857a13.355,13.355,0,0,1-7.463-14.141c1.016-7.331,7.43-10.9,9.923-9.447,1.513.882,2.664,8.233,2.664,8.233l.91,8.619-6.034,6.735" transform="translate(-10883.87 2804.763)" fill="#252637"/>
    </g>
    <g id="g7000" transform="translate(152.897 43.406)">
      <path id="path7002" d="M10979.021-2771.094a2.914,2.914,0,0,1-3.246-.354c-.26-.231.12-.615.4-.387a2.329,2.329,0,0,0,2.573.27c.312-.167.589.3.277.471h0" transform="translate(-10975.688 2771.904)" fill="#252637"/>
    </g>
    <g id="g7004" transform="translate(159.841 50.011)">
      <path id="path7006" d="M10948.3-2745.592a13.711,13.711,0,0,1-4.271,2.113.273.273,0,0,1-.329-.188.273.273,0,0,1,.175-.337,13.292,13.292,0,0,0,4.15-2.059.263.263,0,0,1,.2-.028.266.266,0,0,1,.161.124.285.285,0,0,1-.087.374h0" transform="translate(-10943.691 2746.098)" fill="#252637"/>
    </g>
    <g id="g7008" transform="translate(152.851 37.023)">
      <path id="path7010" d="M10984.758-2796.372a3.845,3.845,0,0,0-.881,1.406,1.231,1.231,0,0,0,.275,1.252c.26.235-.121.619-.38.384a1.754,1.754,0,0,1-.448-1.7,4.157,4.157,0,0,1,1.054-1.732.272.272,0,0,1,.38,0,.269.269,0,0,1,.084.194.267.267,0,0,1-.084.193h0" transform="translate(-10983.262 2796.837)" fill="#252637"/>
    </g>
    <g id="g7012" transform="translate(163.506 60.666)">
      <path id="path7014" d="M10943.753-2704.185q-.567,11.336-.739,22.687c-.035,2.133-.051,4.268-.067,6.4a.278.278,0,0,1-.276.264.275.275,0,0,1-.275-.264q.076-11.361.533-22.717c.086-2.124.172-4.249.274-6.372.018-.35.567-.353.551,0h0" transform="translate(-10942.395 2704.448)" fill="#1e203d"/>
    </g>
    <g id="g7016" transform="translate(195.661 93.173)">
      <path id="path7018" d="M10697.285-2561.468q-8.164-3.385-16.411-6.491-8.188-3.081-16.479-5.882c-3.13-1.06-6.293-2.09-9.456-3.09-.324-.105-.187-.633.153-.526q8.417,2.658,16.718,5.6,8.24,2.926,16.395,6.129,4.617,1.821,9.216,3.731c.324.133.188.662-.136.526h0" transform="translate(-10654.755 2577.472)" fill="#1e203d"/>
    </g>
    <g id="g7020" transform="translate(100.181 95.048)">
      <path id="path7022" d="M11129.855-2569.645q-8.525,5.183-17.083,10.364c-1.619.98-3.236,1.958-4.838,2.936a.273.273,0,0,1-.368-.1.274.274,0,0,1,.085-.372q8.552-5.18,17.1-10.364c1.6-.978,3.22-1.956,4.837-2.935a.27.27,0,0,1,.367.1.269.269,0,0,1-.1.367h0" transform="translate(-11107.526 2570.15)" fill="#1e203d"/>
    </g>
    <g id="g7024" transform="translate(170.669 58.823)">
      <path id="path7026" d="M10909.333-2711.337q-1.518,4.427-3.037,8.853c-.1.331-.635.189-.515-.146q1.518-4.425,3.036-8.853c.1-.329.636-.189.516.146h0" transform="translate(-10905.764 2711.671)" fill="#1e203d"/>
    </g>
    <g id="g7028" transform="translate(155.153 58.041)">
      <path id="path7030" d="M10970.066-2714.531l2.227,9.072a.269.269,0,0,1-.187.332.268.268,0,0,1-.331-.187q-1.113-4.533-2.227-9.073a.27.27,0,0,1,.187-.331.268.268,0,0,1,.331.187h0" transform="translate(-10969.539 2714.728)" fill="#1e203d"/>
    </g>
    <g id="g7032" transform="translate(164.345 60.656)">
      <path id="path7034" d="M10924.144-2697.04q-3.171-3.5-6.347-7c-.24-.259.138-.646.378-.384l6.348,7c.242.26-.139.646-.379.384h0" transform="translate(-10917.72 2704.511)" fill="#1e203d"/>
    </g>
    <g id="g7036" transform="translate(157.386 60.666)">
      <path id="path7038" d="M10942.548-2697.952c2.311-2.15,4.638-4.3,6.948-6.447.259-.24.639.147.38.386q-3.464,3.223-6.948,6.447c-.259.238-.639-.146-.38-.386h0" transform="translate(-10942.461 2704.474)" fill="#1e203d"/>
    </g>
    <g id="g7040" transform="translate(198.913 8.976)">
      <path id="path7042" d="M10542.491-2862.756h53.662a8.41,8.41,0,0,0,5.95-2.467,8.4,8.4,0,0,0,2.456-5.952v-24.065a11.163,11.163,0,0,0-3.7-8.316,11.168,11.168,0,0,0-8.663-2.8l-50.617,5.479a8.426,8.426,0,0,0-7.523,8.372v21.327a8.421,8.421,0,0,0,8.423,8.42" transform="translate(-10534.054 2906.418)" fill="#fff"/>
    </g>
    <g id="g7044" transform="translate(189.539 38.333)">
      <path id="path7046" d="M10806.164-2779.616l-11.948-10.9a.7.7,0,0,1-.175-.754.693.693,0,0,1,.636-.443h8.727l3.918,10.645-1.158,1.454" transform="translate(-10793.996 2791.714)" fill="#fff"/>
    </g>
    <g id="g7048" transform="translate(198.697 8.71)">
      <path id="path7050" d="M10532.99-2894.356a9.317,9.317,0,0,1,1.733-4.216,8.783,8.783,0,0,1,4.128-2.944,12.658,12.658,0,0,1,2.785-.5l3.313-.359,5.181-.561q3.236-.349,6.473-.7l7.219-.78,7.389-.8,6.982-.754c2-.219,4.025-.435,6.048-.656,1.5-.161,2.99-.323,4.468-.484l2.395-.258a11.725,11.725,0,0,1,6,.858,11.577,11.577,0,0,1,6.335,6.963,15.192,15.192,0,0,1,.546,4.71v22.782a8.8,8.8,0,0,1-3.364,6.978,8.665,8.665,0,0,1-4.5,1.787c-.935.092-1.884.041-2.836.041h-2.5a.273.273,0,0,1-.254-.273.273.273,0,0,1,.254-.273h2.548c.918,0,1.867.051,2.785-.039a8.223,8.223,0,0,0,7.05-5.988,13.967,13.967,0,0,0,.271-3.768v-22.369a10.915,10.915,0,0,0-3.227-7.8,10.99,10.99,0,0,0-8.867-3.092c-.459.048-.9.1-1.342.146l-3.618.39c-1.785.192-3.566.386-5.333.577l-6.523.707q-3.568.384-7.135.771c-2.429.261-4.84.523-7.271.786-2.276.245-4.537.491-6.812.737l-5.844.632c-1.427.154-2.854.311-4.3.466l-2.242.243a8.344,8.344,0,0,0-5.743,3.129,8.894,8.894,0,0,0-1.664,4.058c-.051.345-.577.2-.526-.146h0" transform="translate(-10532.986 2907.456)" fill="#1e203d"/>
    </g>
    <g id="g7052" transform="translate(201.863 -0.003)">
      <path id="path7054" d="M10705.5-2929.734a10.072,10.072,0,0,0,10.2,11.74,13.827,13.827,0,0,0,13.29-11.74,10.073,10.073,0,0,0-10.2-11.74,13.812,13.812,0,0,0-13.288,11.74" transform="translate(-10705.403 2941.474)" fill="#91a0fb"/>
    </g>
    <g id="g7056" transform="translate(207.517 5.186)">
      <path id="path7058" d="M10732.92-2913.224a1.723,1.723,0,0,0,2.1-.882,1.386,1.386,0,0,0-.609-1.995,1.736,1.736,0,0,0-2.117.884,1.39,1.39,0,0,0,.627,1.993Zm-4.485-4.728a.548.548,0,0,1,.541-.245,2.8,2.8,0,0,0,2.083-.5,2.93,2.93,0,0,0,1.219-1.822.622.622,0,0,1,.425-.442,7.2,7.2,0,0,1,1.708-.248.427.427,0,0,1,.44.319,2.145,2.145,0,0,0,1.271,1.465,2.649,2.649,0,0,0,2.1-.1.462.462,0,0,1,.542.086,5.574,5.574,0,0,1,.981,1.451.53.53,0,0,1-.119.576,2.864,2.864,0,0,0-.812,2,2.2,2.2,0,0,0,.88,1.748.456.456,0,0,1,.135.54,5.438,5.438,0,0,1-.372.83,8.334,8.334,0,0,1-.559.93.591.591,0,0,1-.558.246,2.8,2.8,0,0,0-2.083.5,3.078,3.078,0,0,0-1.22,1.823.625.625,0,0,1-.423.441,6.823,6.823,0,0,1-1.71.247.439.439,0,0,1-.44-.317,2.139,2.139,0,0,0-1.271-1.463,2.606,2.606,0,0,0-2.082.095.483.483,0,0,1-.56-.085,5.2,5.2,0,0,1-.965-1.453.534.534,0,0,1,.119-.576,2.839,2.839,0,0,0,.795-1.993,2.141,2.141,0,0,0-.861-1.749.463.463,0,0,1-.153-.542c.118-.278.236-.554.372-.828a6.389,6.389,0,0,1,.576-.929" transform="translate(-10727.453 2921.214)" fill="#fff"/>
    </g>
    <g id="g7060" transform="translate(210.003 8.03)">
      <path id="path7062" d="M10737.974-2907.5a2.976,2.976,0,0,0,.542,3.622,3.134,3.134,0,0,0,3.536.176,3.713,3.713,0,0,0,1.912-3.347,2.664,2.664,0,0,0-2.4-2.5,3.758,3.758,0,0,0-3.586,2.045c-.152.312-.627.036-.474-.274a4.345,4.345,0,0,1,3.723-2.333,3.247,3.247,0,0,1,3.215,2.485c.692,3.116-3.08,6.206-5.923,4.423a3.5,3.5,0,0,1-1.015-4.575c.169-.315.642-.039.474.274" transform="translate(-10737.07 2910.111)" fill="#6f7292"/>
    </g>
    <g id="g7064" transform="translate(216.598 25.92)">
      <path id="path7066" d="M10618.562-2839.716h-15.83a.274.274,0,0,1-.265-.273.274.274,0,0,1,.265-.273h15.84a.272.272,0,0,1,.265.273.273.273,0,0,1-.265.273h0" transform="translate(-10602.467 2840.263)" fill="#1e203d"/>
    </g>
    <g id="g7068" transform="translate(216.445 32.269)">
      <path id="path7070" d="M10637.67-2814.864h-34.938a.273.273,0,0,1-.263-.273.273.273,0,0,1,.264-.272h34.938a.272.272,0,0,1,.254.272.272.272,0,0,1-.254.273h0" transform="translate(-10602.469 2815.409)" fill="#1e203d"/>
    </g>
    <g id="g7072" transform="translate(216.445 38.63)">
      <path id="path7074" d="M10637.67-2790.014h-34.938a.272.272,0,0,1-.263-.272.272.272,0,0,1,.264-.272h34.938a.273.273,0,0,1,.254.272.273.273,0,0,1-.254.272h0" transform="translate(-10602.469 2790.559)" fill="#1e203d"/>
    </g>
    <g id="Group_74431" data-name="Group 74431" transform="translate(86.059 33.981)">
      <g id="g7092" transform="translate(0 0)">
        <path id="path7094" d="M11048.966-2968.926a16.365,16.365,0,0,1-14.1,15.807,12.249,12.249,0,0,1-14.114-12.4,16.365,16.365,0,0,1,14.114-15.806,12.243,12.243,0,0,1,14.1,12.4" transform="translate(-11020.753 2981.433)" fill="#61c98e"/>
      </g>
      <g id="g7184" transform="translate(10.373 6.13)">
        <path id="path7186" d="M11062.712-2943a.955.955,0,0,0-.331-.765,1,1,0,0,0-.8-.235,1.236,1.236,0,0,0-.819.433,1.218,1.218,0,0,0-.332.845,1,1,0,0,0,.332.794.958.958,0,0,0,.819.244,1.244,1.244,0,0,0,.8-.439A1.27,1.27,0,0,0,11062.712-2943Zm-.175-4.354a1.483,1.483,0,0,0-.1.41,3.348,3.348,0,0,0-.017.443,1,1,0,0,1-.245.629.946.946,0,0,1-.61.331.721.721,0,0,1-.61-.183.7.7,0,0,1-.242-.571,3.5,3.5,0,0,1,.016-.441,1.487,1.487,0,0,1,.1-.41,5.5,5.5,0,0,1,.437-.954,9.361,9.361,0,0,1,.575-.852c.209-.275.418-.544.646-.805.208-.263.417-.533.61-.815a7.808,7.808,0,0,0,.835-1.311,3.6,3.6,0,0,0,.349-1.555,2.7,2.7,0,0,0-.662-1.893,2.242,2.242,0,0,0-2-.552,5.881,5.881,0,0,0-1.115.242,5.378,5.378,0,0,0-.905.412,3.633,3.633,0,0,0-.7.468,1.141,1.141,0,0,1-.593.286.764.764,0,0,1-.558-.147.626.626,0,0,1-.262-.549.869.869,0,0,1,.139-.467,1.582,1.582,0,0,1,.419-.415,6.675,6.675,0,0,1,1.708-.955,8.189,8.189,0,0,1,1.9-.442,4.568,4.568,0,0,1,1.813.1,3.451,3.451,0,0,1,1.359.717,3.187,3.187,0,0,1,.836,1.2,4.062,4.062,0,0,1,.3,1.562,5.659,5.659,0,0,1-.437,2.327,7.992,7.992,0,0,1-1.115,1.826,14.461,14.461,0,0,1-1.027,1.165,4.564,4.564,0,0,0-.837,1.2" transform="translate(-11057.482 2957.5)" fill="#fff"/>
      </g>
    </g>
    <g id="g7188" transform="translate(149.68 33.985)">
      <path id="path7190" d="M10993.471-2804.87c-.4-.015-.863-.264-1-1.048-.19-1.131.294-3.036,1.538-2.761,1.35.294.9,3.861-.536,3.809" transform="translate(-10992.429 2808.706)" fill="#252637"/>
    </g>
    <g id="g7192" transform="translate(156.99 35.492)">
      <path id="path7194" d="M10964.983-2798.98c-.4-.015-.846-.265-1-1.046-.19-1.131.293-3.037,1.552-2.762,1.344.294.878,3.861-.552,3.809" transform="translate(-10963.945 2802.816)" fill="#252637"/>
    </g>
    <g id="g7196" transform="translate(156.55 30.836)">
      <path id="path7198" d="M10956.907-2817.193a1.884,1.884,0,0,1-1.588.1c-.655-.166-1.31-.343-1.948-.514a3.6,3.6,0,0,1-1.5-.6,1.325,1.325,0,0,1-.362-1.533,2.385,2.385,0,0,1,2.4-1.255,4.019,4.019,0,0,1,3.432,2.3,1.349,1.349,0,0,1-.431,1.506" transform="translate(-10951.401 2821.002)" fill="#252637"/>
    </g>
    <g id="g7200" transform="translate(149.229 29.82)">
      <path id="path7202" d="M10989.015-2821.829c-.777.417-1.487.085-2.249-.012-.569-.069-1.176-.081-1.418-.711-.38-.951.642-1.89,1.418-2.189a2.638,2.638,0,0,1,2.784.351,1.49,1.49,0,0,1,.364,1.439,1.842,1.842,0,0,1-.9,1.122" transform="translate(-10985.266 2824.972)" fill="#252637"/>
    </g>
    <g id="g7204" transform="translate(161.688 16.755)">
      <path id="path7206" d="M10863.943-2870.576a7.309,7.309,0,0,1,2.48-3.525,10.591,10.591,0,0,1,8.815-1.645,14.612,14.612,0,0,1,7.026,3.761,15.469,15.469,0,0,1,4.22,7.423,17.609,17.609,0,0,1,.5,4.457,10.5,10.5,0,0,1-.568,3.849,7.913,7.913,0,0,1-2.669,3.687c-1.188.773-4.374,3.816-5.735,3.768-4.89-.172-7.369-2.784-10.143-7.189s-5.147-10.817-3.926-14.585" transform="translate(-10863.614 2876.046)" fill="#252637"/>
    </g>
    <g id="g7208" transform="translate(119.325 83.785)">
      <path id="path7210" d="M10854.354-2609.66l-2.85,52.468a4.157,4.157,0,0,1-4.158,3.93h-77.518a4.141,4.141,0,0,1-4.142-3.93l-2.866-52.468a4.172,4.172,0,0,1,1.137-3.084,4.164,4.164,0,0,1,3.022-1.3h83.232a4.141,4.141,0,0,1,3.014,1.3,4.15,4.15,0,0,1,1.128,3.082" transform="translate(-10762.814 2614.04)" fill="#b9b8c1"/>
    </g>
    <g id="g7212" transform="translate(119.54 87.293)">
      <path id="path7214" d="M10763.613-2598.045a4.548,4.548,0,0,1,4.073-2.391c.4,0,.8,0,1.188,0h79.576a22.516,22.516,0,0,1,2.918.04,4.44,4.44,0,0,1,3.355,2.377.273.273,0,0,1-.1.373.273.273,0,0,1-.373-.1,4.006,4.006,0,0,0-3.669-2.146H10770.1c-.856,0-1.694-.012-2.532,0a3.968,3.968,0,0,0-3.479,2.119c-.158.31-.629.035-.472-.274h0" transform="translate(-10763.584 2600.464)" fill="#1e203d"/>
    </g>
    <g id="g7216" transform="translate(158.27 109.874)">
      <path id="path7218" d="M10915.5-2506.257a5.6,5.6,0,0,0,4.119,5.1,6.949,6.949,0,0,0,7-1.625,4.93,4.93,0,0,0,.569-6.27,6.713,6.713,0,0,0-6.618-2.542c-2.637.461-5.05,2.513-5.068,5.334a.276.276,0,0,1-.274.263.276.276,0,0,1-.276-.263,6.172,6.172,0,0,1,4.534-5.631,7.479,7.479,0,0,1,7.583,1.83,5.457,5.457,0,0,1,.586,6.866,7.277,7.277,0,0,1-7.239,2.794c-2.878-.505-5.429-2.808-5.463-5.86a.276.276,0,0,1,.275-.264.276.276,0,0,1,.275.264" transform="translate(-10914.945 2512.237)" fill="#1e203d"/>
    </g>
    <g id="g7220" transform="translate(166.469 35.865)">
      <path id="path7222" d="M10897.891-2795.752c-.1,2.985,2.012,5.317,4.727,5.21a5.666,5.666,0,0,0,5.1-5.6c.1-2.985-2.011-5.317-4.726-5.209a5.668,5.668,0,0,0-5.1,5.6" transform="translate(-10897.887 2801.355)" fill="#fff"/>
    </g>
    <g id="g7224" transform="translate(142.943 41.397)">
      <path id="path7226" d="M11013.481-2777.694a1.805,1.805,0,0,0,1.717,2.052,2.154,2.154,0,0,0,2.026-2.052,1.806,1.806,0,0,0-1.716-2.054,2.157,2.157,0,0,0-2.028,2.054" transform="translate(-11013.475 2779.748)" fill="#fff"/>
    </g>
    <g id="g7228" transform="translate(173.209 16.854)">
      <path id="path7230" d="M10890.57-2854.448a25.783,25.783,0,0,0,3.652-8.2,23.489,23.489,0,0,0,.721-4.5,9.774,9.774,0,0,0-.686-4.648,7.406,7.406,0,0,0-3.121-3.359c-.31-.167-.033-.638.274-.472a7.952,7.952,0,0,1,3.018,2.976,9.234,9.234,0,0,1,1.08,4.483,24.13,24.13,0,0,1-1.954,9.3,25.95,25.95,0,0,1-2.5,4.7c-.205.289-.669.017-.481-.276h0" transform="translate(-10890.526 2875.662)" fill="#fff"/>
    </g>
    <g id="g7232" transform="translate(167.87 36.41)">
      <path id="path7234" d="M10911.76-2798.642a4.969,4.969,0,0,0-4.93,2.682,5.489,5.489,0,0,0,.5,6.158c.24.263-.154.651-.38.387a6.15,6.15,0,0,1,1.908-9.267,5.011,5.011,0,0,1,2.9-.507c.344.047.344.591,0,.547h0" transform="translate(-10905.583 2799.228)" fill="#252637"/>
    </g>
    <g id="g7236" transform="translate(222.645 63.121)">
      <path id="path7238" d="M10534.06-2662.491l35.33,5.134a6.442,6.442,0,0,0,5.137-1.507,6.442,6.442,0,0,0,2.222-4.869V-2688.4a6.437,6.437,0,0,0-6.434-6.443h-35.346a6.439,6.439,0,0,0-6.434,6.443v19.533a6.449,6.449,0,0,0,5.524,6.374" transform="translate(-10528.535 2694.842)" fill="#fff"/>
    </g>
    <g id="g7240" transform="translate(263.311 62.843)">
      <path id="path7242" d="M10530.673-2658.751a6.22,6.22,0,0,0,4.016-5.379c.033-.495.016-.994.016-1.486v-23.226a6.779,6.779,0,0,0-.778-3.36,6.239,6.239,0,0,0-5.409-3.172c-.266,0-.547,0-.83,0a.273.273,0,0,1-.259-.273.272.272,0,0,1,.259-.273,9.9,9.9,0,0,1,2.539.216,6.72,6.72,0,0,1,2.887,1.6,6.817,6.817,0,0,1,2.141,4.951v24.61a6.812,6.812,0,0,1-2.9,5.532,6.833,6.833,0,0,1-1.527.79c-.331.125-.463-.4-.148-.526h0" transform="translate(-10527.428 2695.929)" fill="#1e203d"/>
    </g>
    <g id="g7244" transform="translate(233.336 71.191)">
      <path id="path7246" d="M10562.055-2644.533l24.341,1.351a2.251,2.251,0,0,0,1.641-.576,2.257,2.257,0,0,0,.741-1.573l.639-15.224a2.261,2.261,0,0,0-.614-1.638,2.253,2.253,0,0,0-1.6-.7l-24.377-.443a2.241,2.241,0,0,0-2.28,2.152l-.6,14.318a2.242,2.242,0,0,0,2.111,2.337" transform="translate(-10559.939 2663.342)" fill="#fbc65d"/>
    </g>
    <g id="g7248" transform="translate(234.528 71.199)">
      <path id="path7250" d="M10590.381-2661.739a95.4,95.4,0,0,1-8.1,7.284c-2.146,1.7-4.762,3.555-7.664,3.223a5,5,0,0,1-2.246-.9,18.724,18.724,0,0,1-3.338-3.109q-3.183-3.688-5.984-7.681c-.2-.285.266-.559.468-.275,1.712,2.369,3.454,4.722,5.351,6.938a22.786,22.786,0,0,0,3.4,3.381,5.2,5.2,0,0,0,2.162,1.073,6.153,6.153,0,0,0,2.363-.147,12.14,12.14,0,0,0,4.343-2.3,93.213,93.213,0,0,0,8.854-7.873.273.273,0,0,1,.374.013.271.271,0,0,1,.011.375h0" transform="translate(-10563 2663.319)" fill="#1e203d"/>
    </g>
    <g id="g7252" transform="translate(231.885 68.912)">
      <path id="path7254" d="M10646.092-2677.455a3.507,3.507,0,0,0,3.354,3.646,3.5,3.5,0,0,0,3.637-3.352,3.5,3.5,0,0,0-.912-2.517,3.5,3.5,0,0,0-2.428-1.128,3.507,3.507,0,0,0-2.521.919,3.507,3.507,0,0,0-1.129,2.433" transform="translate(-10646.089 2680.811)" fill="#f3536e"/>
    </g>
    <g id="g7256" transform="translate(251.893 80.773)">
      <path id="path7258" d="M10574.429-2616q-4.475-4.726-8.932-9.453a.273.273,0,0,1,.385-.387l8.947,9.455c.234.256-.15.641-.4.384h0" transform="translate(-10565.416 2625.923)" fill="#1e203d"/>
    </g>
    <g id="g7260" transform="translate(233.931 80.999)">
      <path id="path7262" d="M10636.463-2616.96q4.354-4.005,8.723-8.007c.251-.238.637.148.385.386q-4.377,4-8.721,8.007c-.252.238-.638-.147-.387-.385h0" transform="translate(-10636.382 2625.042)" fill="#1e203d"/>
    </g>
    <g id="g7264" transform="translate(216.61 63.135)">
      <path id="path7266" d="M10679.746-2694.83h-20.152a.726.726,0,0,0-.678.456.726.726,0,0,0,.172.8l5.822,5.812,14.836-7.066" transform="translate(-10658.862 2694.83)" fill="#fff"/>
    </g>
    <g id="g7268" transform="translate(222.365 75.868)">
      <path id="path7270" d="M10617.938-2644.815v12.951a6.494,6.494,0,0,0,.774,3.02,6.306,6.306,0,0,0,4.648,3.131c.824.119,1.634.235,2.442.355q4.976.72,9.919,1.44c1.55.224,3.081.448,4.632.672.808.119,1.634.21,2.441.357.034.007.084.01.118.017.354.051.2.576-.134.526l-6.114-.886q-5.1-.746-10.239-1.489l-3-.436a6.981,6.981,0,0,1-4.126-2.009,6.885,6.885,0,0,1-1.9-4.935v-12.715a.27.27,0,0,1,.27-.253.268.268,0,0,1,.268.253h0" transform="translate(-10617.399 2645.068)" fill="#1e203d"/>
    </g>
  </g>
</svg>
