<svg xmlns="http://www.w3.org/2000/svg" xmlns:xlink="http://www.w3.org/1999/xlink" width="28" height="28" viewBox="0 0 28 28">
  <defs>
    <clipPath id="clip-path">
      <rect id="Rectangle_4" data-name="Rectangle 4" width="28" height="28" transform="translate(0 -0.374)" fill="#fff"/>
    </clipPath>
    <linearGradient id="linear-gradient" x1="0.084" y1="0.939" x2="0.889" y2="0.287" gradientUnits="objectBoundingBox">
      <stop offset="0" stop-color="#fca111"/>
      <stop offset="0.1" stop-color="#fd867c"/>
      <stop offset="0.242" stop-color="#f97480"/>
      <stop offset="0.339" stop-color="#f474b0"/>
      <stop offset="0.512" stop-color="#d278f8"/>
      <stop offset="0.774" stop-color="#9588f9"/>
      <stop offset="1" stop-color="#7664fe"/>
    </linearGradient>
  </defs>
  <g id="shoppress-icon" transform="translate(0 0.374)" clip-path="url(#clip-path)">
    <g id="Icon" transform="translate(1.113 -0.148)">
      <path id="Path_7" data-name="Path 7" d="M-3432.773-5187.678h-6.381a1.837,1.837,0,0,1-1.305-.54,1.839,1.839,0,0,1-.541-1.306l2.031-17.541a1.832,1.832,0,0,1,.541-1.305,1.83,1.83,0,0,1,1.305-.541h2.544a6.088,6.088,0,0,1,.5-2.37,6.138,6.138,0,0,1,1.318-1.935,6.121,6.121,0,0,1,1.945-1.3,6.08,6.08,0,0,1,2.375-.479,6.076,6.076,0,0,1,2.375.479,6.133,6.133,0,0,1,1.945,1.3,6.122,6.122,0,0,1,1.318,1.936,6.061,6.061,0,0,1,.5,2.369h2.636a1.838,1.838,0,0,1,1.306.541,1.838,1.838,0,0,1,.541,1.306l.586,5.308-.25-2.248-11.484-.006a4.36,4.36,0,0,0-2.985,1.21,5.521,5.521,0,0,0-1.722,2.886,3.538,3.538,0,0,0,.376,2.834,2.719,2.719,0,0,0,2.445,1.237h8.322a.44.44,0,0,1,.368.149,1.03,1.03,0,0,1,.047.842,1.7,1.7,0,0,1-.333.744.693.693,0,0,1-.54.248h-8.347l-.714,3.091-.714,3.091Zm4.328-25.6a4.425,4.425,0,0,0-4.41,4.364h8.82A4.425,4.425,0,0,0-3428.445-5213.276Zm10.709,25.6h-11.945l.713-3.091h5.256A4.425,4.425,0,0,0-3420.7-5192a5.509,5.509,0,0,0,1.663-2.851,3.672,3.672,0,0,0-.349-2.851,2.729,2.729,0,0,0-2.452-1.232h-8.338a.449.449,0,0,1-.372-.15,1.013,1.013,0,0,1-.048-.829,1.745,1.745,0,0,1,.336-.754.691.691,0,0,1,.542-.251l12.562-.032-.089-.8.09.8h0l1.263,11.428a1.833,1.833,0,0,1-.541,1.306,1.835,1.835,0,0,1-1.305.541Z" transform="translate(3441 5215)" stroke="rgba(0,0,0,0)" stroke-width="1" fill="url(#linear-gradient)"/>
    </g>
  </g>
</svg>
