<svg xmlns="http://www.w3.org/2000/svg" xmlns:xlink="http://www.w3.org/1999/xlink" width="19.372" height="20.989" viewBox="0 0 19.372 20.989">
  <defs>
    <linearGradient id="linear-gradient" x1="0.084" y1="0.939" x2="0.889" y2="0.287" gradientUnits="objectBoundingBox">
      <stop offset="0" stop-color="#fca111"/>
      <stop offset="0.1" stop-color="#fd867c"/>
      <stop offset="0.242" stop-color="#f97480"/>
      <stop offset="0.339" stop-color="#f474b0"/>
      <stop offset="0.512" stop-color="#d278f8"/>
      <stop offset="0.774" stop-color="#9588f9"/>
      <stop offset="1" stop-color="#7664fe"/>
    </linearGradient>
  </defs>
  <g id="sp-wp-menu-icon" transform="translate(0.5 0.5)">
    <path id="Path_13630" data-name="Path 13630" d="M12312.57,3540.708l-12.8-.046-1.1,12.066h13.88l.294-9.546Z" transform="translate(-12295.391 -3532.779)" fill="#fff"/>
    <path id="Path_7" data-name="Path 7" d="M-3434.981-5195.011h-4.668a1.341,1.341,0,0,1-.955-.4,1.34,1.34,0,0,1-.4-.955l1.486-12.833a1.342,1.342,0,0,1,.4-.955,1.339,1.339,0,0,1,.956-.4h1.861a4.448,4.448,0,0,1,.362-1.734,4.481,4.481,0,0,1,.965-1.416,4.473,4.473,0,0,1,1.423-.955,4.454,4.454,0,0,1,1.738-.35,4.443,4.443,0,0,1,1.738.35,4.478,4.478,0,0,1,1.423.955,4.482,4.482,0,0,1,.964,1.416,4.448,4.448,0,0,1,.362,1.734h1.929a1.341,1.341,0,0,1,.956.4,1.344,1.344,0,0,1,.4.955l.429,3.884-.183-1.645-8.4,0a3.187,3.187,0,0,0-2.184.886,4.036,4.036,0,0,0-1.26,2.111,2.59,2.59,0,0,0,.275,2.074,1.99,1.99,0,0,0,1.79.905h6.088a.323.323,0,0,1,.27.109.756.756,0,0,1,.035.617,1.251,1.251,0,0,1-.244.544.506.506,0,0,1-.4.181h-6.107l-.522,2.263-.522,2.261Zm3.167-18.729a3.237,3.237,0,0,0-3.227,3.193h6.453A3.237,3.237,0,0,0-3431.814-5213.739Zm7.835,18.728h-8.739l.522-2.262h3.845a3.237,3.237,0,0,0,2.207-.9,4.03,4.03,0,0,0,1.216-2.085,2.689,2.689,0,0,0-.255-2.086,2,2,0,0,0-1.794-.9h-6.1a.327.327,0,0,1-.272-.11.741.741,0,0,1-.035-.606,1.263,1.263,0,0,1,.245-.551.511.511,0,0,1,.4-.184l9.191-.022-.065-.589.066.589h0l.924,8.36a1.343,1.343,0,0,1-.4.956,1.343,1.343,0,0,1-.955.4Z" transform="translate(3441 5215)" stroke="rgba(0,0,0,0)" stroke-width="1" fill="url(#linear-gradient)"/>
  </g>
</svg>
