<svg xmlns="http://www.w3.org/2000/svg" width="18" height="16.8" viewBox="0 0 18 16.8">
  <path id="sp-cart-ico-10" d="M0,2.6A.6.6,0,0,1,.6,2H2.4a.6.6,0,0,1,.582.455L3.468,4.4H17.4a.6.6,0,0,1,.582.745l-1.8,7.2a.6.6,0,0,1-.582.455H4.8a.6.6,0,0,1-.582-.455L1.932,3.2H.6A.6.6,0,0,1,0,2.6Zm3.768,3,1.5,6h9.864l1.5-6ZM6,15.2a1.2,1.2,0,1,0,1.2,1.2A1.2,1.2,0,0,0,6,15.2ZM3.6,16.4A2.4,2.4,0,1,1,6,18.8,2.4,2.4,0,0,1,3.6,16.4Zm10.8-1.2a1.2,1.2,0,1,0,1.2,1.2A1.2,1.2,0,0,0,14.4,15.2ZM12,16.4a2.4,2.4,0,1,1,2.4,2.4A2.4,2.4,0,0,1,12,16.4Z" transform="translate(0 -2)"/>
</svg>
