<svg xmlns="http://www.w3.org/2000/svg" width="19.525" height="18" viewBox="0 0 19.525 18">
  <path id="sp-cart-ico-5" d="M34.915,25.576H28.661V23.9a2.9,2.9,0,0,0-5.8,0v1.678H16.61a.61.61,0,0,0-.592.758l3.051,12.2a.61.61,0,0,0,.592.462h12.2a.61.61,0,0,0,.592-.462l3.051-12.2a.611.611,0,0,0-.592-.758ZM24.085,23.9a1.678,1.678,0,0,1,3.356,0v1.678H24.085Zm7.3,13.881H20.137L17.392,26.8H34.134Zm-8.835-3.29a.61.61,0,0,1-.518.69.65.65,0,0,1-.087.006.61.61,0,0,1-.6-.524l-.763-5.339a.61.61,0,0,1,1.208-.173Zm6.419,0,.763-5.339a.61.61,0,0,1,1.208.173l-.763,5.339a.61.61,0,0,1-.6.524.652.652,0,0,1-.087-.006A.611.611,0,0,1,28.972,34.49Zm-2.6-5.253v5.339a.61.61,0,0,1-1.22,0V29.237a.61.61,0,1,1,1.22,0Z" transform="translate(-16 -21)"/>
</svg>
