<svg xmlns="http://www.w3.org/2000/svg" width="18.911" height="18.75" viewBox="0 0 18.911 18.75">
  <g id="sp-cart-ico-8" transform="translate(-1.25 -2.25)">
    <path id="Path_11" data-name="Path 11" d="M2.237,2.288a.75.75,0,1,0-.474,1.423l.265.088a15.232,15.232,0,0,1,1.453.529,1.251,1.251,0,0,1,.533.382,1.251,1.251,0,0,1,.194.627A15.233,15.233,0,0,1,4.25,6.883V9.555a27.417,27.417,0,0,0,.117,3.337,3.717,3.717,0,0,0,.982,2.26,3.717,3.717,0,0,0,2.26.982,27.411,27.411,0,0,0,3.337.117H18a.75.75,0,0,0,0-1.5H11a26.852,26.852,0,0,1-3.192-.1,2.255,2.255,0,0,1-1.4-.556A1.968,1.968,0,0,1,5.9,13H16.022a3.342,3.342,0,0,0,1.815-.248c.376-.248.565-.689.943-1.571l.429-1c.809-1.889,1.214-2.833.77-3.507S18.506,6,16.451,6H5.745c-.006-.308-.019-.585-.047-.833a2.717,2.717,0,0,0-.467-1.334,2.717,2.717,0,0,0-1.117-.865A15.9,15.9,0,0,0,2.542,2.39Z"/>
    <path id="Path_12" data-name="Path 12" d="M7.5,18A1.5,1.5,0,1,1,6,19.5,1.5,1.5,0,0,1,7.5,18Z"/>
    <path id="Path_13" data-name="Path 13" d="M16.5,18A1.5,1.5,0,1,1,15,19.5,1.5,1.5,0,0,1,16.5,18Z"/>
  </g>
</svg>
