<svg xmlns="http://www.w3.org/2000/svg" width="18.077" height="19.5" viewBox="0 0 18.077 19.5">
  <path id="sp-cart-ico-6" d="M16.7,8.294h1.228a2.118,2.118,0,0,1,2.11,1.942l.706,8.471A2.118,2.118,0,0,1,18.63,21H6.291a2.118,2.118,0,0,1-2.11-2.294l.706-8.471A2.118,2.118,0,0,1,7,8.294H8.225m8.471,0H8.225m8.471,0V7.235a4.235,4.235,0,1,0-8.471,0V8.294m8.471,0V9.529M8.225,8.294V9.529" transform="translate(-3.422 -2.25)" fill="none" stroke="#000" stroke-linecap="round" stroke-linejoin="round" stroke-width="1.5"/>
</svg>
