<svg xmlns="http://www.w3.org/2000/svg" width="17.175" height="18" viewBox="0 0 17.175 18">
  <g id="sp-cart-ico-4" transform="translate(-2.458 -2)">
    <path id="Path_9" data-name="Path 9" d="M6.059,6A3.535,3.535,0,0,0,2.5,9.995l.918,6.249A4.461,4.461,0,0,0,7.868,20h6.355a4.461,4.461,0,0,0,4.455-3.756L19.6,9.995A3.535,3.535,0,0,0,16.033,6Z" transform="translate(0)" fill-rule="evenodd"/>
    <path id="Path_10" data-name="Path 10" d="M6.841,4.764A4.2,4.2,0,0,1,10.6,2h.888a4.2,4.2,0,0,1,3.761,2.764L16,6.553a1.1,1.1,0,0,1-.376,1.342A.784.784,0,0,1,14.5,7.447l-.752-1.789A2.518,2.518,0,0,0,11.49,4H10.6A2.517,2.517,0,0,0,8.345,5.658L7.593,7.447a.784.784,0,0,1-1.128.447,1.1,1.1,0,0,1-.376-1.342Z" fill-rule="evenodd"/>
  </g>
</svg>
