<svg xmlns="http://www.w3.org/2000/svg" width="18" height="14.146" viewBox="0 0 18 14.146">
  <path id="sp-cart-ico-2" d="M17.961,14.189l-2.093,6.593a1.109,1.109,0,0,1-1.057.783H6.73a1.154,1.154,0,0,1-1.076-.724L2.563,12.565H.783A.783.783,0,1,1,.783,11H3.111a.8.8,0,0,1,.743.528L7.043,20h7.435l1.663-5.283H6.926a.783.783,0,1,1,0-1.565H17.217a.778.778,0,0,1,.626.333A.759.759,0,0,1,17.961,14.189ZM7.122,22.6a1.269,1.269,0,1,0,.9.372A1.29,1.29,0,0,0,7.122,22.6Zm7.024,0a1.269,1.269,0,1,0,.9.372A1.29,1.29,0,0,0,14.146,22.6Z" transform="translate(0 -11)"/>
</svg>
