<svg xmlns="http://www.w3.org/2000/svg" width="18" height="16.8" viewBox="0 0 18 16.8">
  <path id="sp-cart-ico-11" d="M0,2.6A.6.6,0,0,1,.6,2H2.4a.6.6,0,0,1,.582.455L3.468,4.4H17.4a.6.6,0,0,1,.582.745l-1.8,7.2a.6.6,0,0,1-.582.455H4.8a.6.6,0,0,1-.582-.455L1.932,3.2H.6A.6.6,0,0,1,0,2.6Zm3.768,3,.6,2.4H6V5.6ZM7.2,5.6V8H9.6V5.6Zm3.6,0V8h2.4V5.6Zm3.6,0V8h1.632l.6-2.4Zm1.332,3.6H14.4v2.4h.732ZM13.2,9.2H10.8v2.4h2.4Zm-3.6,0H7.2v2.4H9.6ZM6,9.2H4.668l.6,2.4H6Zm0,6a1.2,1.2,0,1,0,1.2,1.2A1.2,1.2,0,0,0,6,15.2ZM3.6,16.4A2.4,2.4,0,1,1,6,18.8,2.4,2.4,0,0,1,3.6,16.4Zm10.8-1.2a1.2,1.2,0,1,0,1.2,1.2A1.2,1.2,0,0,0,14.4,15.2ZM12,16.4a2.4,2.4,0,1,1,2.4,2.4A2.4,2.4,0,0,1,12,16.4Z" transform="translate(0 -2)"/>
</svg>
